<?xml version="1.0"?>
<?xml-stylesheet type="text/css" href="icon.css"?>

<svg width="640" height="480" xmlns="http://www.w3.org/2000/svg" xmlns:svg="http://www.w3.org/2000/svg">
<script href="./StudentWellnessVisualization/resources/icon.js"></script>
 <!-- Created with SVG-edit - https://github.com/SVG-Edit/svgedit-->
 <g class="layer">
  <path d="m0.5,475.399994c0.057167,-1.757172 0.347389,-2.661774 0.7045,-3.40451c0.385024,-0.800781 0.810202,-1.609894 1.0955,-2.280823c0.421948,-0.992279 0.612262,-1.557404 0.9,-2.476318c0.313413,-1.000916 0.506393,-1.724701 0.7,-2.495667c0.206844,-0.823669 0.406568,-1.713348 0.6,-2.676025c0.20842,-1.037262 0.30204,-1.585938 0.520833,-2.729156c0.113887,-0.595062 0.230618,-1.204895 0.3645,-1.8255c0.418022,-1.937775 0.59834,-2.599762 0.762833,-3.278168c0.167526,-0.690918 0.336406,-1.395142 0.4905,-2.116486c0.157018,-0.735016 0.322237,-1.485077 0.528,-3.05069c0.106137,-0.807587 0.169791,-1.63559 0.2235,-2.476501c0.054364,-0.851135 0.090036,-1.710968 0.1245,-2.5755c0.034539,-0.866455 0.05437,-1.732727 0.152,-3.447998c0.048119,-0.845398 0.114716,-1.680359 0.1905,-2.505005c0.074928,-0.815338 0.161105,-1.6203 0.2535,-2.414978c0.091304,-0.785309 0.187885,-1.560364 0.389334,-3.080017c0.098803,-0.745331 0.199358,-1.481598 0.3045,-2.209503c0.10421,-0.721436 0.213082,-1.436859 0.3315,-2.146484c0.117931,-0.706726 0.224409,-1.414673 0.685333,-3.510681c0.154343,-0.701874 0.330396,-1.400238 0.504001,-2.099976c0.173728,-0.700256 0.351225,-1.399567 0.521999,-2.100006c0.170557,-0.699554 0.498069,-2.097626 0.767334,-3.5c0.134191,-0.698883 0.251771,-1.399597 0.3645,-2.100006c0.112603,-0.699615 0.217557,-1.399811 0.3195,-2.100006c0.203778,-1.399628 0.400839,-2.799164 0.510333,-3.495483c0.109184,-0.694336 0.226297,-1.384918 0.363,-2.068512c0.136007,-0.680115 0.239938,-1.368744 0.871,-3.314484c0.208455,-0.642731 0.46515,-1.266937 0.729,-1.885529c0.263517,-0.617798 0.834486,-1.832703 1.130667,-2.434662c0.592317,-1.203796 0.89681,-1.801819 1.198667,-2.402649c0.607943,-1.210052 0.918364,-1.820099 1.234667,-2.434662c0.320019,-0.621765 0.644234,-1.252075 1.330666,-2.53067c0.352222,-0.656067 0.71686,-1.318359 1.0905,-1.986023c0.377012,-0.673676 0.761742,-1.34845 1.153502,-2.021973c0.391909,-0.673798 1.587439,-2.659882 1.989166,-3.30368c0.396965,-0.636169 0.794806,-1.260559 1.189499,-1.875c0.388987,-0.60556 0.77486,-1.19989 1.153502,-1.785004c0.372023,-0.57489 1.437109,-2.239716 1.773167,-2.778992c0.332598,-0.533722 0.661797,-1.066101 1.309332,-2.144012c0.328926,-0.547546 0.660461,-1.106964 1.341333,-2.272003c0.355772,-0.608765 1.089149,-1.872772 1.469336,-2.517334c0.383469,-0.650116 0.771774,-1.300415 1.168499,-1.944c0.393967,-0.639099 1.191479,-1.874725 1.595501,-2.462494c0.396072,-0.576202 0.795677,-1.136169 1.599998,-2.221985c0.397869,-0.537109 0.801781,-1.067657 1.200001,-1.603516c0.8036,-1.081329 1.601627,-2.201538 2,-2.774506c0.401646,-0.577698 0.800934,-1.163025 1.200001,-1.753479c0.400936,-0.593201 0.800152,-1.190582 1.599998,-2.389343c0.801487,-1.201233 1.204048,-1.80481 1.610668,-2.410675c0.40971,-0.610474 0.82457,-1.22583 1.246498,-1.846497c0.427391,-0.628693 1.308697,-1.910034 1.764168,-2.564148c0.461849,-0.663269 0.931129,-1.331512 1.403999,-2.004028c0.474464,-0.674805 0.949734,-1.34903 1.422001,-2.021973c0.469067,-0.668396 1.387444,-1.985016 1.831165,-2.6315c0.437595,-0.637543 0.866879,-1.271332 1.2855,-1.906525c0.417717,-0.63382 0.828854,-1.273804 1.231503,-1.9245c0.406734,-0.657288 1.207905,-2.021576 1.604664,-2.733154c0.404655,-0.725739 0.805267,-1.470856 1.210503,-2.229004c0.41111,-0.769135 0.823868,-1.55011 1.246498,-2.337006c0.426689,-0.794464 1.306499,-2.3927 1.764168,-3.190979c0.45966,-0.801758 0.930584,-1.600433 1.403999,-2.400024c0.473919,-0.800446 0.950813,-1.599091 1.422001,-2.399994c0.470146,-0.799133 1.388649,-2.398529 1.831329,-3.199646c0.439972,-0.796204 0.867752,-1.591827 1.296005,-2.379028c0.424423,-0.780151 0.846115,-1.55191 1.278,-2.306976c0.426849,-0.746277 1.307007,-2.185669 1.768661,-2.871338c0.455811,-0.677002 0.927795,-1.331299 1.403999,-1.971008c0.471176,-0.632965 0.949135,-1.250824 1.422005,-1.863007c0.468468,-0.606476 1.389168,-1.806641 1.831169,-2.409149c0.439331,-0.598846 0.867294,-1.202301 1.2855,-1.810516c0.418137,-0.608124 0.827972,-1.223602 1.231499,-1.846497c0.40583,-0.626465 1.206039,-1.908539 1.6045,-2.563995c0.401558,-0.660553 0.799553,-1.327271 1.199997,-1.9935c0.399559,-0.664764 0.797531,-1.325531 1.200005,-1.975494c0.397552,-0.642029 1.195747,-1.879395 1.599998,-2.466827c0.395859,-0.575226 0.797096,-1.130829 1.199997,-1.671021c0.397156,-0.532471 0.798546,-1.051788 1.200005,-1.562988c0.398552,-0.507477 1.199997,-1.509003 1.599998,-2.009003c0.400002,-0.5 0.799995,-1 1.599998,-2c0.400002,-0.5 0.799988,-1 1.199997,-1.5c1.199959,-1.499878 1.599258,-1.999268 2,-2.495514c0.399254,-0.494415 1.198265,-1.46994 1.600006,-1.947327c0.398277,-0.473297 1.598618,-1.837433 2.001328,-2.274506c0.401627,-0.435913 1.219902,-1.303131 1.634666,-1.743988c0.421577,-0.44812 0.859932,-0.898438 2.185501,-2.3815c0.467598,-0.523163 0.935936,-1.066742 1.414505,-1.6185c0.4851,-0.559265 0.973572,-1.124939 1.468498,-1.690491c0.495743,-0.566467 1.492996,-1.683838 1.995499,-2.226501c0.497528,-0.537292 1.497482,-1.577515 2,-2.080017c0.497513,-0.497498 0.996216,-0.984009 1.5,-1.454987c0.992607,-0.927979 1.999718,-1.804565 2.504501,-2.234009c0.504555,-0.42923 1.015411,-0.85379 1.531502,-1.277985c1.047462,-0.860962 2.130814,-1.74115 2.685493,-2.196014c0.563988,-0.462494 1.134972,-0.93219 1.7145,-1.403992c0.584129,-0.475555 1.173119,-0.951294 1.768501,-1.421997c0.595284,-0.470612 1.792717,-1.389771 2.395332,-1.831177c1.190224,-0.871826 1.789146,-1.285995 2.379333,-1.700668c0.584488,-0.41066 1.165184,-0.814194 1.735504,-1.219498c1.121666,-0.797134 2.202789,-1.600739 2.732666,-2.005829c0.528801,-0.404266 1.053726,-0.814987 1.577995,-1.231506c0.528412,-0.419815 2.141251,-1.730774 2.696167,-2.185165c0.563751,-0.461624 1.134018,-0.929062 1.714508,-1.393494c0.583176,-0.466583 1.171463,-0.928238 1.768494,-1.375504c0.593674,-0.444748 1.785248,-1.292862 2.995499,-2.040497c0.595078,-0.367599 1.198929,-0.709915 1.800003,-1.048508c0.598938,-0.337387 1.202484,-0.664566 1.800003,-1.003494c1.807632,-1.02533 2.400894,-1.399887 3,-1.770004c0.600891,-0.371216 1.199554,-0.748047 1.800003,-1.121994c0.599548,-0.373383 2.397491,-1.463058 3.000168,-1.803497c0.598709,-0.338211 1.201111,-0.662079 1.810486,-0.964508c0.607025,-0.301254 1.841171,-0.852554 2.47467,-1.085327c1.271255,-0.467102 1.934143,-0.636444 2.598663,-0.802673c0.666885,-0.166824 2.015854,-0.449265 2.690674,-0.584c0.672516,-0.134262 1.345963,-0.247345 2.658661,-0.552002c1.286194,-0.298508 1.910538,-0.486908 2.53067,-0.669327c0.616226,-0.181274 1.831985,-0.567001 2.434662,-0.765335c1.202332,-0.395676 1.800156,-0.602112 3.001343,-0.994171c0.599411,-0.195633 1.198669,-0.388031 1.800003,-0.568497c1.197418,-0.35936 2.398758,-0.674545 3,-0.814667c1.197617,-0.279099 1.800095,-0.395523 2.399994,-0.521332c1.200195,-0.251709 1.803055,-0.371338 3,-0.666672c0.601776,-0.148483 1.805161,-0.488297 2.41066,-0.669327c0.61084,-0.182617 1.225067,-0.375565 2.47467,-0.765335c1.281052,-0.399582 1.935577,-0.600494 2.600006,-0.797333c0.671234,-0.198853 1.348099,-0.400192 2.725327,-0.765335c0.692581,-0.183624 1.387619,-0.364365 2.789337,-0.669327c0.698715,-0.152008 1.400681,-0.284973 2.104507,-0.4095c0.705521,-0.124817 1.41539,-0.24263 2.852661,-0.452667c0.727707,-0.106354 2.209488,-0.304672 2.964493,-0.404678c0.764984,-0.101334 1.540192,-0.203033 2.325012,-0.310486c0.795181,-0.108856 1.600388,-0.222687 2.414993,-0.346512c0.825409,-0.125473 2.505493,-0.406845 3.359665,-0.563995c0.863174,-0.158813 1.731125,-0.32814 2.604004,-0.4935c0.874451,-0.165649 1.748474,-0.329041 2.621994,-0.475494c0.867844,-0.145508 2.585175,-0.384537 3.431168,-0.46701c0.835434,-0.081436 1.664124,-0.136826 2.485504,-0.181488c0.814972,-0.044312 1.625366,-0.075439 2.431503,-0.109512c0.803192,-0.033936 2.404816,-0.114059 3.204666,-0.173325c0.801498,-0.059387 1.604599,-0.132919 2.410492,-0.214508c0.810455,-0.082062 1.625458,-0.173584 2.446503,-0.268494c0.828293,-0.095749 2.509445,-0.296021 3.364334,-0.395508c0.86377,-0.100525 1.735641,-0.200317 2.614502,-0.299988c0.884796,-0.100342 1.774643,-0.200165 2.668503,-0.300003c0.89682,-0.100159 2.69545,-0.300385 3.595169,-0.399841c0.897614,-0.099213 1.791153,-0.197235 2.678986,-0.28949c0.879517,-0.0914 1.749084,-0.177551 2.60701,-0.25351c0.843414,-0.074661 2.480774,-0.19458 3.2715,-0.235657c0.7733,-0.040176 1.532928,-0.067261 2.281494,-0.08551c0.740448,-0.018051 1.475983,-0.026825 2.209503,-0.031494c0.734482,-0.004669 2.218491,-0.004501 2.973495,-0.004501c0.765015,0 1.540009,0 2.325012,0c0.794983,0 1.600006,0 2.414978,0c0.825012,0 2.505005,-0.000488 3.359528,0.000168c0.861481,0.000671 1.72702,0.002319 2.593475,0.010498c0.864532,0.008163 1.724091,0.021652 2.5755,0.046494c0.840637,0.024536 2.476837,0.104797 3.266846,0.164169c0.772705,0.05806 1.528809,0.129745 2.270996,0.20401c0.730499,0.073105 1.4505,0.151016 2.162994,0.222c0.706177,0.070343 2.108734,0.190475 2.809021,0.231155c0.699738,0.040649 1.399902,0.067337 2.099976,0.08551c0.699951,0.018158 1.400024,0.026825 2.100006,0.031494c0.700012,0.004669 2.100006,0.004501 2.800018,0.004501c0.699982,0 1.399994,0 2.099976,0c0.700012,0 1.400024,0 2.100006,0c0.700012,0 2.100006,-0.000504 2.800018,0.000168c0.699982,0.000656 1.400024,0.002335 2.099976,0.010498c0.700043,0.008163 1.400146,0.021835 2.100006,0.046494c0.700134,0.024673 2.800598,0.161392 3.502686,0.226837c0.706604,0.065872 1.418579,0.141846 2.138977,0.216003c0.730286,0.07518 1.472168,0.153244 2.229004,0.216003c1.561707,0.129517 2.372192,0.165955 3.200012,0.199997c0.843536,0.034683 1.701324,0.058807 2.570984,0.084c0.879669,0.025482 1.767517,0.047791 2.661011,0.084c1.79776,0.072845 2.697388,0.134277 3.596008,0.199997c0.897034,0.065613 1.79068,0.141129 2.680481,0.216003c0.884888,0.074448 1.763336,0.151886 2.635498,0.216003c1.718048,0.126297 2.56369,0.166351 3.400024,0.198669c0.828003,0.031998 1.649292,0.051804 2.464478,0.064499c0.81015,0.012619 1.616333,0.017578 2.419525,0.019501c1.601318,0.00383 2.401154,0.001328 3.199982,0.001328c0.796844,0 1.590668,0 2.380493,0c0.784851,0 1.56369,0 2.33551,0c1.518677,0 2.264008,0.000854 3.001343,-0.001328c0.731323,-0.002167 1.458679,-0.006836 2.18399,-0.019501c0.725403,-0.012665 1.452911,-0.030365 2.18399,-0.064499c1.483276,-0.069244 2.237732,-0.133377 3.001343,-0.198669c0.772064,-0.06601 1.550629,-0.141571 2.33551,-0.216003c0.789795,-0.07489 1.583221,-0.152405 2.380493,-0.216003c1.5979,-0.127472 2.398529,-0.165665 3.198669,-0.199997c0.799866,-0.034332 1.600006,-0.05867 2.399994,-0.084c0.799988,-0.02533 1.60022,-0.047684 2.399994,-0.084c1.600494,-0.072678 2.400482,-0.133621 3.201324,-0.20134c0.803528,-0.067947 1.609589,-0.148453 2.419525,-0.235489c0.815399,-0.087616 1.636383,-0.183167 2.464478,-0.280502c1.681458,-0.197647 2.535858,-0.29982 3.398682,-0.397339c0.8685,-0.09816 1.741089,-0.193146 2.615997,-0.280502c0.87442,-0.087311 1.746887,-0.16954 2.615997,-0.235489c1.716492,-0.130264 2.562378,-0.166855 3.398682,-0.20134c0.828033,-0.034149 1.649323,-0.058594 2.464478,-0.084c0.810181,-0.025253 1.616547,-0.047607 2.419525,-0.084c1.601807,-0.072586 2.401642,-0.13353 3.201324,-0.20134c0.800323,-0.067856 1.600281,-0.148178 2.399994,-0.235489c0.800262,-0.087357 1.600159,-0.182434 2.399994,-0.280502c1.600311,-0.196213 2.399994,-0.29866 3.200012,-0.398666c0.799988,-0.099991 1.600006,-0.199997 2.399994,-0.300003c0.799988,-0.100006 1.600006,-0.199997 2.399994,-0.300003c1.600006,-0.200012 2.39975,-0.300705 3.198669,-0.398666c0.796753,-0.097702 1.590424,-0.192871 2.380493,-0.280502c0.784607,-0.087021 1.563171,-0.169388 2.33551,-0.235489c1.517761,-0.129913 2.26416,-0.167801 3.003998,-0.200012c0.737518,-0.03212 1.477264,-0.051895 2.222992,-0.064499c0.755646,-0.012772 1.52533,-0.017593 2.313019,-0.019501c1.645325,-0.003983 2.509979,-0.001328 3.402649,-0.001328c0.918671,0 1.861328,0 2.826019,0c0.98465,0 1.987335,0 3.005981,0c2.077332,0 3.131836,0 4.193329,0c1.065521,0 2.132019,0 3.196503,0c1.059509,0 2.111023,0 3.15152,0c2.03598,0 3.026154,0.00087 3.997314,-0.001328c0.953186,-0.002151 1.889374,-0.006714 2.809509,-0.019501c0.905212,-0.012589 1.79657,-0.029678 2.6745,-0.064499c1.721924,-0.068298 2.566833,-0.131866 3.402679,-0.200012c0.828522,-0.067551 1.649628,-0.147919 2.464478,-0.235489c0.810486,-0.087112 1.616516,-0.182281 2.419525,-0.280502c1.601654,-0.195908 2.401062,-0.299377 3.199982,-0.397339c0.796753,-0.097702 1.590424,-0.192871 2.380493,-0.280502c0.784607,-0.087021 1.563171,-0.169388 2.33551,-0.235489c1.517761,-0.129913 2.263641,-0.167679 3,-0.200012c0.728027,-0.031967 1.44928,-0.051804 2.16449,-0.064499c0.710144,-0.012604 1.416351,-0.017578 2.119507,-0.019501c1.401337,-0.00383 2.101013,-0.001328 2.798676,-0.001328c0.693665,0 1.381317,0 2.061005,0c0.669647,0 1.327332,0 1.970978,0c1.237335,0 1.827515,0 2.398682,0c0.553162,0 1.089325,0 1.609497,0c0.505157,0 0.996338,0 1.474487,0c0.921356,0 1.366516,0 1.802673,0c0.428162,0 0.849335,0 1.674683,0c0.809326,0 2.010834,0 2.815155,0c0.816345,0 1.652679,0 2.962158,0c0.454834,0 1.390503,0 2.354187,0c0.489838,0 1.480499,-0.001999 2.479156,0c1,0.001999 2.000854,0.020096 2.5,0.0625c1.002319,0.085144 1.522247,0.119141 3,0.602005c0.508942,0.166306 1.504242,0.63533 2,0.897995c1.008911,0.534531 1.500763,0.840225 2.5,1.4375c0.99942,0.597382 1.494232,0.897644 2.479156,1.479172c0.484222,0.285889 0.957611,0.574371 2.354156,1.354156c0.878967,0.490784 1.318237,0.710922 2.166687,1.1875c0.856995,0.481369 1.300659,0.723557 2.621338,1.622177c0.468689,0.318924 0.938599,0.661957 1.878662,1.398666c0.478394,0.374939 0.960571,0.75209 2.333313,1.958328c0.449402,0.394882 0.88446,0.793961 1.720032,1.58934c0.407166,0.387558 1.185669,1.152786 1.559998,1.52533c1.0672,1.062164 1.409607,1.394669 2.050659,2.070663c0.633606,0.668198 1.252075,1.370651 1.835999,2.147995c0.618713,0.823608 0.907166,1.276428 1.5,2.208344c0.30365,0.477341 0.601868,0.966187 1.5,2.458328c0.300598,0.499451 0.899109,1.496048 1.200012,1.989334c0.299072,0.490372 0.895996,1.456055 1.200012,1.925339c0.888428,1.371368 1.195435,1.803192 1.799988,2.649323c0.297791,0.416763 0.899048,1.232178 1.799988,2.436005c0.2995,0.400223 0.897644,1.198441 1.189331,1.600006c0.578857,0.796921 1.138916,1.591339 1.643982,2.399994c0.496155,0.794403 0.944214,1.619812 1.166687,2.041672c0.458557,0.869568 1.166504,2.291763 1.421509,2.801163c0.263672,0.526611 0.813538,1.619003 1.099304,2.177994c0.288879,0.565018 0.571838,1.13736 1.479187,2.812515c0.296509,0.547424 0.592712,1.088501 1.221313,2.141327c0.31543,0.52832 0.6427,1.055939 0.993042,1.578003c1.094299,1.630798 1.525513,2.170593 1.953674,2.72998c0.434509,0.567688 0.881409,1.132996 1.33197,1.696503c0.44812,0.560486 0.899719,1.106964 2.166687,2.6875c0.39209,0.489105 0.763,0.96344 1.471985,1.861359c0.340027,0.430695 1.004761,1.266968 1.343994,1.669312c1.024231,1.214722 1.398071,1.603149 2.132019,2.391998c0.363525,0.390717 1.080139,1.149292 1.415955,1.52533c0.939697,1.052368 1.466064,1.727814 1.948547,2.385345c0.475464,0.64798 1.18689,1.667084 1.704834,2.385345c0.268311,0.37207 0.827026,1.127869 1.363342,1.919159c0.802673,1.184326 1.034729,1.593353 1.5,2.390991c0.455994,0.781708 0.896179,1.553162 1.136658,1.919159c0.710815,1.081726 1.263611,1.732513 1.815979,2.364502c0.54248,0.620636 1.343384,1.512909 1.814636,2.12085c0.45929,0.592438 0.876831,1.198517 1.685364,2.399994c0.402405,0.597931 0.78833,1.206573 1.236023,1.764008c0.887695,1.105255 1.446411,1.552307 1.978638,2.010651c0.523743,0.450989 1.476746,1.375397 1.817322,1.909332c0.505859,0.793091 0.884888,1.67337 1.510864,2.394684c0.433594,0.499695 1.256042,1.131439 1.774475,1.605316c0.782227,0.714966 1.449829,1.53894 1.872009,2.090668c0.412476,0.539001 1.219543,1.534363 1.599976,2.010681c0.569031,0.712402 1.065186,1.539185 1.462524,2.524506c0.284302,0.705017 0.496033,1.474213 1.081482,2.523499c0.394287,0.706757 0.924377,1.335999 1.416016,1.992004c0.489685,0.653442 1.131287,1.686005 1.440857,2.431824c0.313049,0.75415 0.553223,1.548981 0.692505,1.944153c0.424377,1.204041 0.769958,2.005188 1.138123,2.819519c0.379028,0.83844 0.589355,1.260559 1.179199,2.600494c0.203064,0.461334 0.599243,1.404297 1,2.353333c0.199646,0.472809 0.797913,1.859619 1,2.303986c0.395874,0.870544 0.800781,1.720978 1,2.146667c0.40155,0.857941 1.003357,2.194672 1.198669,2.660004c0.397827,0.947693 0.590942,1.431732 0.944153,2.419159c0.177063,0.494995 0.64325,1.993683 0.90448,3c0.131165,0.505249 0.374878,1.532288 0.505371,2.052673c0.404297,1.611969 0.565125,2.165405 0.732666,2.72818c0.343201,1.152924 0.534302,1.73587 0.725342,2.325317c0.192627,0.594238 0.788757,2.389526 0.989502,2.989166c0.200562,0.59903 0.607422,1.790619 0.820618,2.379333c0.212158,0.585938 0.40332,1.177887 1.145874,2.854187c0.243713,0.550201 0.515564,1.082855 1.047974,2.141327c0.264282,0.525452 0.551758,1.038177 1.015991,2.109344c0.464111,1.070892 0.805725,2.19809 0.955017,2.768646c0.149353,0.570862 0.395508,1.721527 0.50531,2.294678c0.108887,0.568207 0.406433,2.231689 0.510376,2.767334c0.203857,1.050385 0.308838,1.567017 0.555786,2.580841c0.122864,0.504456 0.561157,2.005646 0.726868,2.505829c0.335144,1.011414 0.523438,1.517029 0.863342,2.555817c0.172424,0.526947 0.636047,2.163361 0.767334,2.729492c0.133118,0.573883 0.36731,1.754517 0.47467,2.360016c0.108948,0.614502 0.411804,2.519806 0.510498,3.174835c0.099976,0.663635 0.197998,1.335327 0.28949,2.014496c0.092224,0.68454 0.259766,2.067902 0.325317,2.76532c0.131287,1.397552 0.167847,2.098511 0.200012,2.798676c0.032166,0.699829 0.055786,1.399902 0.074646,2.800018c0.009399,0.699951 0.01001,1.399994 0.010681,2.799988c0.000366,0.700165 0,1.401337 0,2.104492c0,1.416351 0,2.1315 0,2.852661c0,0.72818 -0.001038,2.209503 0.000305,2.96402c0.001343,0.761505 0.0047,1.527069 0.021057,2.293488c0.016357,0.764587 0.043274,1.524475 0.092957,2.275513c0.049011,0.740997 0.320374,2.868591 0.455017,3.540497c0.132507,0.661133 0.288452,1.308868 0.451477,1.948486c0.323914,1.270844 0.511169,1.899994 0.8125,3.1875c0.152771,0.652802 0.286316,1.315308 0.541382,2.64801c0.127136,0.664154 0.247681,1.324585 0.377991,1.975494c0.128357,0.641083 0.562317,2.468384 0.732666,3.036499c0.165527,0.551941 0.52771,1.593079 0.725342,2.080017c0.375916,0.926086 0.978699,2.155945 1.384827,2.874481c0.374084,0.661835 0.765381,1.241913 1.382996,2.297333c0.397217,0.678802 0.820435,1.52002 1.221497,2.321503c0.400269,0.799866 0.814514,1.593018 1.189331,2.389343c0.338562,0.719269 0.558044,1.726685 0.83197,2.531982c0.297424,0.87439 0.567566,1.839691 0.945374,2.67868c0.310242,0.688934 0.745667,1.487183 0.858643,2.246674c0.136963,0.920654 0.344543,1.706177 0.549316,2.563995c0.282593,1.183868 0.345276,1.790314 0.425354,2.710175c0.055359,0.636078 0.216187,2.001617 0.352661,2.736328c0.142029,0.764679 0.326416,1.542816 0.480652,2.742828c0.102539,0.797546 0.138672,1.599792 0.156006,2.399994c0.017334,0.799896 0.004761,1.999908 0.015198,2.795502c0.010254,0.783752 0.013123,1.552032 0.16217,2.637848c0.093872,0.683868 0.328125,1.633972 0.634644,2.47998c0.366577,1.011688 0.787659,1.608612 1.077148,2.665161c0.191956,0.700684 -0.276672,1.724091 0.157532,2.58551c0.352295,0.698883 1.247009,1.107239 1.842651,1.657349c0.636963,0.588257 1.14978,1.154633 1.695984,1.803986c0.534607,0.63559 0.925354,1.47467 1.372681,2.270172l0.405334,0.651825l0.647339,0.552673" />
  <path d="m1.5,477.399994c0.021333,-1.825348 0.288207,-2.882355 0.872,-3.374664c0.502015,-0.42334 1.531599,-1.108032 2.148834,-1.646179c0.437948,-0.381836 1.399421,-1.181366 1.940833,-1.588165c0.578498,-0.434662 1.216805,-0.885132 2.205,-1.724335c0.730048,-0.619965 1.086531,-0.971405 1.833333,-1.666656c0.374933,-0.34906 1.097932,-1.053192 2.178667,-1.957336c0.657923,-0.550415 1.324237,-1.03894 1.974,-1.548004c0.332831,-0.260773 1.374553,-1.131439 2.104499,-1.80899c0.381853,-0.354431 1.154669,-1.105804 1.547335,-1.494659c1.199074,-1.187408 1.594803,-1.591858 1.996832,-1.990997c0.807602,-0.801758 1.214811,-1.204956 2.055834,-2c0.425808,-0.402527 1.305424,-1.204712 2.228167,-2.001343c0.469772,-0.405579 0.951166,-0.808746 1.435501,-1.219513c0.984684,-0.835144 1.487095,-1.25708 2.479166,-2.145813c0.503374,-0.450928 1.001997,-0.915253 2,-1.858673c0.501005,-0.473602 0.998999,-0.950409 1.5,-1.421997c0.499004,-0.469727 1.493931,-1.392944 2.501335,-2.268677c0.500175,-0.434784 1.008312,-0.859894 1.519497,-1.283997c0.514145,-0.426544 1.565357,-1.282959 2.645836,-2.166656c0.555271,-0.454132 1.11824,-0.917877 1.690498,-1.386017c0.578407,-0.473175 1.162395,-0.948914 1.753502,-1.421997c0.59256,-0.474243 1.183994,-0.950104 2.389332,-1.858673c0.596565,-0.449677 1.795708,-1.313721 2.389332,-1.741333c0.590038,-0.425049 1.176876,-0.847687 1.753502,-1.277985c0.574047,-0.428375 1.69434,-1.309418 2.235668,-1.768677c0.540035,-0.45816 1.586655,-1.40274 2.100666,-1.878662c0.511318,-0.473419 1.014404,-0.949402 1.519497,-1.415985c0.997543,-0.921478 1.999599,-1.80072 2.501335,-2.226837c0.498287,-0.423187 0.998642,-0.837982 1.5,-1.246521c0.997307,-0.812653 2,-1.610657 2.5,-2.010651c0.5,-0.399994 1.5,-1.200012 2,-1.600006c0.5,-0.399994 0.999992,-0.799988 2.5,-2c0.5,-0.399994 0.999992,-0.799988 1.5,-1.200012c0.999985,-0.800018 1.500008,-1.199982 2,-1.599976c0.500008,-0.400024 2.000488,-1.599579 2.5,-2.001343c0.500496,-0.402557 1.00415,-0.804321 2,-1.634674c0.502106,-0.418671 1.006889,-0.841583 2,-1.730652c0.503525,-0.450775 1.500504,-1.385498 2,-1.858673c0.500504,-0.474152 0.999001,-0.950409 1.5,-1.421997c0.499008,-0.469727 1.998268,-1.832977 2.498665,-2.267334c0.495293,-0.429932 0.991013,-0.848938 1.965332,-1.674683c0.479004,-0.405975 0.961998,-0.7966 2.314667,-2.010651c0.441071,-0.395874 0.869141,-0.79953 1.721336,-1.600006c0.425568,-0.39975 0.841583,-0.812256 2.166664,-2c0.450935,-0.404205 0.915657,-0.801971 1.858665,-1.600006c0.473831,-0.401001 0.951607,-0.797333 1.422005,-1.199982c1.392754,-1.192169 1.832291,-1.598816 2.268669,-1.998688c0.860558,-0.788574 1.276802,-1.188599 2.136665,-1.944153c0.427788,-0.375885 1.305748,-1.101746 2.231331,-1.773163c0.464592,-0.337006 1.416786,-0.98288 1.890671,-1.309357c0.47345,-0.326202 1.863945,-1.334778 2.303833,-1.695984c0.875015,-0.718506 1.287476,-1.101837 2.110832,-1.853333c0.407143,-0.371613 0.792946,-0.760162 2.010666,-1.803833c0.789558,-0.676697 1.196823,-0.989594 2,-1.61084c0.398438,-0.308197 1.599518,-1.211304 2,-1.510498c0.799042,-0.596954 1.59774,-1.182526 2,-1.464172c0.79557,-0.557037 1.997475,-1.318817 2.400002,-1.550659c0.795097,-0.457947 1.598373,-0.877838 2.399994,-1.283997c0.798401,-0.40451 1.600342,-0.798035 2.389336,-1.201324c0.776321,-0.39679 1.533112,-0.786438 2.589333,-1.400024c0.673737,-0.391388 1.318253,-0.805054 1.973999,-1.199982c1.009315,-0.607849 1.730453,-1.001648 2.472672,-1.399994c0.748444,-0.401672 1.49913,-0.785248 2.553162,-1.400024c0.669846,-0.390686 1.302689,-0.796906 1.917007,-1.199982c0.907501,-0.595459 1.500763,-1.007843 2.425323,-1.600006c0.632919,-0.405396 1.640594,-1.009613 2.364502,-1.398682c0.745407,-0.400635 1.127487,-0.598267 1.919174,-0.944153c1.184128,-0.517365 1.992126,-0.782898 2.795502,-1.021179c0.796799,-0.236328 1.600586,-0.432312 2.799988,-0.736145c0.8004,-0.202759 1.605103,-0.404083 2.400009,-0.657013c1.208252,-0.38443 1.603607,-0.555176 2.395493,-0.895508c0.787552,-0.33844 1.540863,-0.709412 2.637833,-1.180664c0.676147,-0.290466 1.626511,-0.641815 2.205002,-0.862152c1.043106,-0.397308 1.729614,-0.720154 2.645676,-1.104492c0.994308,-0.417145 1.550598,-0.604065 2.420502,-0.900024c0.894073,-0.304169 1.784164,-0.618622 2.6595,-0.863983c1.061798,-0.297638 1.785385,-0.367126 2.461319,-0.461334c1.200684,-0.167328 1.733276,-0.339935 2.621338,-0.549347c0.637924,-0.150421 2.035294,-0.351837 2.768005,-0.389313c0.723495,-0.037018 1.416,-0.035339 2.617325,-0.036011c0.768005,-0.000427 1.536011,0 2.737335,0c0.692001,0 1.416,0 2.863998,0c0.682678,0 1.341339,0 2.319336,0c1.014008,0 1.736267,-0.045166 2.868164,0.0625c0.787659,0.074921 1.210983,0.113098 2.379333,0.601837c0.829803,0.347137 1.620926,0.876892 2.035843,1.131653c0.849869,0.52182 2.182068,1.289368 2.649323,1.518677c0.943954,0.463287 1.432968,0.670502 2.419174,1.080841c0.495575,0.206177 1.995865,0.804169 2.496826,1.005829c0.503372,0.202637 1.520477,0.617188 2.034668,0.834656c1.051346,0.444611 2.131577,0.928711 2.685165,1.185181c1.12886,0.52301 1.692581,0.795471 2.258011,1.057983c1.109177,0.514923 1.643387,0.771301 2.6875,1.1875c0.955582,0.38092 1.858795,0.670105 2.71199,0.912018c0.411163,0.116577 1.62204,0.418518 2.422668,0.62265c0.810074,0.206512 1.638489,0.422028 2.484009,0.684021c1.342514,0.415985 1.800171,0.598175 2.750656,0.940002c0.484924,0.174408 1.466202,0.528931 1.965332,0.690643c1.491898,0.483368 1.994965,0.608276 2.988007,0.848022c0.972443,0.234772 1.454498,0.326996 2.843994,0.635986c0.880646,0.195831 1.718353,0.397034 2.520004,0.563995c0.758514,0.157959 1.823975,0.330719 2.494003,0.378845c0.976578,0.070129 1.636658,0.053497 2.674164,0.057312c0.735687,0.002686 1.890671,0.015839 2.67984,0.085175c1.201721,0.105591 1.99884,0.266357 2.398666,0.339996c0.800354,0.1474 1.596069,0.322845 2.799667,0.453186c0.789322,0.08548 1.928284,0.114685 2.629654,0.120148c1.201309,0.009338 1.954147,-0.014282 2.653336,0.08667c1.01297,0.14624 1.854553,0.434875 2.479004,0.562012c1.35144,0.275177 2.090591,0.305481 2.838333,0.331818c0.74704,0.026337 1.833328,0.020844 2.842834,0.020844c0.636337,0 1.555878,-0.00882 2.755829,0.001343c0.590714,0.005005 1.45932,-0.021027 2.479675,0.220001c0.898346,0.212189 1.743896,0.690369 2.617157,0.77417c0.821594,0.078857 1.788513,0.004486 2.651825,0.004486c0.900024,0 1.819336,0 2.673523,0c0.979156,0 1.779144,-0.001801 2.579163,0c1,0.002258 1.811859,0.009857 2.803986,0.283997c0.667999,0.18457 1.446991,0.466858 2.460175,0.594849c0.795349,0.100464 1.660553,0.109741 2.535004,0.230988c1.274841,0.176727 2.036804,0.44223 2.728821,0.740845c0.657349,0.283661 1.23938,0.687195 2.470673,0.978668c0.865967,0.204987 1.716003,0.169312 2.716003,0.170654c0.66449,0.000885 1.685333,0 2.47467,0c1.044006,0 1.847321,-0.000336 2.697327,0.283997c0.771667,0.258148 1.676117,0.582336 2.47049,0.658844c0.85083,0.08194 2.042969,0.046844 2.938354,0.061646c0.583801,0.009644 1.433472,0.01889 2.419159,0.27951c0.891083,0.235596 1.881195,0.636353 2.685333,0.69516c0.997559,0.072937 1.823639,0.004669 2.514343,0.078003c1.134003,0.120422 1.79718,0.292938 2.5065,0.463684c0.732788,0.176361 2.157135,0.58078 2.821991,0.774658c0.635803,0.185394 1.549683,0.457672 2.457153,0.583008c0.895569,0.123688 1.800018,0.119232 2.700012,0.12149c0.895508,0.002228 1.764008,0 2.833344,0c0.713989,0 1.619324,0 2.588165,0c0.814484,0 1.682983,0.002228 2.578491,0c0.90451,-0.002258 1.837585,-0.018219 2.485321,-0.085327c1.039551,-0.107697 1.773438,-0.264587 2.535522,-0.435516c0.78537,-0.176178 1.978699,-0.481018 2.78183,-0.679169c0.818207,-0.201874 1.667938,-0.406342 2.567993,-0.599976c0.961243,-0.206787 1.997192,-0.400909 2.534668,-0.5c1.09433,-0.201782 1.644836,-0.295532 2.726654,-0.5c1.035492,-0.195709 1.999054,-0.398407 2.458191,-0.5c0.889679,-0.196869 1.756897,-0.404816 3.076477,-0.700012c0.454468,-0.101654 1.390167,-0.301544 2.354187,-0.5c0.489685,-0.1008 1.480469,-0.30011 2.479156,-0.5c0.999969,-0.200134 2,-0.399994 2.5,-0.5c1,-0.200012 1.499939,-0.300323 3.000153,-0.600006c0.50116,-0.100128 1.510223,-0.301544 2.535858,-0.5c0.520996,-0.1008 2.130524,-0.400665 2.685333,-0.5c0.562531,-0.100708 1.703979,-0.299988 2.278656,-0.399994c0.574677,-0.100006 1.716583,-0.296753 2.833344,-0.5c1.081909,-0.196899 1.609802,-0.298492 2.645813,-0.5c0.510315,-0.099274 1.519409,-0.300507 2.520844,-0.5c0.999908,-0.199188 1.999329,-0.393219 2.5,-0.479156c0.998688,-0.171417 1.496765,-0.268555 2.999664,-0.399353c0.989685,-0.086121 1.478821,-0.093231 2.428345,-0.110809c0.901245,-0.016693 2.128998,-0.010681 2.857666,-0.010681c0.672668,0 1.611664,0 2.812988,0c0.590668,0 1.444183,0 2.480011,0c0.921326,0 1.605316,0 2.608002,0c0.85498,0 1.799988,-0.00296 2.834991,0.000153c0.73999,0.002228 1.520874,0.004517 2.339996,0.057007c1.306885,0.08374 1.761536,0.153015 2.695496,0.300018c0.965607,0.151978 1.454163,0.250183 2.444183,0.444153c1.499634,0.293823 1.999756,0.394745 2.998657,0.609344c0.50058,0.107544 1.502106,0.338531 2,0.47467c1.506775,0.411987 2.001221,0.595093 3,0.940002c0.50061,0.172882 1.497833,0.528534 2,0.690643c1.493805,0.482269 2.499756,0.7323 3,0.858673c0.999542,0.252533 1.506531,0.355011 3,0.791992c0.502319,0.146973 1.500305,0.485138 2,0.658691c1.00061,0.347534 1.492737,0.544952 3,1.007996c0.497864,0.152954 1.504059,0.41568 2.010681,0.541321c1.024506,0.254059 1.550812,0.361542 3.155975,0.791992c0.556244,0.14917 1.686768,0.488068 2.258667,0.669342c0.57547,0.182404 1.722961,0.565796 2.29068,0.76532c1.119232,0.393341 2.198456,0.797913 2.726837,0.994171c1.035919,0.384766 1.544342,0.574707 2.052673,0.747345c1.498383,0.50885 2.502106,0.77597 3,0.899994c0.981628,0.244507 1.468536,0.346161 2.419159,0.555847c1.364075,0.300873 2.232727,0.501099 2.660004,0.601318c0.850739,0.199554 1.708496,0.403687 3.046661,0.700165c0.462402,0.102448 1.406067,0.302002 2.353333,0.535828c0.473724,0.116943 1.863464,0.517639 2.73999,0.848022c0.430603,0.162292 1.261292,0.523651 2.080841,0.863312c1.19989,0.497284 2.003326,0.772308 2.804504,1.027344c0.798859,0.254303 1.605347,0.494629 2.399994,0.791992c0.80838,0.30249 1.618317,0.666138 2.471985,1.007996c0.440826,0.176544 1.859161,0.666656 2.37085,0.804016c1.062683,0.285278 1.618713,0.395081 2.742493,0.646667c0.566589,0.126862 1.140442,0.227875 2.793182,0.695984c0.539093,0.152679 1.585693,0.503418 2.100647,0.67868c1.016785,0.3461 1.512085,0.540771 3.020844,0.978485c0.497681,0.144379 1.499237,0.388855 2,0.500671c0.998535,0.222961 2.5,0.520844 3,0.62085c1,0.199982 1.5,0.299988 2.5,0.5c0.5,0.100006 2.000397,0.398071 3.001343,0.601318c0.503326,0.102203 1.520294,0.316071 2.034668,0.434662c1.050964,0.24231 2.1315,0.527588 2.685669,0.685333c1.141815,0.325012 1.724274,0.50647 2.319977,0.67868c1.218567,0.352295 1.841187,0.531738 3.125,0.833344c0.652832,0.153351 1.316467,0.287231 2.658691,0.541321c0.674225,0.127625 1.349762,0.248352 2.021973,0.377991c0.669128,0.129028 1.989349,0.400848 3.266022,0.731354c0.626709,0.162231 1.240448,0.339752 1.845001,0.515991c1.180908,0.344238 1.751831,0.527466 2.875,0.833344c1.078369,0.293701 1.609711,0.413086 2.645813,0.666656c0.510284,0.124878 1.526947,0.359253 3.020844,0.821503c0.502625,0.155518 1.501129,0.511444 2,0.699341c1.002319,0.377533 1.500366,0.579559 2.999512,1.178986c0.496582,0.198547 1.468811,0.588745 1.937988,0.779327c0.891602,0.362213 2.066589,0.845032 2.707825,1.136841c0.818359,0.372406 1.542542,0.757111 2.276184,1.205505c0.822021,0.502411 1.389893,0.888092 1.979797,1.279816c1.19751,0.795197 1.781311,1.182281 2.326721,1.562683c0.945618,0.659485 1.575073,1.249207 2.43866,1.835999c0.644958,0.438232 1.431274,0.806732 2.234619,1.200012c0.831299,0.406982 1.763245,0.805603 2.551331,1.099976c0.545898,0.203918 1.37323,0.476196 2.362,0.900024c0.884033,0.378937 1.685364,0.799988 2.485352,1.199982c0.600037,0.300018 1.605469,0.793457 2.220825,1.12085c0.669128,0.355988 1.663757,0.962311 2.204529,1.304504c0.822815,0.52066 1.851624,1.156342 2.549316,1.549316c0.676331,0.38092 1.649109,0.943298 2.182495,1.282501c0.56604,0.359955 1.443298,0.945435 2.343018,1.542847c0.60376,0.400879 1.215698,0.807953 1.856995,1.199982c1.001953,0.612549 1.725586,1.004852 2.478821,1.399994c0.772034,0.405029 1.565247,0.800293 2.764038,1.400024c0.399902,0.200073 1.199951,0.599976 2,1c0.799988,0.399994 2.000488,0.999451 2.401306,1.201324c0.810059,0.407928 1.636108,0.831909 2.055847,1.055817c1.314087,0.700958 2.228149,1.226837 2.700012,1.495514c0.478821,0.272675 1.450684,0.827087 1.947327,1.094666c1.487305,0.801361 1.99231,1.038635 3,1.5c0.504517,0.230988 1.016541,0.452148 2.052673,0.905334c0.528259,0.231049 2.1651,0.967133 2.728149,1.232666c0.572693,0.270081 1.151917,0.548035 2.325317,1.125336c0.594543,0.292511 1.190796,0.590485 2.389343,1.189331c0.599915,0.299744 1.795044,0.896332 2.389343,1.189331c0.589417,0.290619 1.173096,0.578033 1.753479,0.853516c1.685913,0.800232 2.234924,1.038391 2.774536,1.273163c1.065796,0.463715 1.603027,0.684998 2.692505,1.136658c0.559204,0.231842 1.72345,0.71405 2.332947,0.968506c0.626526,0.261566 1.917297,0.796509 2.578003,1.057983c0.663391,0.262543 1.32782,0.519958 1.996521,0.751495c1.309998,0.453613 1.95752,0.640045 3.221008,0.959503c0.613342,0.15509 1.220703,0.285675 2.399963,0.558014c0.575378,0.132874 1.698853,0.405701 2.776367,0.73584c0.53009,0.162415 1.564209,0.516937 2.074646,0.690643c1.008667,0.343231 2.007446,0.670349 3.010681,0.940002c0.498474,0.133972 1.498962,0.369293 2.5,0.580841c0.499512,0.10556 1.999878,0.404175 2.498657,0.504517c0.990784,0.19931 1.481323,0.296204 2.444153,0.5c1.391663,0.294556 2.269714,0.49762 2.69104,0.599976c0.804749,0.195496 1.904541,0.469635 2.823303,0.800171c0.79126,0.284668 1.500244,0.641388 2.464172,1.221161c0.53656,0.322754 1.349792,0.859039 1.894653,1.194672c0.991028,0.610443 1.90094,1.037903 2.517334,1.650665c0.599854,0.596375 0.907715,1.39328 1.566711,2.197357c0.554199,0.676239 1.167358,1.140228 1.700134,2.178833c0.357239,0.696411 0.465759,1.281006 1.066528,2.290497c0.441101,0.741211 1.038635,1.361267 1.833313,2.166656c0.395996,0.401337 0.979187,0.979187 1.833313,1.833344c0.530701,0.530701 1.166687,1.166656 1.730713,1.766663l0.415161,0.899994l0.031494,0.889343l0.489319,0.610657" />
  <path d="m3.5,477.399994c1.833333,-0.166656 2.215232,-0.939117 3.1,-1c0.897876,-0.061798 1.444915,-0.450317 2.185334,-0.914673c0.778255,-0.488068 1.85012,0.065216 2.514667,-0.170654c0.930484,-0.330261 1.499451,-1.05661 2.2,-1.393829c0.952465,-0.458466 1.765291,-0.537994 2.652666,-0.873505c0.705824,-0.266846 1.721853,-0.615387 2.668835,-0.647491c0.699238,-0.023712 1.683256,-0.152222 2.478498,-0.425171c0.805075,-0.276306 1.798782,-0.541504 2.6,-0.57019c0.999376,-0.035767 1.813282,0.024139 2.6,-0.171143c0.81926,-0.203369 1.59363,-0.647766 2.4,-1.032013c0.79394,-0.378326 1.795841,-0.72168 2.6,-0.780487c0.997555,-0.072937 1.807587,0.07193 2.514668,-0.106171c1.055305,-0.265808 1.815514,-0.770264 2.736,-0.889343c0.741894,-0.095978 1.76619,-0.344025 2.399998,-0.600006c0.873802,-0.352905 1.858635,-0.365845 2.581333,-0.509338c0.977268,-0.194031 1.631214,-0.748901 2.425167,-1.215973c0.730618,-0.42981 1.52636,-0.838135 2.363667,-1.179169c0.65292,-0.26593 1.663166,-0.436829 2.479168,-0.520844c0.816002,-0.084015 1.83049,-0.245605 2.689335,-0.610657c0.827652,-0.351807 1.615257,-0.802795 2.26783,-1.089355c0.955685,-0.419678 1.759327,-0.720032 2.590168,-0.94281c1.021698,-0.273956 1.938694,-0.31665 2.551334,-0.441193c1.017117,-0.206757 1.798161,-0.626984 2.601334,-1.015808c0.796902,-0.385803 1.800377,-0.731506 2.610668,-0.885498c0.646805,-0.122925 1.613884,-0.451294 2.425331,-0.865356c0.576874,-0.294373 1.756531,-0.846191 2.362663,-0.97998c0.871948,-0.192444 1.728714,-0.196777 2.717339,-0.453339c0.924057,-0.239807 1.847977,-0.569977 2.645668,-0.66333c0.578438,-0.067688 1.528481,-0.112549 2.559494,-0.274017c0.729874,-0.114288 1.815613,-0.362915 2.509506,-0.494659c0.924156,-0.175446 1.952309,-0.256622 2.651993,-0.368011c1.009705,-0.160736 1.834267,-0.432404 2.421837,-0.563324c1.188377,-0.264771 2.088104,-0.297333 2.938332,-0.405334c1.041138,-0.132263 1.733223,-0.379852 2.409836,-0.651825c0.971024,-0.39032 1.787346,-0.709564 2.393997,-0.859497c1.307854,-0.323212 2.037956,-0.363037 2.789337,-0.399994c0.774147,-0.038086 1.565338,-0.032166 2.764,-0.036163c0.800003,-0.002655 1.601036,-0.002441 2.400002,-0.057007c1.202179,-0.082092 2.002251,-0.216675 2.799995,-0.378845c0.802437,-0.163116 1.599968,-0.365448 2.800171,-0.664001c0.804306,-0.200073 1.620132,-0.402222 2.457001,-0.600006c0.427895,-0.101135 1.763863,-0.402191 2.699997,-0.599976c0.4786,-0.101135 1.453346,-0.300781 2.444168,-0.5c0.998512,-0.200775 1.997429,-0.399536 2.494164,-0.5c0.983864,-0.199005 1.947723,-0.398193 2.419167,-0.5c1.36499,-0.294739 2.228722,-0.497681 3.064499,-0.700012c0.816887,-0.197754 1.219536,-0.299866 2.420837,-0.600006c0.800018,-0.19989 1.599998,-0.399994 2.400002,-0.600006c1.199997,-0.299988 1.999161,-0.498047 2.789337,-0.699982c0.775146,-0.19809 1.528473,-0.389038 2.589157,-0.700012c0.988541,-0.289825 1.611374,-0.498383 2.821503,-0.899994c0.600266,-0.199219 1.500015,-0.499969 2.100006,-0.700012c1.200012,-0.400085 1.806976,-0.586121 2.699997,-0.935974c0.60498,-0.237 1.801712,-0.845032 2.399994,-1.189362c0.601746,-0.346313 1.793579,-1.022064 2.398666,-1.289307c0.871735,-0.38501 1.451324,-0.562958 2.479996,-0.985352c0.701111,-0.287903 1.599136,-0.715912 2.606674,-1.100006c0.547424,-0.208679 1.419174,-0.5 2.314667,-0.799988c0.895493,-0.299988 1.767242,-0.591309 2.314667,-0.799988c1.007538,-0.384094 1.904343,-0.815216 2.852005,-1.200012c0.780991,-0.317108 1.356522,-0.472839 2.149323,-0.885345c1.03392,-0.537964 1.670975,-1.132324 2.136673,-1.461975c0.943665,-0.667969 1.770401,-1.022339 2.594666,-1.348175c0.78389,-0.309875 1.703125,-0.730652 2.34816,-0.947327c0.988358,-0.332001 1.864807,-0.346069 2.771179,-0.690521c0.812851,-0.308929 1.311371,-0.710968 2.149323,-1.098663c0.975906,-0.451538 1.890488,-0.511749 2.884003,-0.78949c0.613663,-0.17157 1.400284,-0.579285 2.400009,-1.078491c0.600159,-0.299683 1.609238,-0.782928 2.199997,-1.110687c0.813416,-0.451294 1.59259,-1.084015 2.220825,-1.589325c0.655579,-0.527283 1.388626,-1.004333 2.204498,-1.364014c0.81102,-0.357544 1.85791,-0.725403 2.538681,-1.03598c0.636063,-0.290192 1.631531,-0.812317 2.256821,-1.100006c1.135742,-0.522552 1.66481,-0.69223 2.458344,-1c0.754395,-0.292603 1.689423,-0.842834 2.488831,-1.299988c0.776962,-0.444305 1.56781,-0.656403 2.263992,-1.085358c0.850677,-0.52417 1.350403,-1.368317 2.101334,-1.947998c0.62294,-0.480865 1.442429,-0.701416 2.333344,-1.166656c0.706177,-0.368774 1.294327,-0.894806 2.102661,-1.485321c0.745132,-0.544342 1.301315,-0.895477 2.309174,-1.714508c0.473419,-0.384735 1.076965,-1.007416 1.921494,-1.633514c0.771194,-0.571716 1.403503,-0.855286 2.398666,-1.366669c0.768082,-0.394714 1.603409,-0.872498 2.190674,-1.399994c0.637589,-0.572693 1.212219,-1.284302 1.715164,-2.052673c0.454086,-0.693726 1.186279,-1.454346 1.695496,-1.847321c0.844864,-0.651978 1.365143,-1.342438 1.75267,-1.90451c0.555008,-0.804962 1.141739,-1.339996 1.677994,-2.195496c0.475037,-0.757843 0.503433,-1.620117 0.790833,-2.599823c0.235001,-0.801086 0.805389,-1.614746 1.278503,-2.321014c0.53096,-0.792603 0.789658,-1.488739 1.100006,-2.228485c0.387161,-0.922821 0.927353,-1.710754 1.399994,-2.417328c0.4366,-0.65271 0.8647,-1.450531 1.483994,-2.23468c0.499695,-0.632721 1.087006,-1.253021 1.630676,-2.282654c0.27829,-0.527039 0.55452,-1.374054 0.985504,-2.394501c0.292801,-0.693268 0.607025,-1.355194 1.385162,-2.321503c0.504395,-0.626373 0.924973,-0.994263 1.714493,-1.800171c0.593903,-0.606232 1.199387,-1.222076 1.778839,-2.221161c0.298721,-0.515045 0.589844,-1.384369 1.188004,-2.412018c0.290573,-0.499237 0.870255,-1.14032 1.349335,-1.850647c0.652069,-0.966858 0.828888,-1.555695 1.236664,-2.363342c0.530777,-1.051239 1.07283,-1.726166 1.457993,-2.141998c0.76886,-0.830109 1.420242,-1.38501 1.953339,-2.046661c0.719238,-0.89267 0.951996,-1.447998 1.335999,-2.264008c0.384003,-0.81601 0.975098,-1.824005 1.335999,-2.274658c0.553101,-0.690643 1.370529,-1.642029 1.764008,-2.182495c0.406815,-0.558777 0.802002,-1.145996 1.599823,-2.342682c0.396683,-0.595001 0.789368,-1.172974 1.314835,-2.014832c0.473267,-0.758209 0.965424,-1.696136 1.454666,-2.283997c0.531494,-0.638641 1.296631,-1.182861 2.02533,-1.801331c0.686859,-0.582947 1.213516,-1.192749 1.62001,-1.835999c0.578064,-0.914703 1.033813,-1.722534 1.406158,-2.264008c0.567429,-0.825165 1.165298,-1.590881 1.779175,-2.264008c0.586975,-0.643616 1.206635,-1.229462 1.800003,-1.840485c0.606857,-0.624908 1.410004,-1.554626 1.798676,-2.080841c0.401123,-0.543091 0.971222,-1.404846 1.434662,-2.314667c0.300476,-0.589905 0.629852,-1.49707 1.050659,-2.314667c0.402863,-0.782715 0.968384,-1.440002 1.463318,-2.138c0.668732,-0.943115 0.90741,-1.495087 1.242004,-2.321991c0.425934,-1.052643 0.695465,-1.782684 1.046661,-2.450684c0.502869,-0.956451 1.01712,-1.727051 1.364014,-2.274658c0.516632,-0.815613 1.006714,-1.563904 1.479156,-2.5c0.340149,-0.673981 0.721924,-1.683594 0.920837,-2.225342c0.301605,-0.821411 0.688263,-1.858398 1,-2.538666c0.38559,-0.8414 0.8172,-1.629303 1.200012,-2.471985c0.418976,-0.922272 0.698395,-1.717255 1,-2.538666c0.198914,-0.541748 0.605743,-1.538849 1,-2.450684c0.405914,-0.938782 0.710663,-1.727081 0.87915,-2.295502c0.259033,-0.873871 0.439148,-2.077606 0.495514,-2.668488c0.08136,-0.85321 0.212494,-1.901215 0.546173,-2.810669c0.254639,-0.694031 0.680237,-1.683594 0.87915,-2.225342c0.301605,-0.821411 0.697418,-1.854462 1,-2.549316c0.396606,-0.910828 0.804352,-1.909119 1,-2.461334c0.306854,-0.866119 0.600006,-1.764008 0.899994,-2.664001c0.200012,-0.600006 0.500031,-1.5 0.900024,-2.700012c0.199982,-0.600006 0.5,-1.5 0.799988,-2.399994c0.299988,-0.899994 0.499908,-1.500031 0.799988,-2.399994c0.300079,-0.900024 0.593658,-1.806702 0.835999,-2.399994c0.496185,-1.214691 0.84552,-1.801453 1.189362,-2.400024c0.518219,-0.902161 1.02417,-1.792664 1.289307,-2.399994c0.388489,-0.889893 0.580322,-1.500183 0.985504,-2.700165c0.204071,-0.604431 0.525543,-1.539886 0.785187,-2.18515c0.419617,-1.042816 0.763855,-1.771271 1.135498,-2.514679c0.375641,-0.751404 0.973785,-1.836517 1.37915,-2.515991c0.394806,-0.661774 0.807129,-1.305084 1.200012,-1.968018c0.610931,-1.030823 1.00351,-1.764587 1.37915,-2.515991c0.371643,-0.743408 0.859009,-1.83136 1.136841,-2.514679c0.263245,-0.647491 0.605377,-1.595795 1.050659,-2.485321c0.458832,-0.916565 0.849518,-1.503021 1.237854,-2.100006c0.58844,-0.904602 1.198212,-1.795425 1.574646,-2.399994c0.37085,-0.595596 0.877625,-1.4897 1.263672,-2.399994c0.25177,-0.593689 0.551788,-1.501373 0.85733,-2.400009c0.306458,-0.901382 0.493073,-1.519836 1.066498,-2.699997c0.296906,-0.611069 0.659851,-1.206055 1.237854,-2.100006c0.585938,-0.906235 0.995483,-1.5 1.395477,-2.099991c0.600006,-0.900009 1.204651,-1.796967 1.598694,-2.401337c0.395325,-0.606308 0.827423,-1.2052 1.434662,-2.565338c0.314117,-0.703583 0.536987,-1.456787 0.755981,-2.207993c0.215576,-0.739548 0.498108,-1.807892 0.715179,-2.46817c0.313232,-0.952698 0.548065,-1.572723 1.179504,-2.757172c0.324738,-0.609146 0.726898,-1.180801 1.349335,-2.399994c0.301849,-0.591232 0.513672,-1.219101 0.976501,-2.100006c0.484283,-0.921692 0.9534,-1.503876 1.440826,-2.099991c0.493866,-0.603973 1.050354,-1.156815 1.779999,-2.400009c0.34137,-0.58165 0.693817,-1.511398 1.135986,-2.399994c0.302673,-0.608231 0.849518,-1.503006 1.237854,-2.100006c0.58844,-0.904617 0.998505,-1.495804 1.574646,-2.379166c0.366455,-0.561859 0.994202,-1.602432 1.395508,-2.284836c0.373077,-0.634399 0.941498,-1.440369 1.450684,-2.035995c0.516754,-0.604477 1.181396,-1.382996 1.653809,-2.199997c0.340271,-0.588486 0.759583,-1.639542 1.278015,-2.342834c0.504303,-0.684113 1.269958,-1.095245 2.076172,-1.657166c0.670044,-0.467026 1.477997,-1.119125 1.881317,-1.800003c0.48996,-0.827148 0.69519,-1.625763 1.385345,-2.299835c0.578918,-0.56543 1.52002,-0.72966 2.399994,-0.92099c0.846313,-0.184006 1.593353,-0.917023 2.385345,-0.977844c0.937256,-0.071976 1.640198,0.116241 2.614655,-0.022156c1.009735,-0.143402 1.690948,-0.627609 2.700012,-0.857834c0.788879,-0.179993 1.413177,-0.1604 2.399994,-0.473999c0.8125,-0.258209 1.803467,-0.540298 2.600006,-0.672668c1.005249,-0.167053 1.788269,-0.510498 2.399994,-0.690674c0.984589,-0.290009 1.817932,-0.269669 2.798676,-0.567993c0.783234,-0.238251 1.761627,-0.525314 2.485321,-0.88533c0.842316,-0.419037 1.253021,-1.120529 2.315826,-1.587845c0.741791,-0.326172 1.614349,-0.449051 2.425507,-0.81749c0.840851,-0.381943 1.549286,-0.419998 2.617493,-0.425339c0.85733,-0.004288 1.64386,0.040863 2.59317,-0.010666c0.767822,-0.041687 1.751007,-0.364471 2.506836,-0.636673c0.895264,-0.322418 1.823822,-0.352661 2.657166,-0.352661c0.978485,0 1.798676,0.001862 2.635986,0c1.012177,-0.002258 1.687744,-0.219162 2.446686,-0.716003c0.614319,-0.402161 1.590546,-0.165466 2.433319,-0.369324c0.888031,-0.214813 1.681,-0.871964 2.584015,-0.914673c0.898987,-0.042526 1.670105,-0.020493 2.552673,-0.352661c0.706207,-0.265793 1.716614,-0.544312 2.651825,-0.65184c0.871521,-0.100204 1.486664,-0.518356 2.528839,-0.828827c0.773621,-0.230469 1.650665,-0.166672 2.513977,-0.166672c0.90451,0 1.986023,0 2.65802,0c0.743988,0 1.851654,0 2.685669,0c0.908997,0 1.80899,0 2.719666,0c0.910645,0 1.763977,0 2.705322,0c0.768005,0 1.709351,0 2.717346,0c0.755981,0 1.666656,0 2.577332,0c0.91098,0 1.630981,-0.003204 2.755981,0c0.790497,0.002258 1.646545,0.011765 2.23468,0.085327c1.204529,0.15065 2.082581,0.421494 2.64151,0.619171c1.044861,0.369537 2.017883,0.651657 2.62381,1.295502c0.666016,0.707703 1.223175,0.932678 2.158691,1.010666c1.016479,0.084732 1.604889,0.59465 2.479156,0.936661c0.828491,0.324097 1.536804,0.501297 2.382172,0.854004c0.991241,0.413559 1.541718,0.590424 2.360657,0.898666c1.035126,0.389618 1.719635,0.693863 2.551331,1.100006c0.80426,0.392746 1.583099,0.829269 2.601349,1.078827c0.789154,0.193405 1.818512,0.426361 2.408997,0.83551c0.686035,0.475357 1.141937,0.918182 2.033997,1.485489c0.657562,0.418167 1.389465,0.799377 2.165985,1.143005c1.177887,0.52124 1.989258,0.774445 2.780334,1.03183c0.774292,0.251923 1.541901,0.471008 2.589172,0.946671c0.675934,0.306992 1.29126,0.695786 2.220184,1.194672c0.892426,0.479279 1.798065,0.8423 2.365326,1.109329c1.084412,0.510483 1.787842,1.031799 2.256836,1.395493c0.748535,0.58046 1.614105,1.192612 2.289001,1.574677c0.703064,0.39801 1.434082,0.765121 2.523499,1.237823c0.67395,0.292435 1.612122,0.626831 2.147827,0.862167c1.06665,0.468567 1.765045,1.063675 2.340332,1.625839c0.696991,0.681091 1.254028,1.230682 2.077179,1.793335c0.743469,0.508194 1.603577,0.958237 2.226654,1.521332c0.724762,0.654999 1.220795,1.181595 1.721985,1.768494c0.659546,0.772293 1.130371,1.610367 1.536682,2.195511c0.570801,0.822037 1.132385,1.404343 1.717316,2c0.791382,0.805908 1.40329,1.37822 1.913361,2c0.634064,0.772919 0.895508,1.457565 1.651978,2.233322c0.595245,0.610413 1.403229,1.001343 1.949341,1.652008c0.569794,0.678879 1.032959,1.529587 1.541168,2.11467c0.535309,0.616272 1.336304,1.406631 1.947327,2c0.624908,0.606857 1.06543,1.019638 2.079498,1.799988c0.533447,0.410492 1.109344,0.775864 2.149353,1.600006c0.489014,0.387527 1.129608,0.974442 1.679993,1.514664c0.868652,0.8526 1.380951,1.359268 2.139343,2.142502c0.529236,0.546555 1.183716,1.340729 1.599152,1.942841c0.412537,0.597916 1.064362,1.419876 1.762512,2.004501c0.515106,0.431351 1.118011,0.824509 2.285492,1.816833c0.608185,0.516953 1.182587,1.075317 1.743011,1.625992c0.795135,0.781296 1.290497,1.250336 1.915497,1.952667c0.392914,0.441513 1.037201,1.413513 1.416321,2.235992c0.262451,0.569382 0.782806,1.768951 1.109344,2.364014c0.332092,0.605164 0.895111,1.483536 1.349335,2.399994c0.440918,0.889603 0.658386,1.516693 0.862152,2.157166c0.431427,1.355942 0.599884,2.098206 0.825348,2.842834c0.227173,0.750183 0.629517,1.841156 0.963165,2.514679c0.325623,0.657349 0.725525,1.256317 1.349335,2.485321c0.299652,0.590332 0.644135,1.489807 0.919312,2.042847c0.526428,1.057922 1.092712,1.716858 1.594666,2.409821c0.506683,0.699493 0.901794,1.503693 1.278015,2.358002c0.259888,0.590118 0.678772,1.499512 1.210663,2.389343c0.362915,0.607147 0.768463,1.197906 1.363831,2.099976c0.592651,0.897949 0.983795,1.488953 1.31485,2.100006c0.638519,1.178589 0.84848,1.789673 1.180817,2.642853c0.403625,1.036224 0.696716,1.741577 1.061676,2.409821c0.537384,0.983948 0.906158,1.498047 1.41748,2.358002c0.348663,0.586365 0.812469,1.485657 1.200012,2.389343c0.256287,0.597595 0.779846,1.80661 1.110657,2.399994c0.338409,0.607025 0.91806,1.500732 1.514679,2.399994c0.399292,0.601807 0.805298,1.207275 1.200012,1.835999c0.405457,0.645905 1.005676,1.682434 1.399963,2.421173c0.405945,0.760559 0.800903,1.546906 1.400024,2.742828c0.400635,0.799683 0.599976,1.200012 1,2c0.400024,0.799988 0.99884,2.00061 1.200195,2.399841c0.401917,0.796844 0.798767,1.592224 1.256958,2.342987c0.677795,1.110535 1.224121,1.775421 1.495483,2.104492c0.541931,0.657196 1.130066,1.278931 1.880676,2.319336c0.507141,0.702972 0.944153,1.478424 1.166687,1.875c0.458374,0.816803 1.164917,2.126007 1.421326,2.579681c0.527649,0.933441 0.804626,1.403656 1.353333,2.353333c0.27301,0.472473 1.060608,1.857605 1.304016,2.303986c0.472534,0.866608 0.920593,1.721741 1.146667,2.146667c0.457214,0.859436 0.937378,1.743591 1.460022,2.660004c0.269775,0.472992 0.834656,1.436005 1.125305,1.925354c0.588989,0.991638 1.188904,1.989594 1.489319,2.489166c0.599121,0.996216 0.898254,1.49057 1.200012,1.979309c0.596436,0.965881 0.886169,1.444733 1.799988,2.799164c0.295532,0.438049 0.8927,1.280579 1.5,2.075012c0.296448,0.387756 1.197693,1.482056 1.798706,2.164001c0.295654,0.33551 0.905884,0.983521 1.444153,1.692505c0.830688,1.094086 1.048523,1.526062 1.504517,2.395508c0.465698,0.887939 0.650635,1.358765 1.136658,2.226654c0.698792,1.247803 0.990051,1.608826 1.552002,2.317322c0.563477,0.710388 1.181641,1.406158 1.763977,2.184021c0.616272,0.823151 0.904541,1.270752 1.479187,2.1875c0.289368,0.461639 0.84198,1.392822 1.354126,2.3125c0.488892,0.877869 0.709778,1.311798 1.166687,2.145813c0.448486,0.818634 1.162354,2.023621 1.421326,2.420685c0.522644,0.801361 1.077698,1.579987 1.353333,1.964172c0.53949,0.751984 1.312622,1.808838 1.768188,2.487823c0.445007,0.663269 0.874817,1.346344 1.457153,2.481506c0.208008,0.405487 0.60321,1.275055 1,2.1875c0.20166,0.463776 0.59314,1.399506 1,2.3125c0.394714,0.885651 0.80481,1.744293 1.236023,2.59198c0.21814,0.428864 0.928467,1.742584 1.185303,2.195831c0.526794,0.929596 0.800781,1.395447 1.353333,2.317505c0.271118,0.452454 1.05542,1.730072 1.539978,2.490662c0.44635,0.700592 0.873779,1.349945 1.284058,1.968018c0.599792,0.903534 1.012451,1.492981 1.565308,2.402649c0.360962,0.593872 0.835022,1.491486 1.200012,2.400024c0.238892,0.594696 0.634216,1.800598 0.835999,2.398651c0.297363,0.881378 0.594849,1.718079 0.998657,2.717346c0.276978,0.685425 0.56311,1.359619 0.717346,2.366669c0.121277,0.791656 0.147705,2.03598 0.519958,2.645325c0.530884,0.868988 1.234619,1.271301 1.480042,2.157318c0.248108,0.895569 0.25,1.738159 0.604797,2.493835c0.41626,0.886566 1.126892,1.573425 1.453857,2.431519c0.335938,0.881622 0.598755,1.563995 0.903992,2.567993c0.230774,0.759003 0.441223,1.693939 0.825867,2.368652c0.452942,0.794495 1.041504,1.376007 1.494141,2.136688c0.49646,0.83432 0.620422,1.811005 1.022644,2.615997c0.328918,0.658264 0.714783,1.442108 1.064026,2.385315c0.276062,0.745483 0.714661,1.514648 1.114685,2.314667c0.400024,0.800018 0.773865,1.612915 1.199951,2.364014c0.471619,0.83139 1.043091,1.432831 1.600037,2.32132c0.325989,0.520081 0.809692,1.509949 1.200012,2.325348c0.307678,0.642853 0.691833,1.613922 1.01062,2.414673c0.219604,0.551636 0.728516,1.627686 1.242004,2.317505c0.496155,0.666534 1.198059,1.445557 1.59021,2.052643c0.47406,0.733948 1.078674,1.635529 1.457153,2.157166c0.63739,0.87854 0.989197,1.657379 1.40033,2.44751c0.430115,0.82663 0.850037,1.501373 1.442322,2.221161c0.447693,0.544006 0.975586,1.062653 1.689331,1.894684c0.641724,0.748108 0.995667,1.507477 1.565369,2.112c0.696655,0.739258 1.4953,1.286469 1.902649,1.923828c0.491211,0.768524 1.09967,1.447144 1.700012,2.048157c0.699585,0.700378 1.256592,1.347198 1.899963,1.895508c0.753357,0.64209 1.384033,1.10144 2.05719,1.651825c0.703369,0.575104 1.374451,0.793854 1.94281,1.705353c0.424133,0.680176 0.789612,1.596619 1.5,2.060669c0.718872,0.469574 1.608826,0.713501 2.299988,1.386658c0.60791,0.592041 1.18927,1.210876 1.900024,1.899994c0.591187,0.573212 1.382019,0.983337 2,1.5c0.639221,0.534393 1.527222,0.713776 2.174683,1.146667c0.872314,0.583221 1.137268,1.502502 1.925476,2.110504c0.568909,0.438873 1.574524,0.559052 2.247192,0.947327c0.92926,0.536377 1.796082,0.882233 2.36731,1.379517c0.608521,0.529785 0.958618,1.378571 1.674683,1.890656c0.711182,0.508606 1.0495,1.267548 1.777344,1.858673c0.696655,0.565826 1.393677,0.820282 2.133301,1.462158c0.666687,0.578613 1.533325,0.871155 1.984009,1.620483l0.66333,0.436676l0.573486,0.626495" />
  <path d="m2.5,472.399994c1.052667,-1.757172 1.348938,-2.661011 1.610667,-3.210663c0.474682,-0.996887 0.799994,-1.610657 1.1465,-2.30368c0.564158,-1.128326 0.8955,-1.790985 1.242833,-2.485657c0.347333,-0.694672 0.833339,-1.666656 1.242833,-2.485657c0.346505,-0.693024 0.850784,-1.717896 1.167833,-2.325012c0.339527,-0.650177 0.908057,-1.612305 1.414667,-2.414673c0.347547,-0.550446 1.025353,-1.598328 1.4175,-2.321991c0.362765,-0.669434 0.757656,-1.619141 1.061666,-2.409821c0.216681,-0.563568 0.548571,-1.460571 1.017,-2.342682c0.48194,-0.907562 0.873841,-1.475372 1.279834,-2.014832c0.770201,-1.023407 1.210409,-1.449768 1.798666,-2.138c0.816372,-0.955109 1.215698,-1.496124 1.579166,-2.088989c0.56772,-0.925995 1.009047,-1.976227 1.268167,-2.710999c0.262377,-0.743988 0.466629,-1.510254 0.919333,-2.580688c0.293917,-0.694977 0.669971,-1.351624 1.044001,-2.027985c0.391335,-0.707642 0.991739,-1.880463 1.190666,-2.308014c0.414005,-0.889832 0.82729,-1.81955 1.055834,-2.282501c0.687477,-1.392578 0.955942,-1.831909 1.495501,-2.695496c0.268597,-0.429901 0.835958,-1.269348 1.363333,-2.136658c0.531544,-0.874176 1.003704,-1.797607 1.226833,-2.268677c0.446465,-0.942596 0.64394,-1.423126 1.055834,-2.363312c0.597624,-1.364136 0.796606,-1.800903 1.201332,-2.64801c0.395395,-0.827576 0.5987,-1.232147 1.200001,-2.436005c0.400467,-0.801758 0.809155,-1.61142 1.020832,-2.020844c0.433243,-0.837952 1.144043,-2.14682 1.400501,-2.600494c0.527657,-0.933411 0.80463,-1.403625 1.353333,-2.353333c0.27298,-0.472473 1.061428,-1.857178 1.303833,-2.303986c0.469704,-0.865784 0.903675,-1.719879 1.110836,-2.146667c0.415379,-0.855774 1.011444,-2.195892 1.211998,-2.660004c0.410587,-0.950134 0.613121,-1.438385 1.055832,-2.419159c0.224937,-0.498322 0.961426,-1.996826 1.226833,-2.494171c0.265926,-0.498322 0.815472,-1.480804 1.090668,-1.965332c0.540295,-0.951263 1.06226,-1.867401 1.541336,-2.752014c0.233082,-0.430389 0.682198,-1.284943 1.136665,-2.136658c0.230419,-0.431824 0.967381,-1.769409 1.231331,-2.231354c0.538715,-0.94281 0.8176,-1.41507 1.363335,-2.363312c0.269459,-0.468201 1.033878,-1.829956 1.5,-2.700012c0.228584,-0.426666 0.676113,-1.278992 0.905334,-1.705322c0.708179,-1.317139 1.230938,-2.232361 1.504498,-2.700012c0.277088,-0.473694 0.849392,-1.424561 1.147335,-1.894653c0.883389,-1.393768 1.187744,-1.836761 1.799999,-2.695496c0.30228,-0.423981 0.925747,-1.251129 1.252666,-1.652679c0.992249,-1.21875 1.358421,-1.60965 2.095501,-2.399994c0.369801,-0.396515 1.120846,-1.169647 1.494667,-1.547333c1.082664,-1.093842 1.768642,-1.771881 2.095501,-2.104492c0.638901,-0.650177 1.26598,-1.29364 2.157166,-2.319336c0.3046,-0.350586 0.895035,-1.085632 1.5,-1.8125c0.595139,-0.715057 0.866547,-1.085236 1.800003,-1.977997c0.579994,-0.554718 1.208458,-1.011322 2.099998,-1.725525c0.908585,-0.727844 1.500282,-1.264923 2.079163,-1.817322c0.568413,-0.542419 1.350952,-1.336609 1.835503,-1.813324c0.660141,-0.649475 1.255554,-1.239929 2.085335,-1.801331c0.581459,-0.393402 1.605606,-0.874451 2.389328,-1.285339c0.557602,-0.292328 1.428322,-0.953033 2.18,-1.399994c0.770317,-0.458069 1.578133,-0.707397 2.139671,-0.957184c1.203957,-0.535583 1.789375,-0.890717 2.370163,-1.242828c0.839722,-0.509094 1.825073,-1.141144 2.541672,-1.479156c0.736061,-0.347198 1.620102,-0.627289 2.288994,-0.820831c1.072563,-0.310364 1.809799,-0.491974 2.868835,-0.800018c0.670166,-0.194916 1.645355,-0.504364 2.305336,-0.699982c1.035324,-0.306885 1.768669,-0.5 2.515999,-0.700012c0.74733,-0.200012 1.836693,-0.488983 2.838333,-0.799988c0.622162,-0.193176 1.484505,-0.47699 2.479004,-0.901337c0.71067,-0.303223 1.45105,-0.685913 2.325661,-1.119995c0.670609,-0.332825 1.392273,-0.693176 2.166,-1.026001c1.181656,-0.508331 1.986916,-0.776245 2.780334,-1.016693c0.772087,-0.234009 1.52784,-0.425964 2.589165,-0.735992c0.665955,-0.19455 1.611267,-0.498688 2.220169,-0.699982c1.202194,-0.39743 2.101341,-0.699982 2.701332,-0.900024c1.20002,-0.400085 1.806984,-0.586121 2.700005,-0.935974c0.60498,-0.237 1.504234,-0.677826 2.399994,-1.189362c0.602898,-0.344299 1.181541,-0.729126 2.398666,-1.289307c0.58242,-0.268066 1.451332,-0.562958 2.480003,-0.985352c0.701096,-0.287872 1.366447,-0.618805 2.342827,-1c0.808548,-0.315674 1.683472,-0.598663 2.578506,-0.899994c0.900452,-0.303162 1.512604,-0.49115 2.399994,-0.885345c0.914001,-0.406006 1.507202,-0.760254 2.400009,-1.325317c0.60498,-0.382904 1.498367,-0.992065 2.104492,-1.389343c0.614517,-0.402771 1.24408,-0.814667 2.262177,-1.399994c0.711472,-0.409027 1.45462,-0.797516 2.207993,-1.164001c0.737473,-0.358734 1.798706,-0.82785 2.789337,-1.200012c0.622223,-0.233765 1.837769,-0.630768 2.436005,-0.837311c0.90274,-0.311676 1.518997,-0.51709 2.699997,-1.119995c0.610458,-0.311646 1.193085,-0.690918 1.800003,-1.026001c1.186966,-0.655334 1.794601,-0.909851 2.699997,-1.242004c0.596588,-0.218872 1.800003,-0.610687 2.399994,-0.810669c0.900009,-0.299988 1.805756,-0.583557 2.695496,-0.90451c0.874466,-0.31543 1.452759,-0.527954 2.420502,-1.179504c0.710724,-0.478516 1.34201,-1.076294 2.105499,-1.494476c0.790344,-0.432892 1.68187,-0.720398 2.578506,-1.021515c0.903366,-0.303406 1.518921,-0.506165 2.157166,-0.700012c1.360245,-0.413147 2.095505,-0.599976 2.842834,-0.799988c0.74733,-0.200012 1.836136,-0.490723 2.516006,-0.701324c0.988251,-0.306122 1.643677,-0.538879 2.650665,-0.965332c0.723907,-0.306549 1.470917,-0.666077 2.243988,-1.044006c0.792313,-0.387329 1.587738,-0.792572 2.389343,-1.188019c0.798416,-0.39389 1.592422,-0.783112 2.399994,-1.115997c1.189423,-0.490265 1.596634,-0.611053 2.400009,-0.849335c0.796799,-0.236328 1.600403,-0.433044 2.800156,-0.736145c0.804611,-0.203278 1.624023,-0.409149 2.457001,-0.657013c1.315048,-0.391327 1.765579,-0.560211 2.695511,-0.895508c0.473373,-0.170685 1.419495,-0.528961 2.363327,-0.863312c0.914948,-0.324127 1.797104,-0.608856 2.658661,-0.848022c0.847946,-0.235382 1.275955,-0.340454 2.59201,-0.635986c0.91861,-0.206268 1.8797,-0.401398 2.375,-0.5c1.019409,-0.202911 1.544159,-0.304565 3.179657,-0.600006c0.562378,-0.101593 1.131302,-0.200134 2.278671,-0.399994c0.574646,-0.100098 1.148102,-0.19574 2.833328,-0.5c0.545242,-0.09845 1.604675,-0.297394 2.12001,-0.389343c0.999359,-0.178314 1.957993,-0.34201 2.87999,-0.444c0.879715,-0.09729 1.730469,-0.13855 2.556,-0.155975c0.809219,-0.01709 2.010834,-0.010681 2.81517,-0.010681c0.81633,0 1.652664,0 2.962173,0c0.454666,0 1.386002,0 2.333328,0c0.947327,0 1.416,0 2.778503,0c0.864334,0 1.700668,0 2.516998,0c1.204498,0 2.004501,0 2.804504,0c0.799988,0 1.599991,0 2.800156,0c0.804337,0 1.620667,0 2.457001,0c0.428177,0 1.764511,0 2.704498,0c0.980011,0 1.485001,0 2.525009,0c1.080002,0 2.197327,0 2.765991,0c0.572678,0 1.722,0 2.294678,0c1.685989,0 2.231186,-0.003998 3.295502,0.004486c0.521179,0.00415 1.546875,0.023712 2.052673,0.052673c1.506012,0.086243 2.005554,0.156342 3.004486,0.295502c1.001129,0.139465 1.498413,0.233826 2.5,0.363342c0.998535,0.12912 2.001099,0.203766 2.504486,0.226837c1.01593,0.04657 2.052673,0.054016 2.580841,0.055817c1.636017,0.005554 2.198669,0.001343 2.767334,0.001343c1.147339,0 1.722015,0 2.863342,0c1.11734,0 1.662506,0 2.726837,0c1.036316,0 1.546478,0 2.555817,0c1.001343,0 2.001343,0 3.001343,0c0.5,0 1.5,0 2,0c1.5,0 2.5,0 3,0c1,0 1.5,-0.001007 3,0c0.998657,0.000671 1.495667,-0.002716 2.479156,0.020844c0.484924,0.011627 1.439453,0.02951 2.799347,0.2005c0.867401,0.10907 1.698853,0.289001 2.516998,0.425995c1.202057,0.201263 2.005493,0.27243 2.408997,0.295502c0.815826,0.046631 1.652679,0.054901 2.962158,0.057159c0.917358,0.001556 1.858673,0 2.333344,0c0.947327,0 2.333344,-0.001038 2.778656,0.000153c0.868683,0.002319 1.72226,0.003387 2.574005,0.057007c1.315948,0.082825 2.234192,0.225494 2.709015,0.295502c0.980408,0.144562 1.483185,0.235992 2.524994,0.363342c1.078308,0.131836 2.199921,0.202118 2.774994,0.23584c0.58493,0.034302 1.785431,0.104492 2.399994,0.15799c0.625458,0.054443 2.560547,0.327454 3.221008,0.45816c0.666595,0.131927 1.332123,0.282135 1.99649,0.432007c0.659637,0.148804 1.94751,0.454193 3.1875,0.666656c0.588806,0.100891 1.722931,0.227264 2.272003,0.261353c1.075134,0.066772 1.609467,0.067474 3.227997,0.071991c0.55484,0.001556 1.690521,0 2.269348,0c0.584839,0 1.768494,0 2.365326,0c1.198669,0 2.398682,-0.000183 2.998657,0.004486c0.600006,0.004669 1.80014,0.028015 2.400024,0.052673c0.600128,0.024658 2.400299,0.161224 3,0.226837c0.600311,0.065704 1.799866,0.21701 2.399994,0.29068c0.599884,0.073669 2.399719,0.262665 3.000153,0.303986c0.600891,0.041351 1.810516,0.0961 2.420685,0.121338c0.615143,0.025421 1.237823,0.030029 3.145813,0.166656c0.655273,0.046906 1.317535,0.11557 1.986023,0.186005c0.672852,0.070892 2.02179,0.223785 2.694641,0.294678c0.668488,0.070435 1.985626,0.192169 2.631165,0.231171c1.263672,0.076385 1.885468,0.088928 2.500671,0.100647c1.216217,0.023163 1.819519,0.020172 3.020844,0.020844c1.198669,0.000671 1.795502,0 2.389343,0c1.174652,0 1.753479,-0.000244 3.444,0c0.545319,0.000092 1.614044,0.001221 2.141327,0.010681c1.050781,0.018829 1.579865,0.021881 3.191986,0.155975c0.555603,0.046204 1.119019,0.114594 2.269348,0.258667c0.585022,0.073273 1.173248,0.161591 2.365326,0.29068c1.197388,0.129669 1.798126,0.169434 2.994171,0.231323c0.593689,0.030701 1.183929,0.04715 2.347321,0.105347c0.571991,0.028625 2.236267,0.163971 2.771851,0.231323c1.050507,0.132111 1.563873,0.220245 2.580841,0.363342c0.502838,0.07077 2.00351,0.241821 2.995483,0.295502c0.487427,0.026367 1.436981,0.050659 2.338348,0.055817c1.227783,0.007019 1.960815,0.001343 2.649811,0.001343c1.00351,0 2.042175,0 2.773499,0c0.747345,0 1.863342,0 2.926025,0c0.66864,0 1.646667,0 2.305328,0c1.037506,0 1.773163,0 2.926666,0c0.790649,0 1.989319,0 2.789337,0c0.799988,0 1.599976,0 2.799988,0c0.799988,0 1.600006,0 2.399994,0c0.800018,0 2,0 2.800018,0c0.799988,0 1.599976,0 2.799988,0c0.799988,0 1.600006,0 2.399994,0c0.800018,0 2,0 2.800018,0c0.799988,0 1.599976,0 2.799988,0c0.801331,0 1.610657,0 2.020844,0c0.836334,0 2.145813,0.003876 3.063171,-0.001343c0.941345,-0.005371 1.416901,-0.000305 2.363312,-0.055817c1.387939,-0.08139 1.832794,-0.152893 2.69101,-0.295502c0.821869,-0.136566 1.593475,-0.339874 3.040161,-0.525848c0.661987,-0.085114 1.610779,-0.115143 2.220184,-0.120148c1.201294,-0.009888 2.101318,-0.001343 2.701324,-0.001343c1.199829,0 2.089325,0 2.664001,0c1.069336,0 2.010651,0.000366 2.68866,0c1.231323,-0.000671 2.050171,0.009369 2.594666,-0.057159c1.279266,-0.156311 1.941833,-0.480774 2.636658,-0.658844c0.988892,-0.253418 1.8367,-0.271912 2.717346,-0.282654c1.198578,-0.014618 1.801453,0.02597 2.698669,-0.058502c1.205688,-0.113495 1.80423,-0.271851 2.664001,-0.553497c1.081451,-0.354279 1.781128,-0.694366 2.461334,-0.989349c0.938324,-0.406952 1.73056,-0.703522 2.295502,-0.899994c0.878601,-0.305542 2.079163,-0.699982 2.679169,-0.899994c0.899994,-0.299988 1.80304,-0.591095 2.699982,-0.90451c0.602112,-0.210388 1.511963,-0.556946 2.399994,-1.016815c0.608643,-0.315216 1.49292,-0.866089 2.100006,-1.194672c0.890015,-0.48172 1.811432,-0.845795 2.399994,-1.145355c1.225708,-0.623871 1.805847,-1.102478 2.410675,-1.599976c0.630096,-0.51828 1.260284,-1.075562 1.955994,-1.572021c0.704681,-0.502869 1.469055,-0.941803 2.244019,-1.391998c0.790375,-0.459137 1.594757,-0.932983 2.389313,-1.458649c0.805634,-0.53299 1.19455,-0.824097 2,-1.363342c1.192047,-0.798065 1.600555,-1.030304 2.395508,-1.504486c0.784363,-0.467865 1.557739,-0.943726 1.919159,-1.217529c1.097412,-0.83136 1.738586,-1.539154 2.070679,-1.891998c0.678894,-0.721283 1.360016,-1.482483 2.14798,-2.171997c0.812256,-0.710754 1.274292,-1.01709 1.728027,-1.341309c0.919495,-0.657043 1.410828,-0.950928 2.771973,-1.992004c0.452087,-0.345795 0.887512,-0.710327 1.730713,-1.458679c0.418274,-0.371216 1.228394,-1.125366 1.634644,-1.490662c1.192322,-1.072235 1.593201,-1.405853 2.390686,-2.037323c0.768188,-0.608276 1.148254,-0.892273 2.243958,-1.680023c0.679443,-0.488495 1.347473,-0.943787 1.992004,-1.427979c0.6651,-0.499634 1.698364,-1.379059 2.059998,-1.708008c0.75531,-0.686981 1.133179,-1.053986 1.919189,-1.782501c0.395691,-0.36676 1.594055,-1.428345 1.994141,-1.76416c0.788208,-0.661621 1.194397,-0.96817 1.944214,-1.636688c1.11145,-0.990936 1.444458,-1.360565 2.099976,-2.09549c0.645081,-0.723267 0.929504,-1.105835 1.555847,-1.782501c0.878052,-0.948578 1.496399,-1.465637 2.101318,-1.948486c0.595154,-0.475098 1.507751,-1.17865 2.099976,-1.706177c0.608154,-0.541687 1.202087,-1.12323 1.800049,-1.716003c0.902954,-0.895142 1.490112,-1.495255 2.079163,-2.056992c0.558594,-0.5327 1.337952,-1.231064 2.072632,-1.736343c0.694946,-0.477951 1.225891,-0.760818 2.091003,-1.34816c0.673645,-0.457352 1.377319,-0.978897 2.109009,-1.509003c1.080505,-0.782837 1.765015,-1.261078 2.41217,-1.722839c0.627441,-0.447678 1.250916,-0.889908 2.136169,-1.646988c0.615906,-0.526749 1.222046,-1.118561 1.535828,-1.425003c0.652283,-0.637009 1.685364,-1.674683 2.047974,-2.037338c0.741272,-0.741364 1.116028,-1.116028 1.863342,-1.863327c0.368713,-0.368683 1.431335,-1.43132 2.100037,-2.100006c0.652649,-0.652649 0.977966,-0.978012 1.636658,-1.636658c1.037292,-1.037201 1.397217,-1.401443 2.141296,-2.130676c0.373352,-0.365891 1.117188,-1.08078 1.490723,-1.416c1.049316,-0.941696 1.731323,-1.463989 2.383972,-1.96933c0.652649,-0.505341 1.670105,-1.329453 2.021362,-1.642838c0.738586,-0.658936 1.47998,-1.376602 1.853333,-1.742493c0.74408,-0.729233 1.460754,-1.445877 2.138611,-2.129333c0.642029,-0.647339 1.245789,-1.26944 1.525024,-1.580841c1.062561,-1.184967 1.509033,-1.804489 1.96167,-2.404495c0.452637,-0.600006 1.159973,-1.505859 1.684021,-2.100006c0.534546,-0.606049 1.100037,-1.191635 1.631958,-1.799988c0.776428,-0.888016 1.233521,-1.495193 1.663208,-2.100006c0.422974,-0.595352 1.220825,-1.800018 1.620789,-2.399994c0.400024,-0.600021 0.800049,-1.199997 1.600037,-2.400009c0.399963,-0.599991 0.799988,-1.199982 1.200012,-1.800003c0.599976,-0.899979 1.197998,-1.793854 1.579163,-2.379166c0.366028,-0.562103 1.002502,-1.597763 1.395508,-2.295502c0.380981,-0.676331 0.944458,-1.648041 1.277954,-2.177994c0.518616,-0.824158 0.892761,-1.346283 1.462036,-2.363327c0.500977,-0.895096 0.88269,-1.851715 1.189819,-2.636673c0.214478,-0.548065 0.521912,-1.401093 1.179504,-2.362c0.475159,-0.694305 1.071045,-1.256271 1.630676,-2.085327c0.392822,-0.581879 0.864136,-1.611343 1.189819,-2.195511c0.425476,-0.763123 1.202271,-1.494308 1.695496,-1.925323c0.876404,-0.765854 1.248413,-1.481934 1.589355,-2.2285c0.41748,-0.914246 0.825256,-1.596985 1.295959,-2.218674c0.603821,-0.797485 1.122192,-1.547989 1.462036,-2.083832c0.645569,-1.017838 1.036865,-1.713318 1.348145,-2.400833c0.432983,-0.956421 0.70752,-1.782303 0.90448,-2.358002c0.406189,-1.187241 0.700012,-2.089325 0.900024,-2.689331c0.299988,-0.899994 0.600037,-1.799988 0.900024,-2.699997c0.200012,-0.599991 0.599976,-1.800003 0.799988,-2.400009c0.299988,-0.899994 0.497375,-1.50087 0.899963,-2.699661c0.19873,-0.591766 0.43988,-1.456299 0.900024,-2.367004c0.425415,-0.841919 0.841064,-1.663574 1.020813,-2.354156c0.25885,-0.99469 0.663818,-1.597076 1.330994,-2.322006c0.604431,-0.656738 1.123352,-1.451111 1.648193,-2.136337c0.483826,-0.631714 1.53772,-0.483353 2.32135,-0.742157c0.877014,-0.289642 1.670105,-0.607254 2.562622,-0.862671c0.786926,-0.225204 1.501465,-0.648453 2.516052,-0.830673c0.790833,-0.142029 1.804443,-0.018784 2.579163,-0.106155c1.013184,-0.114258 1.654724,-0.642914 2.563477,-1.07901c0.689636,-0.330917 1.446411,-0.565186 2.486694,-0.816162c0.764221,-0.184387 1.507813,-0.830948 2.370667,-1.048004c0.873474,-0.219727 1.799988,-0.037323 2.699951,-0.257324l0.600037,-0.42601l0.899963,-0.341995l0.900024,-0.010666"/>
 </g>

</svg>