<?xml version="1.0" encoding="utf-8"?>
<!-- Generator: Adobe Illustrator 24.2.1, SVG Export Plug-In . SVG Version: 6.00 Build 0)  -->
<svg version="1.1" id="Layer_1" xmlns="http://www.w3.org/2000/svg" xmlns:xlink="http://www.w3.org/1999/xlink" x="0px" y="0px"
	 viewBox="0 0 1920 1080" enable-background="new 0 0 1920 1080" xml:space="preserve">
<rect id="toc-content-background-4" x="827" y="676" fill="#FFFFFF" stroke="#606060" stroke-width="4" width="197" height="81"/>
<text transform="matrix(1 0 0 1 892.176 711.999)" fill="#7A7A7A" font-family="'RobotoSlab-Light'" font-size="21px">Coping </text>
<text transform="matrix(1 0 0 1 892.176 737.199)" fill="#7A7A7A" font-family="'RobotoSlab-Light'" font-size="21px">Strategies</text>
<text id="toc-content-label-4" transform="matrix(1 0 0 1 843.8 735.999)" fill="#7A7A7A" font-family="'RobotoSlab-Bold'" font-size="55px">4</text>
<g id="toc-content-3">
	<rect id="toc-content-background-3" x="827" y="565" fill="#FFFFFF" stroke="#606060" stroke-width="4" width="197" height="81"/>
	<text transform="matrix(1 0 0 1 892.176 600.999)" fill="#7A7A7A" font-family="'RobotoSlab-Light'" font-size="21px">Frequency </text>
	<text transform="matrix(1 0 0 1 892.176 626.199)" fill="#7A7A7A" font-family="'RobotoSlab-Light'" font-size="21px">&amp; Intensity</text>
	
		<text id="toc-content-label-3" transform="matrix(1 0 0 1 843.8 624.999)" fill="#7A7A7A" font-family="'RobotoSlab-Bold'" font-size="55px">3</text>
</g>
<g id="toc-content-2">
	<rect id="toc-content-background-2" x="827" y="454" fill="#FFFFFF" stroke="#606060" stroke-width="4" width="197" height="81"/>
	<text id="toc-content-text-2" transform="matrix(1 0 0 1 892.1759 489.999)" enable-background="new    "><tspan x="0" y="0" fill="#7A7A7A" font-family="'RobotoSlab-Light'" font-size="21px">Academic</tspan><tspan x="0" y="25.2" fill="#7A7A7A" font-family="'RobotoSlab-Light'" font-size="21px">Stressors</tspan></text>
	
		<text id="toc-content-label-2" transform="matrix(1 0 0 1 843.8 513.999)" fill="#7A7A7A" font-family="'RobotoSlab-Bold'" font-size="55px">2</text>
</g>
<g id="toc-content-1">
	<rect id="toc-content-background-1" x="827" y="344" fill="#FFFFFF" stroke="#606060" stroke-width="4" width="197" height="81"/>
	<text transform="matrix(1 0 0 1 903.5001 379.999)" fill="#7A7A7A" font-family="'RobotoSlab-Light'" font-size="21px">Stress</text>
	<text transform="matrix(1 0 0 1 903.5001 405.199)" fill="#7A7A7A" font-family="'RobotoSlab-Light'" font-size="21px">Patterns</text>
	
		<text id="toc-content-label-1" transform="matrix(1 0 0 1 843.7999 405.1987)" fill="#7A7A7A" font-family="'RobotoSlab-Bold'" font-size="55px">1</text>
</g>
</svg>
