<?xml version="1.0" encoding="utf-8"?>
<!-- Generator: Adobe Illustrator 24.2.1, SVG Export Plug-In . SVG Version: 6.00 Build 0)  -->
<svg version="1.1" id="Main" xmlns="http://www.w3.org/2000/svg" xmlns:xlink="http://www.w3.org/1999/xlink" x="0px" y="0px"
	 viewBox="0 0 1920 1080" style="enable-background:new 0 0 1920 1080;" xml:space="preserve">
<style type="text/css">
	.st0{fill:#FFFFFF;stroke:#9FC855;stroke-width:2;stroke-miterlimit:10;}
	.st1{fill:#FFFFFF;}
	.st2{fill:none;stroke:#9FC855;stroke-width:2;stroke-miterlimit:10;}
	.st3{fill:#707070;}
	.st4{font-family:'RobotoSlab-Regular';}
	.st5{font-size:21px;}
	.st6{fill:#D9D9D9;}
	.st7{fill:#737373;}
	.st8{fill:#FFFFFF;stroke:#7FC8BB;stroke-width:2;stroke-miterlimit:10;}
	.st9{fill:none;stroke:#7FC8BB;stroke-width:2;stroke-miterlimit:10;}
	.st10{fill:#2B388F;}
	.st11{fill:#FFFFFF;stroke:#F8AB1D;stroke-width:2;stroke-miterlimit:10;}
	.st12{fill:none;stroke:#F8AB1D;stroke-width:2;stroke-miterlimit:10;}
	.st13{fill:#FFFFFF;stroke:#FB9482;stroke-width:2;stroke-miterlimit:10;}
	.st14{fill:none;stroke:#FB9482;stroke-width:2;stroke-miterlimit:10;}
	.st15{fill:#050505;}
	.st16{font-family:'RobotoSlab-Bold';}
	.st17{font-size:24px;}
	.st18{fill:#626262;}
	.st19{fill:none;stroke:#9FC855;stroke-width:2;}
	.st20{fill:none;stroke:#7FC8BB;stroke-width:2;}
	.st21{fill:none;stroke:#FB9482;stroke-width:2;}
	.st22{font-size:18px;}
	.st23{fill:none;stroke:#CCCCCC;}
	.st24{fill:none;stroke:#707070;stroke-width:5;}
	.st25{fill:none;stroke:#CCCCCC;stroke-width:10;}
	.st26{fill:#313030;}
	.st27{font-size:25px;}
	.st28{fill:none;stroke:#707070;stroke-width:5;stroke-dasharray:5,10;}
	.st29{enable-background:new    ;}
	.st30{fill:url(#SVGID_1_);}
	.st31{fill:url(#SVGID_2_);}
	.st32{fill:url(#SVGID_3_);}
	.st33{fill:url(#SVGID_4_);}
	.st34{fill:url(#SVGID_5_);}
	.st35{fill:url(#SVGID_6_);}
	.st36{fill:url(#SVGID_7_);}
	.st37{fill:url(#SVGID_8_);}
</style>
<g id="Persona">
	<g id="AvatarPersona4">
		<g id="P4Bg">
			<rect id="P4AvtBg" x="1448.28" y="699.77" class="st0" width="258" height="77"/>
			<rect id="P4TxtBg" x="1551.23" y="706.99" class="st1" width="148.15" height="62.81"/>
			<line id="P4BgSplt" class="st2" x1="1546.28" y1="698.77" x2="1546.28" y2="777.77"/>
		</g>
		<text transform="matrix(1 0 0 1 1595.9843 732.1671)" class="st3 st4 st5">TYPE IV</text>
		<text transform="matrix(1 0 0 1 1575.1172 757.1671)" class="st3 st4 st5">Low Stress</text>
		<g id="P4Aavatar" transform="translate(1242.639 64.641)">
			<g id="Group_4" transform="translate(0 4.24)">
				<path id="Path_5" class="st6" d="M280.57,707.36h-60.28c-0.5-10.5,13-25.73,29.64-25.73
					C266.58,681.62,280.08,696.86,280.57,707.36z"/>
				
					<ellipse id="Ellipse_1" transform="matrix(0.1602 -0.9871 0.9871 0.1602 -435.7463 795.9606)" class="st6" cx="249.9" cy="654.06" rx="22.89" ry="22.89"/>
			</g>
			<path id="Path_6" class="st7" d="M249.83,631.17c-17.58,0-31.39,13-24.27,32.69h2.6l-0.54-7.73h8.56l2.58-10.3l-1.47,10.3h1.89
				l2.06-10.3l0.09,10.3h14.75l1.01-8.62l3.46,8.62h11.84l-0.98,7.73h2.43C281.97,642.9,265.53,631.17,249.83,631.17z"/>
		</g>
	</g>
	<g id="AvatarPersona3">
		<g id="P3Bg">
			<rect id="P3AvtBg" x="1444.72" y="518.58" class="st8" width="258" height="77"/>
			<rect id="P3TxtBg" x="1547.67" y="525.8" class="st1" width="148.15" height="62.81"/>
			<line id="P3BgSplt" class="st9" x1="1542.72" y1="517.58" x2="1542.72" y2="596.58"/>
		</g>
		<text transform="matrix(1 0 0 1 1585.6385 551.0776)" class="st3 st4 st5">TYPE III</text>
		<text transform="matrix(1 0 0 1 1577.2766 576.0776)" class="st3 st4 st5">Late Peak</text>
		<g id="P3Avatar" transform="translate(1241.372 429.649)">
			<path id="Path_9" class="st10" d="M226.69,161.21c-0.1,0.06-0.21,0.13-0.3,0.19l-0.07-0.4L226.69,161.21z"/>
			<path id="Path_10" class="st10" d="M226.69,161.21c-0.1,0.06-0.21,0.13-0.3,0.19l-0.07-0.4L226.69,161.21z"/>
			<g id="Group_8" transform="translate(0.957 12.088)">
				<path id="Path_11" class="st6" d="M277.01,154.26h-60.28c-0.5-10.5,13-25.73,29.64-25.73S276.52,143.77,277.01,154.26z"/>
				
					<ellipse id="Ellipse_3" transform="matrix(0.1602 -0.9871 0.9871 0.1602 107.2145 327.9555)" class="st6" cx="246.34" cy="100.97" rx="22.89" ry="22.89"/>
			</g>
			<path id="Path_12" class="st7" d="M266.41,87.52c-3.15-3.25-7.89-6.6-12.21-4.5c-1.11-4.47-6.03-5.48-10.14-4.7
				c-14.03,2.65-22.78,18.23-25.19,31.04c-0.17,0.89-1.05,7.97-2.15,8.06c8.44-0.61,14.58-5.2,18.77-11.85
				c-1.04,2.17-1.76,4.48-2.14,6.86c4.23-2.38,8.03-5.44,11.25-9.06c1.59-1.76,3.05-3.64,4.36-5.61c1.23-1.84,2.19-4.61,3.62-6.1
				c0.55,2.37,1.41,4.65,2.56,6.79c0.91,1.67,4.46,4.8,4.71,6.35c-0.33-2.05-0.65-4.1-0.96-6.15c2.85,8.38,7.14,16.2,12.66,23.11
				c2.12-3.86,2.94-9.13,3.26-13.47c0.54-7.18-2.56-14.02-7.16-19.4C267.28,88.45,266.86,87.99,266.41,87.52z"/>
		</g>
	</g>
	<g id="AvatarPersona2_1_">
		<g id="P2Bg">
			<rect id="P2AvtBg" x="1444.72" y="334.4" class="st11" width="258" height="77"/>
			<rect id="P2TxtBg" x="1547.67" y="341.62" class="st1" width="148.15" height="62.81"/>
			<line id="P2BgSplt" class="st12" x1="1542.72" y1="333.4" x2="1542.72" y2="412.4"/>
		</g>
		<text transform="matrix(1 0 0 1 1584.8905 366.8935)" class="st3 st4 st5">TYPE II</text>
		<text transform="matrix(1 0 0 1 1572.7135 391.8935)" class="st3 st4 st5">Early Peak</text>
		<g id="P2Avatar" transform="translate(1243.069 614.574)">
			<g id="Group_10" transform="translate(3.632 15.112)">
				<path id="Path_13" class="st6" d="M277.01-217.91h-60.28c-0.5-10.5,13-25.73,29.64-25.73S276.51-228.41,277.01-217.91z"/>
				
					<ellipse id="Ellipse_4" transform="matrix(0.1602 -0.9871 0.9871 0.1602 474.5927 15.3887)" class="st6" cx="246.34" cy="-271.21" rx="22.89" ry="22.89"/>
			</g>
			<path id="Path_14" class="st7" d="M280.67-268.21c-0.24-0.26,0.39-2.01,0.45-2.38c0.43-2.59,0.22-5.25-0.63-7.74
				c-1.09-3.29-3.39-6.04-6.45-7.68c-3.44-1.79-7.89-2.52-11.3-0.26c0.04-0.12-0.94-7.01-7.86-7.7c-3.91-0.39-7.61,0.89-9.63,4.37
				c-5.12-5.35-14.31-6.52-19.23-0.25c-2.94,3.69-3.19,8.84-0.64,12.81c-4.32,2.61-7.46,6.1-8.4,11.06
				c-1.22,6.41,1.78,14.5,8.44,16.25c0.11,0.03,0.23,0.06,0.34,0.08c0.25,5.93,4.35,10.99,10.1,12.46c0.72,0.19,1.45,0.32,2.19,0.39
				c-10.81-6.56-14.26-20.64-7.7-31.46c0.39-0.64,0.81-1.27,1.26-1.87c0.24,0.03,0.49,0.04,0.73,0.04c3.29,0,6.1-2.36,6.69-5.59
				c2.45,3.65,7.4,4.63,11.06,2.17c1.32-0.88,2.34-2.14,2.94-3.61c-0.03,0.27-0.05,0.54-0.05,0.82c-0.01,3.75,3.03,6.79,6.77,6.8
				c0.83,0,1.65-0.15,2.43-0.44c0.7,4.23,4.35,7.33,8.63,7.33c0.38,0,0.75-0.03,1.12-0.08c2.7,9.41-0.89,19.5-8.93,25.09
				c7.11,0.42,16.52-9.47,15.79-17.41c4.05-2.28,5.47-7.42,3.19-11.46C281.61-267.1,281.18-267.68,280.67-268.21L280.67-268.21z
				 M253.53-278.99L253.53-278.99L253.53-278.99z"/>
		</g>
	</g>
	<g id="AvatarPersona1">
		<g id="P1Bg_1_">
			<rect id="P1AvtBg_1_" x="1443.71" y="146.43" class="st13" width="258" height="77"/>
			<rect id="P1TxtBg_1_" x="1546.66" y="153.65" class="st1" width="148.15" height="62.81"/>
			<line id="P1BgTxt" class="st14" x1="1541.71" y1="145.43" x2="1541.71" y2="224.43"/>
		</g>
		<text transform="matrix(1 0 0 1 1588.0271 177.4296)" class="st3 st4 st5">TYPE I</text>
		<text transform="matrix(1 0 0 1 1567.0371 202.4296)" class="st3 st4 st5">High Stress</text>
		<g id="P1Avatar" transform="translate(1234.006 223.594)">
			<g id="Group_6" transform="translate(6.727 18.052)">
				<path id="Path_7" class="st6" d="M289.36-16.51h-73.63c-0.61-12.82,15.88-31.43,36.21-31.43
					C272.27-47.94,288.75-29.33,289.36-16.51z"/>
				<circle id="Ellipse_2" class="st6" cx="251.89" cy="-81.61" r="27.96"/>
			</g>
			<path id="Path_8" class="st7" d="M297.05-54.33l-6.24-7.76l9.35-6.73l-11.17-3.74l0,0l7.42-13.56l-15.42-2.92l2.05-13.69
				l-13.92,5.93l-6.39-9.59l-5.92,10.7l-13.94-13.89l-4.79,18.29l-16.05-3.84l7.15,16.72l-13.47,2.19l10.04,10.46l-5.14,10.04
				l8.45-0.8l-1.14,14.15l10.5-1.83c-4.75-5.01-7.88-10.87-7.88-18.32c-0.01-9.24,4.56-17.89,12.2-23.1L239.39-80l12.84-6.54
				l-8.67,10.31l23.26-8.69l-4.31,6.06l12.81-6c0.38,0.29,0.76,0.59,1.13,0.9l-2.48,3.33l4.29-1.67c5.27,5.24,8.22,12.36,8.22,19.78
				c0,7.55-2.2,11.51-5.33,15.6L297.05-54.33z"/>
		</g>
	</g>
</g>
<g id="DetailP4_1_">
	<rect id="txtbg" x="289" y="877" class="st1" width="1265.33" height="145.33"/>
	<text transform="matrix(1 0 0 1 308.1156 911.0781)" class="st15 st16 st17">PERSONA TYPE IV: Low Stress</text>
	<text transform="matrix(1 0 0 1 308.1156 951.0781)" class="st18 st4 st17">The Low Stress type is generally more relaxed. There are no significant changes or high peaks of stress level </text>
	<text transform="matrix(1 0 0 1 308.1156 991.0781)" class="st18 st4 st17">during anytime of the day or night.</text>
</g>
<g id="DetailP3">
	<rect id="txtbg_2_" x="302.71" y="878.41" class="st1" width="1265.33" height="145.33"/>
	<text transform="matrix(1 0 0 1 308.9936 911.0786)" class="st15 st16 st17">PERSONA TYPE III: Late Peak</text>
	<text transform="matrix(1 0 0 1 308.9936 951.0786)" class="st18 st4 st17">Their stress level builds up as the day goes. It goes higher and higher towards the end of the day and doesn’t </text>
	<text transform="matrix(1 0 0 1 308.9936 991.0786)" class="st18 st4 st17">go down.</text>
</g>
<g id="DetailP2">
	<rect id="txtbg_3_" x="302.71" y="877" class="st1" width="1265.33" height="145.33"/>
	<text transform="matrix(1 0 0 1 302.7098 909.665)" class="st15 st16 st17">PERSONA TYPE II: Early Peak</text>
	<text transform="matrix(1 0 0 1 302.7098 949.665)" class="st18 st4 st17">The stress level of the Early Peak type reaches the highest in the middle of the day, then it starts to drop down </text>
	<text transform="matrix(1 0 0 1 302.7098 989.665)" class="st18 st4 st17">in the late afternoon. Eventually they “collapse” at bed time.</text>
</g>
<g id="DetailP1_1_">
	<rect id="txtbg_1_" x="289" y="877" class="st1" width="1265.33" height="145.33"/>
	<text transform="matrix(1 0 0 1 308.9664 911.0776)" class="st15 st16 st17">PERSONA TYPE I: High Stress</text>
	<text transform="matrix(1 0 0 1 308.9664 951.0776)" class="st18 st4 st17">The High Stress type is stressed almost all the time in day and night. Their stress level spikes up right after </text>
	<text transform="matrix(1 0 0 1 308.9664 991.0776)" class="st18 st4 st17">waking up, and only drops down at the end of their days.</text>
</g>
<g id="Plot">
	<g id="PersonaCurve">
		<path id="CurvePersona4" class="st19" d="M1427.72,771.76c-16.85,0.51-76.42-12.77-108.37-15.98s-48.41-10.23-80.97-17.83
			s-58.57-6.99-104.02,0s-85.08,24.59-151.78,0s-93.86-10.43-125.86-13.26s-37.86,8.62-84.45,0s-65.29,1.01-93.37,13.26
			s-92.88,3.78-108.43,0s-55.54-1.7-73.68,0s-73.88,9.04-100.67,17.83S309,746.65,309,746.65"/>
		<path id="CurvePersona3" class="st20" d="M313.47,686.3c0,0,115.03-12.37,148.35-11.41s160.91-9.59,214.88-34.37
			s71.12-45.17,99.05-69.8s45.66-48.76,83.19-55.87s90.56-13.99,115.58-23.34s46.52-13.42,70.51-21.1s55.75-22.5,76.32-39.54
			s29.87-26.25,52.99-64.63s67.13-51.77,100.18-72.73s113.68-54.76,129.95-53.11"/>
		<path id="CurvePersona2" class="st12" d="M308.12,736.17c68.53,5.92,64.13-16.15,127-37.44c17.23-5.83,66.19-65.24,78.64-78.31
			c10.6-11.13,23.06-73.52,27.35-88.16c22.63-77.23,12.86-185.01,77.22-228.45c38.33-25.85,172.82-27.96,214.7,19.05
			c27.36,42.1,19.81,21.9,48.33,89.6c1.71,2.89,30.61,85.01,32.58,89.1c16.52,34.37,19.84,68.87,43.31,87.15
			c48.13,37.49,79.67,65.56,141.06,67.75c125.81,4.48,158.34,90.13,329.4,100.57"/>
		<path id="CurvePersona1_1_" class="st21" d="M312.72,720.14c0,0,83.46-27.84,79.62-285.12s204.89-255.25,204.89-255.25
			s180.19-1.85,267.16,0s88.23-12.6,187.83,0s154.85-8.87,210.57,50.4s65.92,233.79,71.75,285.35s36.8,133.45,55.94,172.28
			s28.01,40.69,37.24,57.35"/>
	</g>
	<g id="PlotBackGround">
		<g id="TimeLabels">
			<text transform="matrix(1 0 0 1 308.7215 812.0776)" class="st3 st4 st22">Morning</text>
			<text transform="matrix(1 0 0 1 308.7215 832.0776)" class="st3 st4 st22">6am</text>
			<text transform="matrix(1 0 0 1 651.7215 812.0776)" class="st3 st4 st22">Afternoon</text>
			<text transform="matrix(1 0 0 1 651.7215 832.0776)" class="st3 st4 st22">12pm</text>
			<text transform="matrix(1 0 0 1 1029.7216 812.0776)" class="st3 st4 st22">Evening</text>
			<text transform="matrix(1 0 0 1 1029.7216 832.0776)" class="st3 st4 st22">6pm</text>
			<text transform="matrix(1 0 0 1 1348.7216 812.0776)" class="st3 st4 st22">Midnight</text>
			<text transform="matrix(1 0 0 1 1348.7216 832.0776)" class="st3 st4 st22">12am</text>
		</g>
		<line id="Anchor12pm" class="st23" x1="653.05" y1="786.41" x2="653.05" y2="145.68"/>
		<line id="Anchor6pm" class="st23" x1="1029.72" y1="786.41" x2="1029.72" y2="145.68"/>
		<line id="Anchor12am" class="st23" x1="1348.58" y1="786.41" x2="1348.58" y2="145.68"/>
		<line id="TimeAxis" class="st24" x1="308.51" y1="786.95" x2="1428.22" y2="786.62"/>
		<line id="StressAxis" class="st25" x1="312.38" y1="786.41" x2="312.38" y2="145.68"/>
		<g id="StressMerit">
			<text transform="matrix(1 0 0 1 216.7215 104.0776)" class="st26 st4 st27">Maximum</text>
			<text transform="matrix(1 0 0 1 216.7215 132.0776)" class="st26 st4 st27">Stress</text>
			<g id="StressArrow" transform="translate(21 69.497)">
				<line id="Line_14" class="st28" x1="236.22" y1="105.58" x2="236.22" y2="697.16"/>
				<path id="Polygon_1" class="st15" d="M236.22,77.58l19.5,45h-39L236.22,77.58z"/>
				<path id="Polygon_2" class="st3" d="M236.22,709.58l-8.5-20h17L236.22,709.58z"/>
			</g>
			<g class="st29">
				<g>
					
						<linearGradient id="SVGID_1_" gradientUnits="userSpaceOnUse" x1="216.7217" y1="282.815" x2="270.1226" y2="282.815" gradientTransform="matrix(1 0 0 -1 0 1080)">
						<stop  offset="0" style="stop-color:#FFFFFF"/>
						<stop  offset="1" style="stop-color:#000000"/>
					</linearGradient>
					<path class="st30" d="M235,788.3v1.55l-1.99,0.34v15.88h-2.4l-8.54-13.72l-0.07,0.02v11.82l1.99,0.34v1.54h-6.38v-1.54
						l1.99-0.34v-14l-1.99-0.34v-1.55h1.99h2.4l8.54,13.71l0.07-0.03V790.2l-1.99-0.34v-1.55h4.39H235V788.3z"/>
					
						<linearGradient id="SVGID_2_" gradientUnits="userSpaceOnUse" x1="216.7217" y1="280.53" x2="270.1226" y2="280.53" gradientTransform="matrix(1 0 0 -1 0 1080)">
						<stop  offset="0" style="stop-color:#FFFFFF"/>
						<stop  offset="1" style="stop-color:#000000"/>
					</linearGradient>
					<path class="st31" d="M236.86,799.35c0-1.95,0.53-3.56,1.59-4.83s2.49-1.9,4.31-1.9c1.82,0,3.27,0.63,4.33,1.89
						s1.59,2.87,1.59,4.83v0.27c0,1.97-0.53,3.58-1.59,4.83s-2.49,1.88-4.31,1.88c-1.83,0-3.28-0.63-4.33-1.89
						c-1.06-1.26-1.59-2.87-1.59-4.83V799.35z M239.27,799.62c0,1.4,0.29,2.55,0.89,3.47c0.59,0.91,1.47,1.37,2.63,1.37
						c1.14,0,2.01-0.46,2.6-1.37c0.59-0.91,0.89-2.07,0.89-3.47v-0.27c0-1.38-0.3-2.53-0.89-3.45s-1.47-1.38-2.62-1.38
						c-1.16,0-2.03,0.46-2.61,1.38s-0.88,2.07-0.88,3.45v0.27H239.27z"/>
				</g>
				<text transform="matrix(1 0 0 1 216.7215 806.0776)" class="st26 st4 st27">No </text>
			</g>
			<g class="st29">
				<g>
					
						<linearGradient id="SVGID_3_" gradientUnits="userSpaceOnUse" x1="216.7217" y1="260.8201" x2="304.4858" y2="260.8201" gradientTransform="matrix(1 0 0 -1 0 1080)">
						<stop  offset="0" style="stop-color:#FFFFFF"/>
						<stop  offset="1" style="stop-color:#000000"/>
					</linearGradient>
					<path class="st32" d="M230.45,815.55h-1.82l-0.45-2.54c-0.37-0.31-0.85-0.57-1.46-0.77s-1.32-0.31-2.12-0.31
						c-1.28,0-2.26,0.27-2.94,0.81c-0.68,0.54-1.03,1.25-1.03,2.12c0,0.77,0.35,1.42,1.04,1.93c0.7,0.52,1.82,0.97,3.38,1.36
						c1.87,0.46,3.29,1.15,4.27,2.05c0.97,0.9,1.46,2.02,1.46,3.36c0,1.43-0.58,2.58-1.75,3.45s-2.7,1.31-4.58,1.31
						c-1.37,0-2.58-0.22-3.64-0.67s-1.93-1.03-2.59-1.76v-3.31h1.81l0.46,2.55c0.46,0.38,1.02,0.7,1.66,0.94s1.41,0.37,2.31,0.37
						c1.21,0,2.17-0.26,2.88-0.77c0.7-0.51,1.06-1.21,1.06-2.09c0-0.81-0.31-1.5-0.92-2.04c-0.61-0.55-1.69-1.01-3.23-1.39
						c-1.88-0.45-3.35-1.11-4.41-1.98s-1.59-1.97-1.59-3.28c0-1.39,0.59-2.55,1.77-3.47c1.18-0.92,2.71-1.38,4.6-1.38
						c1.25,0,2.38,0.21,3.4,0.64c1.02,0.43,1.84,0.95,2.46,1.56v3.31H230.45z"/>
					
						<linearGradient id="SVGID_4_" gradientUnits="userSpaceOnUse" x1="216.7217" y1="259.995" x2="304.4858" y2="259.995" gradientTransform="matrix(1 0 0 -1 0 1080)">
						<stop  offset="0" style="stop-color:#FFFFFF"/>
						<stop  offset="1" style="stop-color:#000000"/>
					</linearGradient>
					<path class="st33" d="M237.23,811.68v3.19h2.5v1.78h-2.5v8.02c0,0.62,0.13,1.05,0.38,1.31c0.26,0.25,0.6,0.38,1.02,0.38
						c0.21,0,0.45-0.02,0.71-0.06c0.26-0.04,0.49-0.08,0.67-0.12l0.33,1.65c-0.23,0.15-0.56,0.27-1,0.36
						c-0.44,0.09-0.88,0.14-1.32,0.14c-0.98,0-1.75-0.29-2.33-0.88s-0.87-1.52-0.87-2.78v-8.02h-2.09v-1.78h2.09v-3.19H237.23z"/>
					
						<linearGradient id="SVGID_5_" gradientUnits="userSpaceOnUse" x1="216.7217" y1="258.6451" x2="304.4858" y2="258.6451" gradientTransform="matrix(1 0 0 -1 0 1080)">
						<stop  offset="0" style="stop-color:#FFFFFF"/>
						<stop  offset="1" style="stop-color:#000000"/>
					</linearGradient>
					<path class="st34" d="M242.19,816.42v-1.55h4.14l0.23,1.92c0.37-0.68,0.84-1.21,1.39-1.59s1.18-0.57,1.89-0.57
						c0.19,0,0.38,0.01,0.58,0.04c0.2,0.03,0.35,0.06,0.46,0.09l-0.32,2.23l-1.37-0.07c-0.63,0-1.17,0.15-1.6,0.45
						c-0.43,0.3-0.77,0.71-1,1.25v7.58l1.99,0.34v1.54h-6.38v-1.54l1.99-0.34v-9.44L242.19,816.42z"/>
					
						<linearGradient id="SVGID_6_" gradientUnits="userSpaceOnUse" x1="216.7217" y1="258.525" x2="304.4858" y2="258.525" gradientTransform="matrix(1 0 0 -1 0 1080)">
						<stop  offset="0" style="stop-color:#FFFFFF"/>
						<stop  offset="1" style="stop-color:#000000"/>
					</linearGradient>
					<path class="st35" d="M258.56,828.33c-1.84,0-3.3-0.61-4.39-1.84c-1.09-1.22-1.63-2.81-1.63-4.77v-0.54
						c0-1.88,0.56-3.44,1.68-4.69s2.44-1.87,3.97-1.87c1.77,0,3.12,0.54,4.03,1.61c0.92,1.07,1.37,2.51,1.37,4.3v1.5h-8.57
						l-0.04,0.06c0.02,1.27,0.35,2.31,0.96,3.13c0.62,0.82,1.48,1.23,2.6,1.23c0.81,0,1.53-0.12,2.14-0.35
						c0.61-0.23,1.15-0.55,1.59-0.96l0.94,1.56c-0.47,0.46-1.1,0.84-1.87,1.15C260.58,828.18,259.65,828.33,258.56,828.33z
						 M258.19,816.52c-0.81,0-1.49,0.34-2.06,1.02s-0.92,1.53-1.05,2.56l0.02,0.06h6.09v-0.32c0-0.94-0.25-1.73-0.76-2.37
						C259.93,816.84,259.18,816.52,258.19,816.52z"/>
					
						<linearGradient id="SVGID_7_" gradientUnits="userSpaceOnUse" x1="216.7217" y1="258.55" x2="304.4858" y2="258.55" gradientTransform="matrix(1 0 0 -1 0 1080)">
						<stop  offset="0" style="stop-color:#FFFFFF"/>
						<stop  offset="1" style="stop-color:#000000"/>
					</linearGradient>
					<path class="st36" d="M276.07,819.02h-1.81l-0.39-1.59c-0.29-0.28-0.66-0.5-1.1-0.67s-0.95-0.25-1.51-0.25
						c-0.85,0-1.49,0.19-1.9,0.56c-0.42,0.37-0.62,0.83-0.62,1.35c0,0.52,0.18,0.93,0.55,1.23s1.11,0.57,2.23,0.8
						c1.67,0.36,2.91,0.84,3.72,1.46s1.22,1.44,1.22,2.47c0,1.17-0.47,2.12-1.42,2.84c-0.95,0.72-2.19,1.09-3.72,1.09
						c-1,0-1.9-0.12-2.7-0.35c-0.8-0.23-1.51-0.57-2.14-1.01l-0.01-3.01h1.81l0.45,1.77c0.28,0.25,0.65,0.44,1.13,0.55
						s0.96,0.17,1.46,0.17c0.85,0,1.52-0.17,2.01-0.52c0.48-0.35,0.73-0.8,0.73-1.36c0-0.53-0.2-0.96-0.6-1.31
						c-0.4-0.34-1.17-0.64-2.29-0.89c-1.6-0.35-2.81-0.83-3.63-1.43c-0.81-0.6-1.22-1.42-1.22-2.44c0-1.07,0.46-1.99,1.37-2.75
						c0.92-0.76,2.11-1.14,3.57-1.14c1,0,1.9,0.13,2.7,0.39c0.8,0.26,1.46,0.62,1.99,1.09L276.07,819.02z"/>
					
						<linearGradient id="SVGID_8_" gradientUnits="userSpaceOnUse" x1="216.7217" y1="258.55" x2="304.4858" y2="258.55" gradientTransform="matrix(1 0 0 -1 0 1080)">
						<stop  offset="0" style="stop-color:#FFFFFF"/>
						<stop  offset="1" style="stop-color:#000000"/>
					</linearGradient>
					<path class="st37" d="M288.82,819.02h-1.81l-0.39-1.59c-0.29-0.28-0.66-0.5-1.1-0.67s-0.95-0.25-1.51-0.25
						c-0.85,0-1.49,0.19-1.9,0.56c-0.42,0.37-0.62,0.83-0.62,1.35c0,0.52,0.18,0.93,0.55,1.23s1.11,0.57,2.23,0.8
						c1.67,0.36,2.91,0.84,3.72,1.46s1.22,1.44,1.22,2.47c0,1.17-0.47,2.12-1.42,2.84c-0.95,0.72-2.19,1.09-3.72,1.09
						c-1,0-1.9-0.12-2.7-0.35c-0.8-0.23-1.51-0.57-2.14-1.01l-0.01-3.01h1.81l0.45,1.77c0.28,0.25,0.65,0.44,1.13,0.55
						s0.96,0.17,1.46,0.17c0.85,0,1.52-0.17,2.01-0.52c0.48-0.35,0.73-0.8,0.73-1.36c0-0.53-0.2-0.96-0.6-1.31
						c-0.4-0.34-1.17-0.64-2.29-0.89c-1.6-0.35-2.81-0.83-3.63-1.43c-0.81-0.6-1.22-1.42-1.22-2.44c0-1.07,0.46-1.99,1.37-2.75
						c0.92-0.76,2.11-1.14,3.57-1.14c1,0,1.9,0.13,2.7,0.39c0.8,0.26,1.46,0.62,1.99,1.09L288.82,819.02z"/>
				</g>
				<text transform="matrix(1 0 0 1 216.7215 828.0776)" class="st26 st4 st27">Stress</text>
			</g>
		</g>
	</g>
</g>
</svg>
