<?xml version="1.0" encoding="utf-8"?>
<!-- Generator: Adobe Illustrator 24.2.1, SVG Export Plug-In . SVG Version: 6.00 Build 0)  -->
<svg version="1.1" id="Layer_1" xmlns="http://www.w3.org/2000/svg" xmlns:xlink="http://www.w3.org/1999/xlink" x="0px" y="0px"
	 viewBox="0 0 1920 1080" enable-background="new 0 0 1920 1080" xml:space="preserve">
<g id="question2-plot">
	<g id="question2-background">
		<line fill="none" stroke="#EFEFEF" stroke-miterlimit="10" x1="404.41" y1="855.37" x2="404.41" y2="241.88"/>
		<line fill="none" stroke="#EFEFEF" stroke-miterlimit="10" x1="1404.82" y1="855.37" x2="1404.82" y2="244.33"/>
		<line fill="none" stroke="#EFEFEF" stroke-miterlimit="10" x1="1154.72" y1="855.37" x2="1154.72" y2="243.3"/>
		<line fill="none" stroke="#EFEFEF" stroke-miterlimit="10" x1="904.62" y1="855.37" x2="904.62" y2="241.88"/>
		<line fill="none" stroke="#EFEFEF" stroke-miterlimit="10" x1="654.51" y1="855.37" x2="654.51" y2="241.88"/>
		
			<line fill="none" stroke="#EFEFEF" stroke-width="5.1437" stroke-miterlimit="10" x1="154.31" y1="702" x2="1477.77" y2="701.92"/>
		
			<line fill="none" stroke="#EFEFEF" stroke-width="5.1437" stroke-miterlimit="10" x1="154.31" y1="241.88" x2="1477.75" y2="241.88"/>
		
			<line fill="none" stroke="#707070" stroke-width="5.1437" stroke-miterlimit="10" x1="154.31" y1="855.45" x2="1477.75" y2="855.45"/>
		
			<line fill="none" stroke="#EFEFEF" stroke-width="5.1437" stroke-miterlimit="10" x1="154.31" y1="395.26" x2="1480.13" y2="393.01"/>
		
			<line fill="none" stroke="#EFEFEF" stroke-width="1.0287" stroke-miterlimit="10" x1="154.31" y1="321.14" x2="1480.13" y2="318.89"/>
		
			<line fill="none" stroke="#EFEFEF" stroke-width="1.0287" stroke-miterlimit="10" x1="154.31" y1="474.09" x2="1480.13" y2="471.84"/>
		
			<line fill="none" stroke="#EFEFEF" stroke-width="1.0287" stroke-miterlimit="10" x1="154.31" y1="626.44" x2="1480.13" y2="624.19"/>
		
			<line fill="none" stroke="#EFEFEF" stroke-width="1.0287" stroke-miterlimit="10" x1="154.31" y1="780.82" x2="1480.13" y2="778.57"/>
		
			<line fill="none" stroke="#EFEFEF" stroke-width="5.1437" stroke-miterlimit="10" x1="154.31" y1="548.63" x2="1477.77" y2="547.07"/>
		<text transform="matrix(1 0 0 1 85.3477 208.6956)"><tspan x="0" y="0" font-family="'RobotoSlab-Regular'" font-size="22.5px">Maximum</tspan><tspan x="0" y="22.5" font-family="'RobotoSlab-Regular'" font-size="22.5px">Stress</tspan></text>
		<text transform="matrix(1 0 0 1 85.3477 879.0979)"><tspan x="0" y="0" font-family="'RobotoSlab-Regular'" font-size="22.5px">No</tspan><tspan x="0" y="22.5" font-family="'RobotoSlab-Regular'" font-size="22.5px">Stress</tspan></text>
		<g>
			<g>
				<line fill="none" stroke="#707070" stroke-width="5" stroke-miterlimit="10" x1="103.31" y1="855.37" x2="103.31" y2="852.87"/>
				
					<line fill="none" stroke="#707070" stroke-width="5" stroke-miterlimit="10" stroke-dasharray="4.9876,9.9753" x1="103.31" y1="842.9" x2="103.31" y2="249.37"/>
				<line fill="none" stroke="#707070" stroke-width="5" stroke-miterlimit="10" x1="103.31" y1="244.38" x2="103.31" y2="241.88"/>
			</g>
		</g>
		<polygon fill="#707070" points="103.31,241.88 91.69,273.54 114.92,273.54 		"/>
		<line fill="none" stroke="#626262" stroke-width="5" stroke-miterlimit="10" x1="85.35" y1="241.88" x2="139.72" y2="241.88"/>
		<line fill="none" stroke="#626262" stroke-width="5" stroke-miterlimit="10" x1="85.35" y1="855.37" x2="139.72" y2="855.37"/>
		<rect id="Rectangle_62" x="154.31" y="855.37" fill="#626262" width="1325.83" height="47.67"/>
		<text transform="matrix(1 0 0 1 180.5825 876.9973)" enable-background="new    "><tspan x="0" y="0" fill="#FFFFFF" font-family="'RobotoSlab-Bold'" font-size="15px">PROVIDED </tspan><tspan x="0" y="18" fill="#FFFFFF" font-family="'RobotoSlab-Bold'" font-size="15px">COMPONENTS</tspan></text>
		<text transform="matrix(1 0 0 1 357.5122 884.6204)" fill="#F2F2F2" font-family="'RobotoSlab-Regular'" font-size="15px">Presentations</text>
		<text transform="matrix(1 0 0 1 620.3501 884.6204)" fill="#F2F2F2" font-family="'RobotoSlab-Regular'" font-size="15px">Homework</text>
		<text transform="matrix(1 0 0 1 875.4419 884.6204)" fill="#F2F2F2" font-family="'RobotoSlab-Regular'" font-size="15px">Projects</text>
		<text transform="matrix(1 0 0 1 1122.436 884.6204)" fill="#F2F2F2" font-family="'RobotoSlab-Regular'" font-size="15px">Quizzes</text>
		<text transform="matrix(1 0 0 1 1343.7241 884.6204)" fill="#F2F2F2" font-family="'RobotoSlab-Regular'" font-size="15px">Mid-terms/Finals</text>
		<g>
			<g>
				<line fill="none" stroke="#FFFFFF" stroke-miterlimit="10" x1="307.32" y1="853.88" x2="307.32" y2="854.38"/>
				
					<line fill="none" stroke="#FFFFFF" stroke-miterlimit="10" stroke-dasharray="1.0853,10.8532" x1="307.32" y1="865.23" x2="307.32" y2="895.62"/>
				<line fill="none" stroke="#FFFFFF" stroke-miterlimit="10" x1="307.32" y1="901.04" x2="307.32" y2="901.54"/>
			</g>
		</g>
	</g>
	<g id="question2-general">
		<circle opacity="0.3" fill="#626262" cx="654.51" cy="701.92" r="68.76"/>
		<circle opacity="0.3" fill="#626262" cx="404.41" cy="824.7" r="30.75"/>
		<circle opacity="0.3" fill="#626262" cx="404.41" cy="732.67" r="30.75"/>
		<circle opacity="0.3" fill="#626262" cx="404.41" cy="442.22" r="30.75"/>
		<circle opacity="0.3" fill="#626262" cx="404.41" cy="778.37" r="43.49"/>
		<circle opacity="0.3" fill="#626262" cx="404.41" cy="809.12" r="30.75"/>
		<circle opacity="0.3" fill="#626262" cx="654.51" cy="671.17" r="53.26"/>
		<circle opacity="0.3" fill="#626262" cx="654.51" cy="241.88" r="30.75"/>
		<circle opacity="0.3" fill="#626262" cx="655.2" cy="500.79" r="30.75"/>
		<circle opacity="0.3" fill="#626262" cx="654.51" cy="517.88" r="30.75"/>
		<circle opacity="0.3" fill="#626262" cx="655.2" cy="548.63" r="61.5"/>
		<circle opacity="0.3" fill="#626262" cx="654.51" cy="594.49" r="43.49"/>
		<circle opacity="0.3" fill="#626262" cx="654.51" cy="625.24" r="30.75"/>
		<circle opacity="0.3" fill="#626262" cx="654.51" cy="655.99" r="30.75"/>
		<circle opacity="0.3" fill="#626262" cx="654.51" cy="732.67" r="30.75"/>
		<circle opacity="0.3" fill="#626262" cx="655.2" cy="778.37" r="43.49"/>
		<circle opacity="0.3" fill="#626262" cx="1154.72" cy="655.99" r="30.75"/>
		<circle opacity="0.3" fill="#626262" cx="1154.72" cy="701.92" r="68.76"/>
		<circle opacity="0.3" fill="#626262" cx="1154.72" cy="778.37" r="30.75"/>
		<circle opacity="0.3" fill="#626262" cx="904.62" cy="241.88" r="30.75"/>
		<circle opacity="0.3" fill="#626262" cx="904.62" cy="472.97" r="30.75"/>
		<circle opacity="0.3" fill="#626262" cx="904.62" cy="594.64" r="43.49"/>
		<circle opacity="0.3" fill="#626262" cx="904.62" cy="611.66" r="30.75"/>
		<circle opacity="0.3" fill="#626262" cx="904.62" cy="625.31" r="53.25"/>
		<circle opacity="0.3" fill="#626262" cx="904.62" cy="701.92" r="61.5"/>
		<circle opacity="0.3" fill="#626262" cx="904.62" cy="732.67" r="30.75"/>
		<circle opacity="0.3" fill="#626262" cx="904.62" cy="748.94" r="30.75"/>
		<circle opacity="0.3" fill="#626262" cx="904.62" cy="548.63" r="43.49"/>
		<circle opacity="0.3" fill="#626262" cx="904.62" cy="395.33" r="61.5"/>
		<circle opacity="0.3" fill="#626262" cx="904.62" cy="287.82" r="43.49"/>
		<circle opacity="0.3" fill="#626262" cx="1154.72" cy="671.17" r="43.49"/>
		<circle opacity="0.3" fill="#626262" cx="1404.82" cy="379.92" r="30.75"/>
		<circle opacity="0.3" fill="#626262" cx="1404.82" cy="395.33" r="75.32"/>
		<circle opacity="0.3" fill="#626262" cx="1404.82" cy="425.93" r="30.75"/>
		<circle opacity="0.3" fill="#626262" cx="1404.82" cy="531.54" r="30.75"/>
		<circle opacity="0.3" fill="#626262" cx="1404.82" cy="624.18" r="30.75"/>
		<circle opacity="0.3" fill="#626262" cx="1154.72" cy="379.92" r="30.75"/>
		<circle opacity="0.3" fill="#626262" cx="1154.72" cy="580.91" r="30.75"/>
		<circle opacity="0.3" fill="#626262" cx="1154.72" cy="593.43" r="30.75"/>
		<circle opacity="0.3" fill="#626262" cx="1154.72" cy="625.31" r="43.49"/>
		<circle opacity="0.3" fill="#626262" cx="1154.72" cy="548.63" r="68.76"/>
		<circle opacity="0.3" fill="#626262" cx="1154.72" cy="472.97" r="53.25"/>
		<circle opacity="0.3" fill="#626262" cx="1404.82" cy="472.97" r="43.49"/>
		<circle opacity="0.3" fill="#626262" cx="1404.82" cy="318.57" r="30.75"/>
		<circle opacity="0.3" fill="#626262" cx="1404.82" cy="272.63" r="43.49"/>
		<circle opacity="0.3" fill="#626262" cx="1404.82" cy="244.33" r="81.36"/>
		<circle opacity="0.3" fill="#626262" cx="404.41" cy="701.92" r="53.26"/>
		<circle opacity="0.3" fill="#626262" cx="404.41" cy="624.18" r="53.26"/>
		<circle opacity="0.3" fill="#626262" cx="404.41" cy="548.32" r="61.5"/>
		<circle opacity="0.3" fill="#626262" cx="404.41" cy="472.97" r="43.49"/>
		<circle opacity="0.3" fill="#626262" cx="404.41" cy="394.81" r="30.75"/>
		<circle opacity="0.3" fill="#626262" cx="404.41" cy="318.57" r="30.75"/>
	</g>
	<g id="question2-persona4" opacity="0.5">
		<g>
			<g id="a5p1_7_">
				<circle fill="#64CA29" cx="1404.82" cy="241.88" r="30.75"/>
				<circle fill="#64CA29" cx="1404.82" cy="393.01" r="43.49"/>
				<circle fill="#64CA29" cx="1404.82" cy="531.54" r="30.75"/>
				<circle fill="#64CA29" cx="1404.82" cy="624.18" r="30.75"/>
			</g>
			<g id="a4p1_7_">
				<circle fill="#64CA29" cx="1154.7" cy="549.33" r="30.75"/>
				<circle fill="#64CA29" cx="1154.72" cy="656.06" r="30.75"/>
				<circle fill="#64CA29" cx="1154.72" cy="671.25" r="30.75"/>
				<circle fill="#64CA29" cx="1154.72" cy="701.76" r="43.49"/>
			</g>
			<g id="a3p1_7_">
				<circle fill="#64CA29" cx="904.62" cy="548.63" r="30.75"/>
				<circle fill="#64CA29" cx="904.62" cy="609.98" r="30.75"/>
				<circle fill="#64CA29" cx="904.62" cy="625.31" r="43.49"/>
				<circle fill="#64CA29" cx="904.62" cy="748.94" r="30.75"/>
			</g>
			<g id="a2p1_7_">
				<circle fill="#64CA29" cx="654.51" cy="594.49" r="30.75"/>
				<circle fill="#64CA29" cx="654.51" cy="654.93" r="30.75"/>
				<circle fill="#64CA29" cx="655.2" cy="671.17" r="30.75"/>
				<circle fill="#64CA29" cx="654.51" cy="702" r="30.75"/>
				<circle fill="#64CA29" cx="654.51" cy="732.67" r="30.75"/>
			</g>
			<g id="a1p1_7_">
				<circle fill="#64CA29" cx="404.41" cy="732.67" r="30.75"/>
				<circle fill="#64CA29" cx="404.41" cy="701.92" r="43.49"/>
				<circle fill="#64CA29" cx="404.41" cy="395.33" r="30.75"/>
				<circle fill="#64CA29" cx="404.41" cy="624.18" r="30.75"/>
			</g>
		</g>
		<g>
			<g id="a5p1_6_">
				<circle opacity="0.6" fill="#8BBA35" cx="1404.82" cy="241.88" r="30.75"/>
				<circle opacity="0.6" fill="#8BBA35" cx="1404.82" cy="393.01" r="43.49"/>
				<circle opacity="0.6" fill="#8BBA35" cx="1404.82" cy="531.54" r="30.75"/>
				<circle opacity="0.6" fill="#8BBA35" cx="1404.82" cy="624.18" r="30.75"/>
			</g>
			<g id="a4p1_6_">
				<circle opacity="0.6" fill="#8BBA35" cx="1154.7" cy="549.33" r="30.75"/>
				<circle opacity="0.6" fill="#8BBA35" cx="1154.72" cy="656.06" r="30.75"/>
				<circle opacity="0.6" fill="#8BBA35" cx="1154.72" cy="671.25" r="30.75"/>
				<circle opacity="0.6" fill="#8BBA35" cx="1154.72" cy="701.76" r="43.49"/>
			</g>
			<g id="a3p1_6_">
				<circle opacity="0.6" fill="#8BBA35" cx="904.62" cy="548.63" r="30.75"/>
				<circle opacity="0.6" fill="#8BBA35" cx="904.62" cy="609.98" r="30.75"/>
				<circle opacity="0.6" fill="#8BBA35" cx="904.62" cy="625.31" r="43.49"/>
				<circle opacity="0.6" fill="#8BBA35" cx="904.62" cy="748.94" r="30.75"/>
			</g>
			<g id="a2p1_6_">
				<circle opacity="0.6" fill="#8BBA35" cx="654.51" cy="594.49" r="30.75"/>
				<circle opacity="0.6" fill="#8BBA35" cx="654.51" cy="654.93" r="30.75"/>
				<circle opacity="0.6" fill="#8BBA35" cx="655.2" cy="671.17" r="30.75"/>
				<circle opacity="0.6" fill="#8BBA35" cx="654.51" cy="702" r="30.75"/>
				<circle opacity="0.6" fill="#8BBA35" cx="654.51" cy="732.67" r="30.75"/>
			</g>
			<g id="a1p1_6_">
				<circle opacity="0.6" fill="#8BBA35" cx="404.41" cy="732.67" r="30.75"/>
				<circle opacity="0.6" fill="#8BBA35" cx="404.41" cy="701.92" r="43.49"/>
				<circle opacity="0.6" fill="#8BBA35" cx="404.41" cy="395.33" r="30.75"/>
				<circle opacity="0.6" fill="#8BBA35" cx="404.41" cy="624.18" r="30.75"/>
			</g>
		</g>
	</g>
	<g id="question2-persona3" opacity="0.5">
		<g>
			<g id="a5p3_7_">
				<circle fill="#4CB9A6" cx="1405.77" cy="241.88" r="30.75"/>
				<circle fill="#4CB9A6" cx="1405.77" cy="274.05" r="30.75"/>
				<circle fill="#4CB9A6" cx="1404.82" cy="318.57" r="30.75"/>
				<circle fill="#4CB9A6" cx="1404.82" cy="393.01" r="43.49"/>
				<circle fill="#4CB9A6" cx="1404.82" cy="425.56" r="30.75"/>
				<circle fill="#4CB9A6" cx="1404.82" cy="472.97" r="30.75"/>
			</g>
			<g id="a4p3_7_">
				<circle fill="#4CB9A6" cx="1154.72" cy="547.38" r="30.75"/>
				<circle fill="#4CB9A6" cx="1154.72" cy="579.38" r="30.75"/>
				<circle fill="#4CB9A6" cx="1154.72" cy="625.31" r="43.49"/>
				<circle fill="#4CB9A6" cx="1154.72" cy="701.94" r="53.26"/>
			</g>
			<g id="a3p3_7_">
				<circle fill="#4CB9A6" cx="904.62" cy="287.66" r="43.49"/>
				<circle fill="#4CB9A6" cx="904.62" cy="393.91" r="43.49"/>
				<circle fill="#4CB9A6" cx="904.62" cy="594.48" r="30.75"/>
				<circle fill="#4CB9A6" cx="904.62" cy="701.76" r="30.75"/>
				<circle fill="#4CB9A6" cx="904.62" cy="732.51" r="30.75"/>
			</g>
			<g id="a2p3_7_">
				<circle fill="#4CB9A6" cx="654.51" cy="551" r="53.26"/>
				<circle fill="#4CB9A6" cx="654.51" cy="702" r="43.49"/>
				<circle fill="#4CB9A6" cx="655.2" cy="671.17" r="30.75"/>
				<circle fill="#4CB9A6" cx="654.51" cy="779.67" r="30.75"/>
			</g>
			<g id="a1p3_7_">
				<circle fill="#4CB9A6" cx="404.41" cy="625.31" r="30.75"/>
				<circle fill="#4CB9A6" cx="404.41" cy="824.7" r="30.75"/>
				<circle fill="#4CB9A6" cx="403.83" cy="548.63" r="53.26"/>
				<circle fill="#4CB9A6" cx="403.83" cy="809.12" r="30.75"/>
			</g>
		</g>
		<g>
			<g id="a5p3_6_">
				<circle opacity="0.6" fill="#7FC8BB" cx="1405.77" cy="241.88" r="30.75"/>
				<circle opacity="0.6" fill="#7FC8BB" cx="1405.77" cy="274.05" r="30.75"/>
				<circle opacity="0.6" fill="#7FC8BB" cx="1404.82" cy="318.57" r="30.75"/>
				<circle opacity="0.6" fill="#7FC8BB" cx="1404.82" cy="393.01" r="43.49"/>
				<circle opacity="0.6" fill="#7FC8BB" cx="1404.82" cy="425.56" r="30.75"/>
				<circle opacity="0.6" fill="#7FC8BB" cx="1404.82" cy="472.97" r="30.75"/>
			</g>
			<g id="a4p3_6_">
				<circle opacity="0.6" fill="#7FC8BB" cx="1154.72" cy="547.38" r="30.75"/>
				<circle opacity="0.6" fill="#7FC8BB" cx="1154.72" cy="579.38" r="30.75"/>
				<circle opacity="0.6" fill="#7FC8BB" cx="1154.72" cy="625.31" r="43.49"/>
				<circle opacity="0.6" fill="#7FC8BB" cx="1154.72" cy="701.94" r="53.26"/>
			</g>
			<g id="a3p3_6_">
				<circle opacity="0.6" fill="#7FC8BB" cx="904.62" cy="287.66" r="43.49"/>
				<circle opacity="0.6" fill="#7FC8BB" cx="904.62" cy="393.91" r="43.49"/>
				<circle opacity="0.6" fill="#7FC8BB" cx="904.62" cy="594.48" r="30.75"/>
				<circle opacity="0.6" fill="#7FC8BB" cx="904.62" cy="701.76" r="30.75"/>
				<circle opacity="0.6" fill="#7FC8BB" cx="904.62" cy="732.51" r="30.75"/>
			</g>
			<g id="a2p3_6_">
				<circle opacity="0.6" fill="#7FC8BB" cx="654.51" cy="551" r="53.26"/>
				<circle opacity="0.6" fill="#7FC8BB" cx="654.51" cy="702" r="43.49"/>
				<circle opacity="0.6" fill="#7FC8BB" cx="655.2" cy="671.17" r="30.75"/>
				<circle opacity="0.6" fill="#7FC8BB" cx="654.51" cy="779.67" r="30.75"/>
			</g>
			<g id="a1p3_6_">
				<circle opacity="0.6" fill="#7FC8BB" cx="404.41" cy="625.31" r="30.75"/>
				<circle opacity="0.6" fill="#7FC8BB" cx="404.41" cy="824.7" r="30.75"/>
				<circle opacity="0.6" fill="#7FC8BB" cx="403.83" cy="548.63" r="53.26"/>
				<circle opacity="0.6" fill="#7FC8BB" cx="403.83" cy="809.12" r="30.75"/>
			</g>
		</g>
	</g>
	<g id="question2-persona2" opacity="0.5">
		<g>
			<g id="a5p4_7_">
				<circle fill="#FFAB3F" cx="1404.82" cy="238.56" r="43.49"/>
				<circle fill="#FFAB3F" cx="1404.82" cy="272.63" r="30.75"/>
				<circle fill="#FFAB3F" cx="1404.82" cy="393.01" r="30.75"/>
				<circle fill="#FFAB3F" cx="1404.82" cy="472.97" r="30.75"/>
			</g>
			<g id="a4p4_7_">
				<circle fill="#FFAB3F" cx="1154.72" cy="472.97" r="43.49"/>
				<circle fill="#FFAB3F" cx="1154.72" cy="547.38" r="43.49"/>
				<circle fill="#FFAB3F" cx="1154.72" cy="778.37" r="30.75"/>
			</g>
			<g id="a3p4_7_">
				<circle fill="#FFAB3F" cx="904.62" cy="241.88" r="30.75"/>
				<circle fill="#FFAB3F" cx="904.62" cy="393.91" r="30.75"/>
				<circle fill="#FFAB3F" cx="904.62" cy="472.97" r="30.75"/>
				<circle fill="#FFAB3F" cx="904.62" cy="549.33" r="30.75"/>
				<circle fill="#FFAB3F" cx="904.62" cy="594.48" r="30.75"/>
			</g>
			<g id="a2p4_7_">
				<circle fill="#FFAB3F" cx="654.51" cy="241.88" r="30.75"/>
				<circle fill="#FFAB3F" cx="654.51" cy="548.63" r="30.75"/>
				<circle fill="#FFAB3F" cx="654.51" cy="593.43" r="30.75"/>
				<circle fill="#FFAB3F" cx="654.51" cy="624.18" r="30.75"/>
				<circle fill="#FFAB3F" cx="654.51" cy="702" r="30.75"/>
			</g>
			<g id="a1p4_7_">
				<circle fill="#FFAB3F" cx="404.41" cy="318.57" r="30.75"/>
				<circle fill="#FFAB3F" cx="404.41" cy="548.31" r="30.75"/>
				<circle fill="#FFAB3F" cx="404.41" cy="701.92" r="30.75"/>
				<circle fill="#FFAB3F" cx="404.41" cy="778.37" r="30.75"/>
			</g>
		</g>
		<g>
			<g id="a5p4_6_">
				<circle opacity="0.6" fill="#F8AB1D" cx="1404.82" cy="238.56" r="43.49"/>
				<circle opacity="0.6" fill="#F8AB1D" cx="1404.82" cy="272.63" r="30.75"/>
				<circle opacity="0.6" fill="#F8AB1D" cx="1404.82" cy="393.01" r="30.75"/>
				<circle opacity="0.6" fill="#F8AB1D" cx="1404.82" cy="472.97" r="30.75"/>
			</g>
			<g id="a4p4_6_">
				<circle opacity="0.6" fill="#F8AB1D" cx="1154.72" cy="472.97" r="43.49"/>
				<circle opacity="0.6" fill="#F8AB1D" cx="1154.72" cy="547.38" r="43.49"/>
				<circle opacity="0.6" fill="#F8AB1D" cx="1154.72" cy="778.37" r="30.75"/>
			</g>
			<g id="a3p4_6_">
				<circle opacity="0.6" fill="#F8AB1D" cx="904.62" cy="241.88" r="30.75"/>
				<circle opacity="0.6" fill="#F8AB1D" cx="904.62" cy="393.91" r="30.75"/>
				<circle opacity="0.6" fill="#F8AB1D" cx="904.62" cy="472.97" r="30.75"/>
				<circle opacity="0.6" fill="#F8AB1D" cx="904.62" cy="549.33" r="30.75"/>
				<circle opacity="0.6" fill="#F8AB1D" cx="904.62" cy="594.48" r="30.75"/>
			</g>
			<g id="a2p4_6_">
				<circle opacity="0.6" fill="#F8AB1D" cx="654.51" cy="241.88" r="30.75"/>
				<circle opacity="0.6" fill="#F8AB1D" cx="654.51" cy="548.63" r="30.75"/>
				<circle opacity="0.6" fill="#F8AB1D" cx="654.51" cy="593.43" r="30.75"/>
				<circle opacity="0.6" fill="#F8AB1D" cx="654.51" cy="624.18" r="30.75"/>
				<circle opacity="0.6" fill="#F8AB1D" cx="654.51" cy="702" r="30.75"/>
			</g>
			<g id="a1p4_6_">
				<circle opacity="0.6" fill="#F8AB1D" cx="404.41" cy="318.57" r="30.75"/>
				<circle opacity="0.6" fill="#F8AB1D" cx="404.41" cy="548.31" r="30.75"/>
				<circle opacity="0.6" fill="#F8AB1D" cx="404.41" cy="701.92" r="30.75"/>
				<circle opacity="0.6" fill="#F8AB1D" cx="404.41" cy="778.37" r="30.75"/>
			</g>
		</g>
	</g>
	<g id="question2-persona1" opacity="0.5">
		<g>
			<g id="a5p2_7_">
				<circle fill="#F05F4B" cx="1404.82" cy="241.88" r="53.26"/>
				<circle fill="#F05F4B" cx="1404.82" cy="379.92" r="30.75"/>
				<circle fill="#F05F4B" cx="1404.22" cy="388.49" r="30.75"/>
			</g>
			<g id="a4p2_7_">
				<circle fill="#F05F4B" cx="1154.72" cy="379.92" r="30.75"/>
				<circle fill="#F05F4B" cx="1154.72" cy="470.65" r="30.75"/>
				<circle fill="#F05F4B" cx="1154.72" cy="547.38" r="30.75"/>
				<circle fill="#F05F4B" cx="1154.72" cy="592.11" r="30.75"/>
				<circle fill="#F05F4B" cx="1154.72" cy="671.8" r="30.75"/>
			</g>
			<g id="a3p2_7_">
				<circle fill="#F05F4B" cx="904.62" cy="627.69" r="30.75"/>
				<circle fill="#F05F4B" cx="904.62" cy="702" r="53.26"/>
				<circle fill="#F05F4B" cx="904.62" cy="393.91" r="30.75"/>
			</g>
			<g id="a2p2_7_">
				<circle fill="#F05F4B" cx="655.2" cy="500.79" r="30.75"/>
				<circle fill="#F05F4B" cx="654.51" cy="517.88" r="30.75"/>
				<circle fill="#F05F4B" cx="655.2" cy="671.17" r="30.75"/>
				<circle fill="#F05F4B" cx="654.51" cy="702" r="30.75"/>
				<circle fill="#F05F4B" cx="654.51" cy="779.67" r="30.75"/>
			</g>
			<g id="a1p2_7_">
				<circle fill="#F05F4B" cx="404.41" cy="472.97" r="43.49"/>
				<circle fill="#F05F4B" cx="404.41" cy="442.22" r="30.75"/>
				<circle fill="#F05F4B" cx="404.41" cy="624.18" r="30.75"/>
				<circle fill="#F05F4B" cx="404.41" cy="779.67" r="30.75"/>
			</g>
		</g>
		<g>
			<g id="a5p2_6_">
				<circle opacity="0.6" fill="#FB9482" cx="1404.82" cy="241.88" r="53.26"/>
				<circle opacity="0.6" fill="#FB9482" cx="1404.82" cy="379.92" r="30.75"/>
				<circle opacity="0.6" fill="#FB9482" cx="1404.22" cy="388.49" r="30.75"/>
			</g>
			<g id="a4p2_6_">
				<circle opacity="0.6" fill="#FB9482" cx="1154.72" cy="379.92" r="30.75"/>
				<circle opacity="0.6" fill="#FB9482" cx="1154.72" cy="470.65" r="30.75"/>
				<circle opacity="0.6" fill="#FB9482" cx="1154.72" cy="547.38" r="30.75"/>
				<circle opacity="0.6" fill="#FB9482" cx="1154.72" cy="592.11" r="30.75"/>
				<circle opacity="0.6" fill="#FB9482" cx="1154.72" cy="671.8" r="30.75"/>
			</g>
			<g id="a3p2_6_">
				<circle opacity="0.6" fill="#FB9482" cx="904.62" cy="627.69" r="30.75"/>
				<circle opacity="0.6" fill="#FB9482" cx="904.62" cy="702" r="53.26"/>
				<circle opacity="0.6" fill="#FB9482" cx="904.62" cy="393.91" r="30.75"/>
			</g>
			<g id="a2p2_6_">
				<circle opacity="0.6" fill="#FB9482" cx="655.2" cy="500.79" r="30.75"/>
				<circle opacity="0.6" fill="#FB9482" cx="654.51" cy="517.88" r="30.75"/>
				<circle opacity="0.6" fill="#FB9482" cx="655.2" cy="671.17" r="30.75"/>
				<circle opacity="0.6" fill="#FB9482" cx="654.51" cy="702" r="30.75"/>
				<circle opacity="0.6" fill="#FB9482" cx="654.51" cy="779.67" r="30.75"/>
			</g>
			<g id="a1p2_6_">
				<circle opacity="0.6" fill="#FB9482" cx="404.41" cy="472.97" r="43.49"/>
				<circle opacity="0.6" fill="#FB9482" cx="404.41" cy="442.22" r="30.75"/>
				<circle opacity="0.6" fill="#FB9482" cx="404.41" cy="624.18" r="30.75"/>
				<circle opacity="0.6" fill="#FB9482" cx="404.41" cy="779.67" r="30.75"/>
			</g>
		</g>
	</g>
</g>
<g id="question2-control-panel">
	<g id="question2-persona-avatar-p4">
		<g id="question2-avatar-p4" transform="translate(0.488 582)">
			<rect id="question2-avatar-background-p4" x="1575.37" y="91.58" fill="#9EC753" width="106" height="106"/>
			<g id="question2-avatar-front-p4" transform="translate(18.543 12.339)">
				<g id="Group_11_1_" transform="translate(0 4.846)">
					<path id="Path_2_1_" fill="#D9D9D8" d="M1644.28,178.67h-68.9c-0.57-12,14.86-29.41,33.88-29.41S1643.72,166.67,1644.28,178.67
						z"/>
					<ellipse id="Ellipse_1_1_" fill="#D9D9D8" cx="1609.22" cy="117.75" rx="26.17" ry="26.17"/>
				</g>
				<path id="Path_3_1_" fill="#737374" d="M1609.15,91.58c-20.09,0-35.88,14.86-27.74,37.36h2.97l-0.62-8.83h9.79l2.94-11.78
					l-1.68,11.78h2.16l2.36-11.78l0.11,11.78h16.85l1.15-9.85l3.96,9.85h13.54l-1.12,8.83h2.78
					C1645.89,104.99,1627.09,91.58,1609.15,91.58z"/>
			</g>
		</g>
		<g id="question2-avatar-hover-cover-p4">
			<g opacity="0.7">
				<rect x="1578.36" y="676.08" fill="#FFFFFF" width="101" height="101"/>
				<path fill="#E2EECC" d="M1676.86,678.58v96h-96v-96H1676.86 M1681.86,673.58h-106v106h106V673.58L1681.86,673.58z"/>
			</g>
			<text transform="matrix(1 0 0 1 1579.0601 708.0434)"><tspan x="0" y="0" fill="#231F20" font-family="'RobotoSlab-Light'" font-size="26px">TYPE IV</tspan><tspan x="24.15" y="32" fill="#231F20" font-family="'RobotoSlab-Regular'" font-size="26px">Low</tspan><tspan x="11.5" y="60" fill="#231F20" font-family="'RobotoSlab-Regular'" font-size="26px">Stress</tspan></text>
		</g>
	</g>
	<g id="question2-persona-avatar-p3">
		<g id="question2-avatar-p3" transform="translate(0.496 437)">
			<rect id="question2-avatar-background-p3" x="1575.36" y="91.58" fill="#7EC7BA" width="106" height="106"/>
			<g id="question2-avatar-front-p3" transform="translate(17.996 3.369)">
				<g id="Group_17_1_" transform="translate(1.094 13.816)">
					<path id="Path_6_1_" fill="#D9D9D8" d="M1644.28,178.67h-68.9c-0.57-12,14.86-29.41,33.88-29.41S1643.71,166.67,1644.28,178.67
						z"/>
					<ellipse id="Ellipse_3_1_" fill="#D9D9D8" cx="1609.22" cy="117.75" rx="26.17" ry="26.17"/>
				</g>
				<path id="Path_7_1_" fill="#737374" d="M1632.15,102.37c-3.6-3.71-9.02-7.54-13.95-5.14c-1.27-5.12-6.9-6.26-11.59-5.38
					c-16.03,3.02-26.04,20.83-28.79,35.48c-0.19,1.02-1.2,9.11-2.46,9.21c9.65-0.7,16.67-5.94,21.46-13.54
					c-1.19,2.48-2.01,5.12-2.44,7.84c4.83-2.72,9.18-6.22,12.86-10.35c1.81-2.02,3.48-4.16,4.98-6.42c1.4-2.11,2.51-5.27,4.14-6.97
					c0.63,2.71,1.61,5.32,2.93,7.76c1.03,1.9,5.09,5.49,5.38,7.26c-0.38-2.34-0.75-4.68-1.1-7.02c3.26,9.58,8.16,18.51,14.47,26.42
					c2.42-4.41,3.35-10.43,3.73-15.39c0.62-8.21-2.93-16.02-8.18-22.17C1633.15,103.44,1632.67,102.91,1632.15,102.37z"/>
			</g>
		</g>
		<g id="question2-avatar-hover-cover-p3">
			<g opacity="0.65">
				<rect x="1578.36" y="531.08" fill="#FFFFFF" width="101" height="101"/>
				<path fill="#D2EDE9" d="M1676.86,533.58v96h-96v-96H1676.86 M1681.86,528.58h-106v106h106V528.58L1681.86,528.58z"/>
			</g>
			<text transform="matrix(1 0 0 1 1580.3381 564.0434)"><tspan x="0" y="0" fill="#231F20" font-family="'RobotoSlab-Light'" font-size="26px">TYPE III</tspan><tspan x="22" y="32" fill="#231F20" font-family="'RobotoSlab-Regular'" font-size="26px">Late</tspan><tspan x="18.21" y="60" fill="#231F20" font-family="'RobotoSlab-Regular'" font-size="26px">Peak</tspan></text>
		</g>
	</g>
	<g id="question2-persona-avatar-p2">
		<g id="question2-avatar-p2" transform="translate(0 292)">
			<rect id="question2-avatar-background-p2" x="1576.36" y="91.58" fill="#F6AA1C" width="106" height="106"/>
			<g id="question2-avatar-front-p2" transform="translate(15.093 3.956)">
				<g id="Group_20_1_" transform="translate(3.991 16.603)">
					<path id="Path_8_1_" fill="#D9D9D8" d="M1642.61,175.29h-66.23c-0.55-11.54,14.28-28.27,32.57-28.27
						S1642.06,163.76,1642.61,175.29z"/>
					<ellipse id="Ellipse_4_1_" fill="#D9D9D8" cx="1608.9" cy="116.74" rx="25.15" ry="25.15"/>
				</g>
				<path id="Path_9_1_" fill="#737374" d="M1646.63,120.03c-0.27-0.28,0.43-2.21,0.5-2.61c0.48-2.85,0.24-5.77-0.69-8.51
					c-1.19-3.62-3.73-6.64-7.09-8.44c-3.78-1.96-8.67-2.77-12.41-0.28c0.04-0.13-1.03-7.7-8.64-8.46c-4.3-0.43-8.36,0.98-10.58,4.8
					c-5.63-5.88-15.73-7.16-21.13-0.28c-3.23,4.06-3.51,9.72-0.7,14.07c-4.75,2.86-8.2,6.7-9.23,12.15
					c-1.34,7.04,1.96,15.93,9.27,17.85c0.13,0.03,0.25,0.06,0.37,0.09c0.27,6.51,4.78,12.08,11.09,13.7
					c0.79,0.21,1.59,0.35,2.4,0.43c-11.88-7.21-15.67-22.68-8.46-34.56c0.43-0.71,0.89-1.39,1.39-2.05c0.27,0.03,0.53,0.04,0.8,0.04
					c3.61,0,6.71-2.59,7.35-6.14c2.69,4.01,8.13,5.08,12.14,2.39c1.45-0.97,2.57-2.35,3.23-3.96c-0.04,0.3-0.06,0.6-0.06,0.9
					c-0.01,4.12,3.33,7.47,7.45,7.47c0.91,0,1.81-0.16,2.67-0.49c0.81,5.13,5.57,8.67,10.72,7.97c2.96,10.34-0.98,21.42-9.81,27.56
					c7.81,0.46,18.15-10.41,17.34-19.13c4.45-2.51,6.02-8.15,3.51-12.6C1647.67,121.25,1647.18,120.61,1646.63,120.03
					L1646.63,120.03z M1616.8,108.19L1616.8,108.19L1616.8,108.19z"/>
			</g>
		</g>
		<g id="question2-avatar-hover-cover-p2">
			<g opacity="0.7">
				<rect x="1578.86" y="386.08" fill="#FFFFFF" width="101" height="101"/>
				<path fill="#FDE8C1" d="M1677.36,388.58v96h-96v-96H1677.36 M1682.36,383.58h-106v106h106V383.58L1682.36,383.58z"/>
			</g>
			<text transform="matrix(1 0 0 1 1584.8202 419.0435)"><tspan x="0" y="0" fill="#231F20" font-family="'RobotoSlab-Light'" font-size="26px">TYPE II</tspan><tspan x="12.24" y="32" fill="#231F20" font-family="'RobotoSlab-Regular'" font-size="26px">Early</tspan><tspan x="14.23" y="60" fill="#231F20" font-family="'RobotoSlab-Regular'" font-size="26px">Peak</tspan></text>
		</g>
	</g>
	<g id="question2-persona-avatar-p1">
		<g id="question2-avatar-p1" transform="translate(0.992 147)">
			<rect id="question2-avatar-background-p1" x="1575.32" y="91.46" fill="#F59382" width="106" height="106"/>
			<g id="question2-avatar-front-p1" transform="translate(13.492 0.294)">
				<g id="Group_14_1_" transform="translate(6.294 16.892)">
					<path id="Path_4_1_" fill="#D9D9D8" d="M1644.23,178.54h-68.9c-0.57-12,14.86-29.41,33.88-29.41S1643.67,166.55,1644.23,178.54
						z"/>
					<ellipse id="Ellipse_2_1_" fill="#D9D9D8" cx="1609.18" cy="117.63" rx="26.17" ry="26.17"/>
				</g>
				<path id="Path_5_1_" fill="#737374" d="M1651.43,143.15l-5.84-7.26l8.74-6.3l-10.45-3.5l0,0l6.95-12.69l-14.42-2.72l1.92-12.81
					l-13.03,5.55l-5.98-8.97l-5.54,10.01l-13.04-13l-4.48,17.12l-15.02-3.59l6.69,15.64l-12.6,2.05l9.4,9.79l-4.81,9.4l7.9-0.75
					l-1.07,13.24l9.82-1.71c-4.45-4.69-7.38-10.17-7.38-17.14c-0.01-8.65,4.27-16.74,11.41-21.61l-3.13,5.25l12.01-6.12l-8.11,9.65
					l21.76-8.13l-4.03,5.68l11.99-5.62c0.36,0.27,0.71,0.55,1.05,0.84l-2.32,3.12l4.01-1.57c4.93,4.9,7.7,11.56,7.69,18.51
					c0.22,5.32-1.56,10.53-4.99,14.6L1651.43,143.15z"/>
			</g>
		</g>
		<g id="question2-avatar-hover-cover-p1">
			<g opacity="0.7">
				<rect x="1578.81" y="240.96" fill="#FFFFFF" width="101" height="101"/>
				<path fill="#FADAD4" d="M1677.31,243.46v96h-96v-96H1677.31 M1682.31,238.46h-106v106h106V238.46L1682.31,238.46z"/>
			</g>
			<text transform="matrix(1 0 0 1 1588.7509 272.9205)"><tspan x="0" y="0" fill="#231F20" font-family="'RobotoSlab-Light'" font-size="26px">TYPE I</tspan><tspan x="10.56" y="32" fill="#231F20" font-family="'RobotoSlab-Regular'" font-size="26px">High</tspan><tspan x="2.27" y="60" fill="#231F20" font-family="'RobotoSlab-Regular'" font-size="26px">Stress</tspan></text>
			<rect x="1585.49" y="329.21" fill="none" width="2.24" height="0"/>
		</g>
	</g>
</g>
</svg>
