<?xml version="1.0" encoding="utf-8"?>
<!-- Generator: Adobe Illustrator 24.2.1, SVG Export Plug-In . SVG Version: 6.00 Build 0)  -->
<svg version="1.1" id="Layer_1" xmlns="http://www.w3.org/2000/svg" xmlns:xlink="http://www.w3.org/1999/xlink" x="0px" y="0px"
	 viewBox="0 0 1920 1080" style="enable-background:new 0 0 1920 1080;" xml:space="preserve">
<style type="text/css">
	.st0{font-family:'MyriadPro-Regular';}
	.st1{font-size:76.6863px;}
	.st2{fill:none;stroke:#000000;stroke-miterlimit:10;}
	.st3{fill:none;stroke:#202020;stroke-width:2;stroke-linecap:round;stroke-miterlimit:10;}
	.st4{fill:none;stroke:#9F9F9F;stroke-width:2;stroke-linecap:round;stroke-miterlimit:10;}
	.st5{fill:none;stroke:#404040;stroke-width:2;stroke-linecap:round;stroke-miterlimit:10;}
	.st6{fill:none;stroke:#808080;stroke-width:2;stroke-linecap:round;stroke-miterlimit:10;}
	.st7{fill:none;stroke:#DFDFDF;stroke-width:2;stroke-linecap:round;stroke-miterlimit:10;}
	.st8{fill:none;stroke:#000000;stroke-width:2;stroke-linecap:round;stroke-miterlimit:10;}
	.st9{fill:#202020;stroke:#000000;stroke-width:0.5;stroke-miterlimit:10;}
	.st10{fill:#9F9F9F;stroke:#000000;stroke-width:0.5;stroke-miterlimit:10;}
	.st11{fill:#404040;stroke:#000000;stroke-width:0.5;stroke-miterlimit:10;}
	.st12{fill:#808080;stroke:#000000;stroke-width:0.5;stroke-miterlimit:10;}
	.st13{fill:#DFDFDF;stroke:#000000;stroke-width:0.5;stroke-miterlimit:10;}
	.st14{stroke:#000000;stroke-width:0.5;stroke-miterlimit:10;}
	.st15{opacity:0.45;}
	.st16{opacity:0.6;fill:#9FC855;}
	.st17{opacity:0.6;fill:#FB9482;}
	.st18{opacity:0.6;fill:#7FC8BB;}
	.st19{opacity:0.6;fill:#F8AB1D;}
</style>
<g id="guide">
	<g>
		<g>
			<text transform="matrix(1 0 0 1 101.3115 1007.125)" class="st0 st1">0</text>
			<text transform="matrix(1 0 0 1 434.7822 1007.125)" class="st0 st1">1</text>
			<text transform="matrix(1 0 0 1 768.2534 1007.125)" class="st0 st1">2</text>
			<text transform="matrix(1 0 0 1 1101.7236 1007.125)" class="st0 st1">3</text>
			<text transform="matrix(1 0 0 1 1435.1943 1007.125)" class="st0 st1">4</text>
			<text transform="matrix(1 0 0 1 1768.665 1007.125)" class="st0 st1">5</text>
		</g>
		<line class="st2" x1="120.98" y1="936.83" x2="1788.34" y2="936.83"/>
		<g>
			<g>
				<line class="st2" x1="120.98" y1="936.83" x2="120.98" y2="916.38"/>
				<line class="st2" x1="454.45" y1="936.83" x2="454.45" y2="916.38"/>
				<line class="st2" x1="787.92" y1="936.83" x2="787.92" y2="916.38"/>
				<line class="st2" x1="1121.39" y1="936.83" x2="1121.39" y2="916.38"/>
				<line class="st2" x1="1454.86" y1="936.83" x2="1454.86" y2="916.38"/>
				<line class="st2" x1="1788.34" y1="936.83" x2="1788.34" y2="916.38"/>
			</g>
			<g>
			</g>
		</g>
	</g>
	<g>
		<g>
			<text transform="matrix(1 0 0 1 0.3779 965.5869)" class="st0 st1">0.0</text>
			<text transform="matrix(1 0 0 1 0.3779 863.3379)" class="st0 st1">0.5</text>
			<text transform="matrix(1 0 0 1 0.3779 761.0898)" class="st0 st1">1.0</text>
			<text transform="matrix(1 0 0 1 0.3779 658.8408)" class="st0 st1">1.5</text>
			<text transform="matrix(1 0 0 1 0.3779 556.5928)" class="st0 st1">2.0</text>
			<text transform="matrix(1 0 0 1 0.3779 454.3442)" class="st0 st1">2.5</text>
			<text transform="matrix(1 0 0 1 0.3779 352.0962)" class="st0 st1">3.0</text>
			<text transform="matrix(1 0 0 1 0.3779 249.8477)" class="st0 st1">3.5</text>
			<text transform="matrix(1 0 0 1 0.3779 147.5991)" class="st0 st1">4.0</text>
		</g>
		<line class="st2" x1="120.98" y1="936.83" x2="120.98" y2="118.84"/>
		<g>
			<g>
				<line class="st2" x1="120.98" y1="936.83" x2="162.66" y2="936.83"/>
				<line class="st2" x1="120.98" y1="834.58" x2="162.66" y2="834.58"/>
				<line class="st2" x1="120.98" y1="732.33" x2="162.66" y2="732.33"/>
				<line class="st2" x1="120.98" y1="630.08" x2="162.66" y2="630.08"/>
				<line class="st2" x1="120.98" y1="527.84" x2="162.66" y2="527.84"/>
				<line class="st2" x1="120.98" y1="425.59" x2="162.66" y2="425.59"/>
				<line class="st2" x1="120.98" y1="323.34" x2="162.66" y2="323.34"/>
				<line class="st2" x1="120.98" y1="221.09" x2="162.66" y2="221.09"/>
				<line class="st2" x1="120.98" y1="118.84" x2="162.66" y2="118.84"/>
			</g>
			<g>
			</g>
		</g>
	</g>
	<g>
		<g>
		</g>
		<g>
		</g>
		<g>
		</g>
		<g>
		</g>
		<g>
		</g>
		<g>
		</g>
		<g>
			<g>
				<line class="st3" x1="120.98" y1="936.83" x2="120.98" y2="936.83"/>
				<line class="st3" x1="120.98" y1="936.83" x2="120.98" y2="936.83"/>
				<line class="st3" x1="120.98" y1="936.83" x2="120.98" y2="936.83"/>
				<line class="st3" x1="120.98" y1="936.83" x2="120.98" y2="936.83"/>
				<line class="st3" x1="120.98" y1="936.83" x2="120.98" y2="936.83"/>
				<line class="st3" x1="120.98" y1="936.83" x2="120.98" y2="936.83"/>
				<line class="st3" x1="120.98" y1="936.83" x2="120.98" y2="936.83"/>
				<line class="st3" x1="120.98" y1="936.83" x2="120.98" y2="936.83"/>
				<line class="st3" x1="120.98" y1="936.83" x2="120.98" y2="936.83"/>
				<line class="st3" x1="120.98" y1="936.83" x2="120.98" y2="936.83"/>
				<line class="st3" x1="120.98" y1="936.83" x2="120.98" y2="936.83"/>
				<line class="st3" x1="120.98" y1="936.83" x2="120.98" y2="936.83"/>
				<line class="st3" x1="120.98" y1="936.83" x2="120.98" y2="936.83"/>
				<line class="st3" x1="120.98" y1="936.83" x2="120.98" y2="936.83"/>
				<line class="st3" x1="120.98" y1="936.83" x2="120.98" y2="936.83"/>
				<line class="st3" x1="120.98" y1="936.83" x2="120.98" y2="936.83"/>
				<line class="st3" x1="120.98" y1="936.83" x2="120.98" y2="936.83"/>
				<line class="st3" x1="120.98" y1="936.83" x2="120.98" y2="936.83"/>
				<line class="st3" x1="120.98" y1="936.83" x2="120.98" y2="936.83"/>
				<line class="st3" x1="120.98" y1="936.83" x2="120.98" y2="936.83"/>
				<line class="st3" x1="120.98" y1="936.83" x2="120.98" y2="936.83"/>
			</g>
		</g>
		<g>
			<g>
				<line class="st4" x1="1788.34" y1="630.08" x2="1788.34" y2="503.3"/>
				<line class="st4" x1="1788.34" y1="118.84" x2="1788.34" y2="630.08"/>
				<line class="st4" x1="1788.34" y1="323.34" x2="1788.34" y2="118.84"/>
				<line class="st4" x1="1788.34" y1="323.34" x2="1788.34" y2="323.34"/>
				<line class="st4" x1="1788.34" y1="302.89" x2="1788.34" y2="323.34"/>
				<line class="st4" x1="1788.34" y1="118.84" x2="1788.34" y2="302.89"/>
				<line class="st4" x1="1788.34" y1="118.84" x2="1788.34" y2="118.84"/>
				<line class="st4" x1="1788.34" y1="118.84" x2="1788.34" y2="118.84"/>
				<line class="st4" x1="1788.34" y1="323.34" x2="1788.34" y2="118.84"/>
				<line class="st4" x1="1788.34" y1="364.24" x2="1788.34" y2="323.34"/>
				<line class="st4" x1="1788.34" y1="425.59" x2="1788.34" y2="364.24"/>
				<line class="st4" x1="1788.34" y1="323.34" x2="1788.34" y2="425.59"/>
				<line class="st4" x1="1788.34" y1="323.34" x2="1788.34" y2="323.34"/>
				<line class="st4" x1="1788.34" y1="159.74" x2="1788.34" y2="323.34"/>
				<line class="st4" x1="1788.34" y1="118.84" x2="1788.34" y2="159.74"/>
				<line class="st4" x1="1788.34" y1="221.09" x2="1788.34" y2="118.84"/>
				<line class="st4" x1="1788.34" y1="425.59" x2="1788.34" y2="221.09"/>
				<line class="st4" x1="1788.34" y1="118.84" x2="1788.34" y2="425.59"/>
				<line class="st4" x1="1788.34" y1="118.84" x2="1788.34" y2="118.84"/>
				<line class="st4" x1="1788.34" y1="323.34" x2="1788.34" y2="118.84"/>
				<line class="st4" x1="1788.34" y1="159.74" x2="1788.34" y2="323.34"/>
			</g>
		</g>
		<g>
			<g>
				<line class="st5" x1="1454.86" y1="691.43" x2="1454.86" y2="732.33"/>
				<line class="st5" x1="1454.86" y1="732.33" x2="1454.86" y2="691.43"/>
				<line class="st5" x1="1454.86" y1="527.84" x2="1454.86" y2="732.33"/>
				<line class="st5" x1="1454.86" y1="670.98" x2="1454.86" y2="527.84"/>
				<line class="st5" x1="1454.86" y1="589.18" x2="1454.86" y2="670.98"/>
				<line class="st5" x1="1454.86" y1="302.89" x2="1454.86" y2="589.18"/>
				<line class="st5" x1="1454.86" y1="425.59" x2="1454.86" y2="302.89"/>
				<line class="st5" x1="1454.86" y1="527.84" x2="1454.86" y2="425.59"/>
				<line class="st5" x1="1454.86" y1="691.43" x2="1454.86" y2="527.84"/>
				<line class="st5" x1="1454.86" y1="527.84" x2="1454.86" y2="691.43"/>
				<line class="st5" x1="1454.86" y1="630.08" x2="1454.86" y2="527.84"/>
				<line class="st5" x1="1454.86" y1="732.33" x2="1454.86" y2="630.08"/>
				<line class="st5" x1="1454.86" y1="732.33" x2="1454.86" y2="732.33"/>
				<line class="st5" x1="1454.86" y1="732.33" x2="1454.86" y2="732.33"/>
				<line class="st5" x1="1454.86" y1="630.08" x2="1454.86" y2="732.33"/>
				<line class="st5" x1="1454.86" y1="568.73" x2="1454.86" y2="630.08"/>
				<line class="st5" x1="1454.86" y1="834.58" x2="1454.86" y2="568.73"/>
				<line class="st5" x1="1454.86" y1="527.84" x2="1454.86" y2="834.58"/>
				<line class="st5" x1="1454.86" y1="527.84" x2="1454.86" y2="527.84"/>
				<line class="st5" x1="1454.86" y1="425.59" x2="1454.86" y2="527.84"/>
				<line class="st5" x1="1454.86" y1="425.59" x2="1454.86" y2="425.59"/>
			</g>
		</g>
		<g>
			<g>
				<line class="st6" x1="1121.39" y1="609.63" x2="1121.39" y2="773.23"/>
				<line class="st6" x1="1121.39" y1="527.84" x2="1121.39" y2="609.63"/>
				<line class="st6" x1="1121.39" y1="630.08" x2="1121.39" y2="527.84"/>
				<line class="st6" x1="1121.39" y1="630.08" x2="1121.39" y2="630.08"/>
				<line class="st6" x1="1121.39" y1="732.33" x2="1121.39" y2="630.08"/>
				<line class="st6" x1="1121.39" y1="323.34" x2="1121.39" y2="732.33"/>
				<line class="st6" x1="1121.39" y1="732.33" x2="1121.39" y2="323.34"/>
				<line class="st6" x1="1121.39" y1="732.33" x2="1121.39" y2="732.33"/>
				<line class="st6" x1="1121.39" y1="630.08" x2="1121.39" y2="732.33"/>
				<line class="st6" x1="1121.39" y1="323.34" x2="1121.39" y2="630.08"/>
				<line class="st6" x1="1121.39" y1="793.68" x2="1121.39" y2="323.34"/>
				<line class="st6" x1="1121.39" y1="589.18" x2="1121.39" y2="793.68"/>
				<line class="st6" x1="1121.39" y1="180.19" x2="1121.39" y2="589.18"/>
				<line class="st6" x1="1121.39" y1="323.34" x2="1121.39" y2="180.19"/>
				<line class="st6" x1="1121.39" y1="732.33" x2="1121.39" y2="323.34"/>
				<line class="st6" x1="1121.39" y1="180.19" x2="1121.39" y2="732.33"/>
				<line class="st6" x1="1121.39" y1="589.18" x2="1121.39" y2="180.19"/>
				<line class="st6" x1="1121.39" y1="118.84" x2="1121.39" y2="589.18"/>
				<line class="st6" x1="1121.39" y1="323.34" x2="1121.39" y2="118.84"/>
				<line class="st6" x1="1121.39" y1="527.84" x2="1121.39" y2="323.34"/>
				<line class="st6" x1="1121.39" y1="425.59" x2="1121.39" y2="527.84"/>
			</g>
		</g>
		<g>
			<g>
				<line class="st7" x1="787.92" y1="773.23" x2="787.92" y2="670.98"/>
				<line class="st7" x1="787.92" y1="732.33" x2="787.92" y2="773.23"/>
				<line class="st7" x1="787.92" y1="589.18" x2="787.92" y2="732.33"/>
				<line class="st7" x1="787.92" y1="691.43" x2="787.92" y2="589.18"/>
				<line class="st7" x1="787.92" y1="466.49" x2="787.92" y2="691.43"/>
				<line class="st7" x1="787.92" y1="486.94" x2="787.92" y2="466.49"/>
				<line class="st7" x1="787.92" y1="691.43" x2="787.92" y2="486.94"/>
				<line class="st7" x1="787.92" y1="834.58" x2="787.92" y2="691.43"/>
				<line class="st7" x1="787.92" y1="732.33" x2="787.92" y2="834.58"/>
				<line class="st7" x1="787.92" y1="527.84" x2="787.92" y2="732.33"/>
				<line class="st7" x1="787.92" y1="834.58" x2="787.92" y2="527.84"/>
				<line class="st7" x1="787.92" y1="732.33" x2="787.92" y2="834.58"/>
				<line class="st7" x1="787.92" y1="527.84" x2="787.92" y2="732.33"/>
				<line class="st7" x1="787.92" y1="527.84" x2="787.92" y2="527.84"/>
				<line class="st7" x1="787.92" y1="732.33" x2="787.92" y2="527.84"/>
				<line class="st7" x1="787.92" y1="691.43" x2="787.92" y2="732.33"/>
				<line class="st7" x1="787.92" y1="589.18" x2="787.92" y2="691.43"/>
				<line class="st7" x1="787.92" y1="118.84" x2="787.92" y2="589.18"/>
				<line class="st7" x1="787.92" y1="527.84" x2="787.92" y2="118.84"/>
				<line class="st7" x1="787.92" y1="732.33" x2="787.92" y2="527.84"/>
				<line class="st7" x1="787.92" y1="630.08" x2="787.92" y2="732.33"/>
			</g>
		</g>
		<g>
			<g>
				<line class="st8" x1="454.45" y1="732.33" x2="454.45" y2="732.33"/>
				<line class="st8" x1="454.45" y1="323.34" x2="454.45" y2="732.33"/>
				<line class="st8" x1="454.45" y1="630.08" x2="454.45" y2="323.34"/>
				<line class="st8" x1="454.45" y1="773.23" x2="454.45" y2="630.08"/>
				<line class="st8" x1="454.45" y1="834.58" x2="454.45" y2="773.23"/>
				<line class="st8" x1="454.45" y1="384.69" x2="454.45" y2="834.58"/>
				<line class="st8" x1="454.45" y1="630.08" x2="454.45" y2="384.69"/>
				<line class="st8" x1="454.45" y1="425.59" x2="454.45" y2="630.08"/>
				<line class="st8" x1="454.45" y1="425.59" x2="454.45" y2="425.59"/>
				<line class="st8" x1="454.45" y1="527.84" x2="454.45" y2="425.59"/>
				<line class="st8" x1="454.45" y1="875.48" x2="454.45" y2="527.84"/>
				<line class="st8" x1="454.45" y1="527.84" x2="454.45" y2="875.48"/>
				<line class="st8" x1="454.45" y1="630.08" x2="454.45" y2="527.84"/>
				<line class="st8" x1="454.45" y1="895.93" x2="454.45" y2="630.08"/>
				<line class="st8" x1="454.45" y1="527.84" x2="454.45" y2="895.93"/>
				<line class="st8" x1="454.45" y1="936.83" x2="454.45" y2="527.84"/>
				<line class="st8" x1="454.45" y1="834.58" x2="454.45" y2="936.83"/>
				<line class="st8" x1="454.45" y1="936.83" x2="454.45" y2="834.58"/>
				<line class="st8" x1="454.45" y1="527.84" x2="454.45" y2="936.83"/>
				<line class="st8" x1="454.45" y1="732.33" x2="454.45" y2="527.84"/>
				<line class="st8" x1="454.45" y1="221.09" x2="454.45" y2="732.33"/>
			</g>
		</g>
	</g>
	<g>
		<g>
		</g>
		<g>
		</g>
		<g>
		</g>
		<g>
		</g>
		<g>
		</g>
		<g>
		</g>
		<g>
			<g>
				<rect x="117.98" y="933.83" class="st9" width="6" height="6"/>
				<rect x="117.98" y="933.83" class="st9" width="6" height="6"/>
				<rect x="117.98" y="933.83" class="st9" width="6" height="6"/>
				<rect x="117.98" y="933.83" class="st9" width="6" height="6"/>
				<rect x="117.98" y="933.83" class="st9" width="6" height="6"/>
				<rect x="117.98" y="933.83" class="st9" width="6" height="6"/>
				<rect x="117.98" y="933.83" class="st9" width="6" height="6"/>
				<rect x="117.98" y="933.83" class="st9" width="6" height="6"/>
				<rect x="117.98" y="933.83" class="st9" width="6" height="6"/>
				<rect x="117.98" y="933.83" class="st9" width="6" height="6"/>
				<rect x="117.98" y="933.83" class="st9" width="6" height="6"/>
				<rect x="117.98" y="933.83" class="st9" width="6" height="6"/>
				<rect x="117.98" y="933.83" class="st9" width="6" height="6"/>
				<rect x="117.98" y="933.83" class="st9" width="6" height="6"/>
				<rect x="117.98" y="933.83" class="st9" width="6" height="6"/>
				<rect x="117.98" y="933.83" class="st9" width="6" height="6"/>
				<rect x="117.98" y="933.83" class="st9" width="6" height="6"/>
				<rect x="117.98" y="933.83" class="st9" width="6" height="6"/>
				<rect x="117.98" y="933.83" class="st9" width="6" height="6"/>
				<rect x="117.98" y="933.83" class="st9" width="6" height="6"/>
				<rect x="117.98" y="933.83" class="st9" width="6" height="6"/>
				<rect x="117.98" y="933.83" class="st9" width="6" height="6"/>
			</g>
		</g>
		<g>
			<g>
				<rect x="1785.34" y="500.3" class="st10" width="6" height="6"/>
				<rect x="1785.34" y="627.08" class="st10" width="6" height="6"/>
				<rect x="1785.34" y="115.84" class="st10" width="6" height="6"/>
				<rect x="1785.34" y="320.34" class="st10" width="6" height="6"/>
				<rect x="1785.34" y="320.34" class="st10" width="6" height="6"/>
				<rect x="1785.34" y="299.89" class="st10" width="6" height="6"/>
				<rect x="1785.34" y="115.84" class="st10" width="6" height="6"/>
				<rect x="1785.34" y="115.84" class="st10" width="6" height="6"/>
				<rect x="1785.34" y="115.84" class="st10" width="6" height="6"/>
				<rect x="1785.34" y="320.34" class="st10" width="6" height="6"/>
				<rect x="1785.34" y="361.24" class="st10" width="6" height="6"/>
				<rect x="1785.34" y="422.59" class="st10" width="6" height="6"/>
				<rect x="1785.34" y="320.34" class="st10" width="6" height="6"/>
				<rect x="1785.34" y="320.34" class="st10" width="6" height="6"/>
				<rect x="1785.34" y="156.74" class="st10" width="6" height="6"/>
				<rect x="1785.34" y="115.84" class="st10" width="6" height="6"/>
				<rect x="1785.34" y="218.09" class="st10" width="6" height="6"/>
				<rect x="1785.34" y="422.59" class="st10" width="6" height="6"/>
				<rect x="1785.34" y="115.84" class="st10" width="6" height="6"/>
				<rect x="1785.34" y="115.84" class="st10" width="6" height="6"/>
				<rect x="1785.34" y="320.34" class="st10" width="6" height="6"/>
				<rect x="1785.34" y="156.74" class="st10" width="6" height="6"/>
			</g>
		</g>
		<g>
			<g>
				<rect x="1451.86" y="729.33" class="st11" width="6" height="6"/>
				<rect x="1451.86" y="688.43" class="st11" width="6" height="6"/>
				<rect x="1451.86" y="729.33" class="st11" width="6" height="6"/>
				<rect x="1451.86" y="524.84" class="st11" width="6" height="6"/>
				<rect x="1451.86" y="667.98" class="st11" width="6" height="6"/>
				<rect x="1451.86" y="586.18" class="st11" width="6" height="6"/>
				<rect x="1451.86" y="299.89" class="st11" width="6" height="6"/>
				<rect x="1451.86" y="422.59" class="st11" width="6" height="6"/>
				<rect x="1451.86" y="524.84" class="st11" width="6" height="6"/>
				<rect x="1451.86" y="688.43" class="st11" width="6" height="6"/>
				<rect x="1451.86" y="524.84" class="st11" width="6" height="6"/>
				<rect x="1451.86" y="627.08" class="st11" width="6" height="6"/>
				<rect x="1451.86" y="729.33" class="st11" width="6" height="6"/>
				<rect x="1451.86" y="729.33" class="st11" width="6" height="6"/>
				<rect x="1451.86" y="729.33" class="st11" width="6" height="6"/>
				<rect x="1451.86" y="627.08" class="st11" width="6" height="6"/>
				<rect x="1451.86" y="565.73" class="st11" width="6" height="6"/>
				<rect x="1451.86" y="831.58" class="st11" width="6" height="6"/>
				<rect x="1451.86" y="524.84" class="st11" width="6" height="6"/>
				<rect x="1451.86" y="524.84" class="st11" width="6" height="6"/>
				<rect x="1451.86" y="422.59" class="st11" width="6" height="6"/>
				<rect x="1451.86" y="422.59" class="st11" width="6" height="6"/>
			</g>
		</g>
		<g>
			<g>
				<rect x="1118.39" y="770.23" class="st12" width="6" height="6"/>
				<rect x="1118.39" y="606.63" class="st12" width="6" height="6"/>
				<rect x="1118.39" y="524.84" class="st12" width="6" height="6"/>
				<rect x="1118.39" y="627.08" class="st12" width="6" height="6"/>
				<rect x="1118.39" y="627.08" class="st12" width="6" height="6"/>
				<rect x="1118.39" y="729.33" class="st12" width="6" height="6"/>
				<rect x="1118.39" y="320.34" class="st12" width="6" height="6"/>
				<rect x="1118.39" y="729.33" class="st12" width="6" height="6"/>
				<rect x="1118.39" y="729.33" class="st12" width="6" height="6"/>
				<rect x="1118.39" y="627.08" class="st12" width="6" height="6"/>
				<rect x="1118.39" y="320.34" class="st12" width="6" height="6"/>
				<rect x="1118.39" y="790.68" class="st12" width="6" height="6"/>
				<rect x="1118.39" y="586.18" class="st12" width="6" height="6"/>
				<rect x="1118.39" y="177.19" class="st12" width="6" height="6"/>
				<rect x="1118.39" y="320.34" class="st12" width="6" height="6"/>
				<rect x="1118.39" y="729.33" class="st12" width="6" height="6"/>
				<rect x="1118.39" y="177.19" class="st12" width="6" height="6"/>
				<rect x="1118.39" y="586.18" class="st12" width="6" height="6"/>
				<rect x="1118.39" y="115.84" class="st12" width="6" height="6"/>
				<rect x="1118.39" y="320.34" class="st12" width="6" height="6"/>
				<rect x="1118.39" y="524.84" class="st12" width="6" height="6"/>
				<rect x="1118.39" y="422.59" class="st12" width="6" height="6"/>
			</g>
		</g>
		<g>
			<g>
				<rect x="784.92" y="667.98" class="st13" width="6" height="6"/>
				<rect x="784.92" y="770.23" class="st13" width="6" height="6"/>
				<rect x="784.92" y="729.33" class="st13" width="6" height="6"/>
				<rect x="784.92" y="586.18" class="st13" width="6" height="6"/>
				<rect x="784.92" y="688.43" class="st13" width="6" height="6"/>
				<rect x="784.92" y="463.49" class="st13" width="6" height="6"/>
				<rect x="784.92" y="483.94" class="st13" width="6" height="6"/>
				<rect x="784.92" y="688.43" class="st13" width="6" height="6"/>
				<rect x="784.92" y="831.58" class="st13" width="6" height="6"/>
				<rect x="784.92" y="729.33" class="st13" width="6" height="6"/>
				<rect x="784.92" y="524.84" class="st13" width="6" height="6"/>
				<rect x="784.92" y="831.58" class="st13" width="6" height="6"/>
				<rect x="784.92" y="729.33" class="st13" width="6" height="6"/>
				<rect x="784.92" y="524.84" class="st13" width="6" height="6"/>
				<rect x="784.92" y="524.84" class="st13" width="6" height="6"/>
				<rect x="784.92" y="729.33" class="st13" width="6" height="6"/>
				<rect x="784.92" y="688.43" class="st13" width="6" height="6"/>
				<rect x="784.92" y="586.18" class="st13" width="6" height="6"/>
				<rect x="784.92" y="115.84" class="st13" width="6" height="6"/>
				<rect x="784.92" y="524.84" class="st13" width="6" height="6"/>
				<rect x="784.92" y="729.33" class="st13" width="6" height="6"/>
				<rect x="784.92" y="627.08" class="st13" width="6" height="6"/>
			</g>
		</g>
		<g>
			<g>
				<rect x="451.45" y="729.33" class="st14" width="6" height="6"/>
				<rect x="451.45" y="729.33" class="st14" width="6" height="6"/>
				<rect x="451.45" y="320.34" class="st14" width="6" height="6"/>
				<rect x="451.45" y="627.08" class="st14" width="6" height="6"/>
				<rect x="451.45" y="770.23" class="st14" width="6" height="6"/>
				<rect x="451.45" y="831.58" class="st14" width="6" height="6"/>
				<rect x="451.45" y="381.69" class="st14" width="6" height="6"/>
				<rect x="451.45" y="627.08" class="st14" width="6" height="6"/>
				<rect x="451.45" y="422.59" class="st14" width="6" height="6"/>
				<rect x="451.45" y="422.59" class="st14" width="6" height="6"/>
				<rect x="451.45" y="524.84" class="st14" width="6" height="6"/>
				<rect x="451.45" y="872.48" class="st14" width="6" height="6"/>
				<rect x="451.45" y="524.84" class="st14" width="6" height="6"/>
				<rect x="451.45" y="627.08" class="st14" width="6" height="6"/>
				<rect x="451.45" y="892.93" class="st14" width="6" height="6"/>
				<rect x="451.45" y="524.84" class="st14" width="6" height="6"/>
				<rect x="451.45" y="933.83" class="st14" width="6" height="6"/>
				<rect x="451.45" y="831.58" class="st14" width="6" height="6"/>
				<rect x="451.45" y="933.83" class="st14" width="6" height="6"/>
				<rect x="451.45" y="524.84" class="st14" width="6" height="6"/>
				<rect x="451.45" y="729.33" class="st14" width="6" height="6"/>
				<rect x="451.45" y="218.09" class="st14" width="6" height="6"/>
			</g>
		</g>
	</g>
</g>
<g id="background">
	<line class="st2" x1="454.45" y1="936.83" x2="454.45" y2="118.84"/>
	<line class="st2" x1="1788.34" y1="936.83" x2="1788.34" y2="122.11"/>
	<line class="st2" x1="1454.86" y1="936.83" x2="1454.86" y2="120.73"/>
	<line class="st2" x1="1121.39" y1="936.83" x2="1121.39" y2="118.84"/>
	<line class="st2" x1="787.92" y1="936.83" x2="787.92" y2="118.84"/>
	<line class="st2" x1="120.98" y1="732.33" x2="1788.37" y2="732.23"/>
	<line class="st2" x1="120.98" y1="118.84" x2="1788.34" y2="118.84"/>
	<line class="st2" x1="120.98" y1="323.34" x2="1791.34" y2="320.34"/>
	<line class="st2" x1="120.98" y1="527.84" x2="1788.36" y2="525.76"/>
</g>
<g id="general">
	<circle class="st15" cx="787.92" cy="732.23" r="91.68"/>
	<circle class="st15" cx="454.45" cy="895.93" r="41"/>
	<circle class="st15" cx="454.45" cy="773.23" r="41"/>
	<circle class="st15" cx="454.45" cy="385.95" r="41"/>
	<circle class="st15" cx="454.45" cy="834.16" r="57.98"/>
	<circle class="st15" cx="454.45" cy="875.16" r="41"/>
	<circle class="st15" cx="788.84" cy="691.23" r="71.01"/>
	<circle class="st15" cx="787.92" cy="118.84" r="41"/>
	<circle class="st15" cx="788.84" cy="464.05" r="41"/>
	<circle class="st15" cx="787.92" cy="486.84" r="41"/>
	<circle class="st15" cx="787.92" cy="527.84" r="82"/>
	<circle class="st15" cx="787.92" cy="588.98" r="57.98"/>
	<circle class="st15" cx="787.92" cy="629.98" r="41"/>
	<circle class="st15" cx="787.92" cy="670.98" r="41"/>
	<circle class="st15" cx="787.92" cy="773.23" r="41"/>
	<circle class="st15" cx="788.84" cy="834.16" r="57.98"/>
	<circle class="st15" cx="1454.86" cy="670.98" r="41"/>
	<circle class="st15" cx="1454.86" cy="732.23" r="91.68"/>
	<circle class="st15" cx="1454.86" cy="834.16" r="41"/>
	<circle class="st15" cx="1121.39" cy="118.84" r="41"/>
	<circle class="st15" cx="1121.39" cy="426.95" r="41"/>
	<circle class="st15" cx="1121.39" cy="589.18" r="57.98"/>
	<circle class="st15" cx="1121.39" cy="611.87" r="41"/>
	<circle class="st15" cx="1121.39" cy="630.08" r="71"/>
	<circle class="st15" cx="1121.39" cy="732.23" r="82"/>
	<circle class="st15" cx="1121.39" cy="773.23" r="41"/>
	<circle class="st15" cx="1121.39" cy="794.92" r="41"/>
	<circle class="st15" cx="1121.39" cy="527.84" r="57.98"/>
	<circle class="st15" cx="1121.39" cy="323.44" r="82"/>
	<circle class="st15" cx="1121.39" cy="180.09" r="57.98"/>
	<circle class="st15" cx="1454.86" cy="691.23" r="57.98"/>
	<circle class="st15" cx="1788.34" cy="302.89" r="41"/>
	<circle class="st15" cx="1788.34" cy="323.44" r="100.43"/>
	<circle class="st15" cx="1788.34" cy="364.24" r="41"/>
	<circle class="st15" cx="1788.34" cy="505.05" r="41"/>
	<circle class="st15" cx="1788.34" cy="628.57" r="41"/>
	<circle class="st15" cx="1454.86" cy="302.89" r="41"/>
	<circle class="st15" cx="1454.86" cy="570.87" r="41"/>
	<circle class="st15" cx="1457.37" cy="587.57" r="41"/>
	<circle class="st15" cx="1454.86" cy="630.08" r="57.98"/>
	<circle class="st15" cx="1454.86" cy="527.84" r="91.68"/>
	<circle class="st15" cx="1454.86" cy="426.95" r="71"/>
	<circle class="st15" cx="1788.34" cy="426.95" r="57.98"/>
	<circle class="st15" cx="1788.34" cy="221.09" r="41"/>
	<circle class="st15" cx="1788.34" cy="159.84" r="57.98"/>
	<circle class="st15" cx="1788.34" cy="122.11" r="108.47"/>
	<circle class="st15" cx="454.45" cy="732.23" r="71.01"/>
	<circle class="st15" cx="454.45" cy="628.57" r="71.01"/>
	<circle class="st15" cx="454.45" cy="527.42" r="82"/>
	<circle class="st15" cx="454.45" cy="426.95" r="57.98"/>
	<circle class="st15" cx="454.45" cy="322.74" r="41"/>
	<circle class="st15" cx="454.45" cy="221.09" r="41"/>
</g>
<g id="a1p1">
	<circle class="st16" cx="454.45" cy="773.23" r="41"/>
	<circle class="st16" cx="454.45" cy="732.23" r="57.98"/>
	<circle class="st16" cx="454.45" cy="323.44" r="41"/>
	<circle class="st16" cx="454.45" cy="628.57" r="41"/>
</g>
<g id="a1p2">
	<circle class="st17" cx="454.45" cy="426.96" r="57.98"/>
	<circle class="st17" cx="454.45" cy="385.95" r="41"/>
	<circle class="st17" cx="454.45" cy="628.57" r="41"/>
	<circle class="st17" cx="454.45" cy="835.89" r="41"/>
</g>
<g id="a1p3">
	<circle class="st18" cx="454.45" cy="630.08" r="41"/>
	<circle class="st18" cx="454.45" cy="895.94" r="41"/>
	<circle class="st18" cx="453.68" cy="527.84" r="71.01"/>
	<circle class="st18" cx="453.68" cy="875.16" r="41"/>
</g>
<g id="a1p4">
	<circle class="st19" cx="454.45" cy="221.09" r="41"/>
	<circle class="st19" cx="454.45" cy="527.42" r="41"/>
	<circle class="st19" cx="454.45" cy="732.23" r="41"/>
	<circle class="st19" cx="454.45" cy="834.16" r="41"/>
</g>
</svg>
